<svg xmlns="http://www.w3.org/2000/svg" viewBox="0 0 34.64 31.1"><defs><style>.cls-1,.cls-2{fill:none;stroke:#000;stroke-miterlimit:10;}.cls-1{stroke-width:0.25px;}.cls-2{stroke-width:0.5px;}</style></defs><title>Risorsa 1</title><g id="Livello_2" data-name="Livello 2"><g id="Livello_1-2" data-name="Livello 1"><polyline class="cls-1" points="0.91 27.97 0.43 27.49 0.91 27.97"/><line class="cls-1" x1="1.03" y1="27.91" x2="0.55" y2="27.43"/><line class="cls-1" x1="1.15" y1="27.79" x2="0.67" y2="27.31"/><line class="cls-1" x1="0.79" y1="30.97" x2="33.79" y2="30.97"/><line class="cls-1" x1="0.25" y1="27.13" x2="0.25" y2="22.75"/><line class="cls-1" x1="0.25" y1="21.85" x2="0.25" y2="6.67"/><polyline class="cls-2" points="0.25 5.71 0.25 4.09 0.25 27.13"/><line class="cls-2" x1="0.37" y1="27.01" x2="0.37" y2="4.21"/><line class="cls-2" x1="0.55" y1="27.01" x2="0.55" y2="4.21"/><line class="cls-1" x1="1.39" y1="27.91" x2="1.39" y2="28.09"/><line class="cls-1" x1="1.45" y1="28.51" x2="1.45" y2="28.27"/><line class="cls-1" x1="21.07" y1="28.51" x2="13.51" y2="28.51"/><line class="cls-1" x1="12.01" y1="28.51" x2="9.19" y2="28.51"/><line class="cls-1" x1="7.69" y1="28.51" x2="1.45" y2="28.51"/><line class="cls-1" x1="22.63" y1="28.51" x2="25.39" y2="28.51"/><line class="cls-1" x1="26.89" y1="28.51" x2="33.13" y2="28.51"/><line class="cls-1" x1="1.45" y1="28.27" x2="33.13" y2="28.27"/><line class="cls-1" x1="1.27" y1="28.15" x2="33.31" y2="28.15"/><line class="cls-1" x1="33.19" y1="28.09" x2="1.39" y2="28.09"/><line class="cls-1" x1="1.39" y1="27.91" x2="33.19" y2="27.91"/><line class="cls-1" x1="0.55" y1="27.01" x2="0.37" y2="27.01"/><line class="cls-1" x1="34.03" y1="27.01" x2="34.21" y2="27.01"/><line class="cls-1" x1="2.41" y1="14.47" x2="2.41" y2="14.05"/><line class="cls-1" x1="2.89" y1="14.95" x2="2.89" y2="14.71"/><line class="cls-1" x1="2.89" y1="13.75" x2="2.89" y2="13.51"/><line class="cls-1" x1="3.31" y1="13.51" x2="3.31" y2="13.75"/><line class="cls-1" x1="3.31" y1="14.71" x2="3.31" y2="14.95"/><line class="cls-2" x1="3.61" y1="0.61" x2="3.61" y2="0.43"/><line class="cls-1" x1="3.85" y1="14.05" x2="3.85" y2="14.47"/><line class="cls-1" x1="4.15" y1="28.15" x2="4.15" y2="28.27"/><line class="cls-1" x1="0.91" y1="28.75" x2="0.79" y2="30.97"/><line class="cls-1" x1="1.15" y1="28.75" x2="1.03" y2="30.97"/><line class="cls-1" x1="2.77" y1="28.15" x2="2.77" y2="28.27"/><line class="cls-2" x1="3.13" y1="0.55" x2="0.43" y2="3.73"/><line class="cls-2" x1="0.49" y1="3.85" x2="3.19" y2="0.61"/><line class="cls-2" x1="0.61" y1="3.97" x2="3.31" y2="0.73"/><line class="cls-2" x1="0.37" y1="3.73" x2="3.07" y2="0.55"/><polyline class="cls-1" points="7.57 30.97 7.69 28.51 7.69 28.27"/><line class="cls-2" x1="0.25" y1="4.09" x2="0.37" y2="4.21"/><line class="cls-2" x1="0.43" y1="3.73" x2="0.49" y2="3.85"/><line class="cls-1" x1="9.19" y1="28.51" x2="9.13" y2="30.97"/><line class="cls-2" x1="0.61" y1="3.97" x2="0.49" y2="3.85"/><line class="cls-1" x1="12.01" y1="28.51" x2="11.89" y2="30.97"/><line class="cls-2" x1="3.19" y1="0.61" x2="3.13" y2="0.55"/><polyline class="cls-1" points="13.45 30.97 13.51 28.51 13.51 28.27"/><line class="cls-1" x1="31.69" y1="14.95" x2="31.27" y2="14.95"/><line class="cls-1" x1="3.31" y1="14.95" x2="2.89" y2="14.95"/><line class="cls-1" x1="32.17" y1="14.47" x2="31.93" y2="14.47"/><line class="cls-1" x1="31.03" y1="14.47" x2="30.79" y2="14.47"/><line class="cls-1" x1="3.85" y1="14.47" x2="3.61" y2="14.47"/><line class="cls-1" x1="2.65" y1="14.47" x2="2.41" y2="14.47"/><line class="cls-1" x1="2.41" y1="14.05" x2="2.65" y2="14.05"/><line class="cls-1" x1="3.61" y1="14.05" x2="3.85" y2="14.05"/><line class="cls-1" x1="30.79" y1="14.05" x2="31.03" y2="14.05"/><line class="cls-1" x1="31.93" y1="14.05" x2="32.17" y2="14.05"/><line class="cls-1" x1="2.89" y1="13.51" x2="3.31" y2="13.51"/><line class="cls-1" x1="31.27" y1="13.51" x2="31.69" y2="13.51"/><line class="cls-2" x1="3.31" y1="0.73" x2="3.19" y2="0.61"/><line class="cls-2" x1="3.61" y1="0.43" x2="3.55" y2="0.31"/><line class="cls-1" x1="33.25" y1="28.15" x2="33.19" y2="28.09"/><line class="cls-1" x1="33.67" y1="27.97" x2="33.43" y2="27.79"/><line class="cls-1" x1="33.97" y1="27.31" x2="34.15" y2="27.49"/><line class="cls-1" x1="34.21" y1="27.01" x2="34.33" y2="27.13"/><line class="cls-1" x1="21.07" y1="28.51" x2="21.13" y2="30.97"/><line class="cls-1" x1="22.63" y1="28.51" x2="22.69" y2="30.97"/><line class="cls-1" x1="21.07" y1="28.51" x2="21.07" y2="28.27"/><line class="cls-1" x1="0.37" y1="27.01" x2="0.25" y2="27.13"/><line class="cls-1" x1="0.67" y1="27.31" x2="0.43" y2="27.49"/><line class="cls-1" x1="0.91" y1="27.97" x2="1.15" y2="27.79"/><line class="cls-1" x1="1.33" y1="28.15" x2="1.39" y2="28.09"/><line class="cls-2" x1="30.97" y1="0.43" x2="31.09" y2="0.31"/><polyline class="cls-2" points="31.27 0.73 31.39 0.61 31.45 0.55"/><line class="cls-2" x1="0.55" y1="4.21" x2="0.37" y2="4.21"/><line class="cls-2" x1="34.03" y1="4.21" x2="34.21" y2="4.21"/><line class="cls-1" x1="25.39" y1="28.51" x2="25.45" y2="30.97"/><polyline class="cls-1" points="26.89 28.27 26.89 28.51 27.01 30.97"/><polyline class="cls-2" points="34.21 3.73 34.09 3.85 33.97 3.97"/><line class="cls-2" x1="30.97" y1="0.61" x2="3.61" y2="0.61"/><line class="cls-2" x1="3.61" y1="0.43" x2="30.97" y2="0.43"/><line class="cls-2" x1="3.49" y1="0.31" x2="31.09" y2="0.31"/><line class="cls-1" x1="31.81" y1="28.15" x2="31.81" y2="28.27"/><line class="cls-1" x1="30.43" y1="28.15" x2="30.43" y2="28.27"/><line class="cls-1" x1="30.79" y1="14.47" x2="30.79" y2="14.05"/><line class="cls-2" x1="30.97" y1="0.61" x2="30.97" y2="0.43"/><line class="cls-2" x1="34.33" y1="4.09" x2="34.21" y2="4.21"/><line class="cls-1" x1="33.43" y1="28.75" x2="33.55" y2="30.97"/><line class="cls-1" x1="33.67" y1="28.75" x2="33.79" y2="30.97"/><line class="cls-1" x1="31.27" y1="14.95" x2="31.27" y2="14.71"/><line class="cls-1" x1="31.27" y1="13.75" x2="31.27" y2="13.51"/><line class="cls-1" x1="31.69" y1="13.51" x2="31.69" y2="13.75"/><line class="cls-1" x1="31.69" y1="14.71" x2="31.69" y2="14.95"/><line class="cls-1" x1="32.17" y1="14.05" x2="32.17" y2="14.47"/><line class="cls-1" x1="33.13" y1="28.51" x2="33.13" y2="28.27"/><line class="cls-1" x1="33.19" y1="27.91" x2="33.19" y2="28.09"/><line class="cls-2" x1="34.21" y1="3.73" x2="31.51" y2="0.55"/><line class="cls-2" x1="33.97" y1="3.97" x2="31.27" y2="0.73"/><line class="cls-2" x1="34.09" y1="3.85" x2="31.39" y2="0.61"/><line class="cls-2" x1="31.45" y1="0.55" x2="34.21" y2="3.73"/><line class="cls-2" x1="34.03" y1="27.01" x2="34.03" y2="4.21"/><line class="cls-2" x1="34.21" y1="27.01" x2="34.21" y2="4.21"/><polyline class="cls-2" points="34.33 22.75 34.33 27.13 34.33 4.09"/><line class="cls-1" x1="34.33" y1="21.85" x2="34.33" y2="6.67"/><line class="cls-2" x1="34.33" y1="5.71" x2="34.33" y2="4.09"/><line class="cls-1" x1="33.43" y1="27.79" x2="33.97" y2="27.31"/><line class="cls-1" x1="33.55" y1="27.91" x2="34.09" y2="27.43"/><polyline class="cls-1" points="34.15 27.49 33.67 27.97 34.21 27.49"/><path class="cls-1" d="M32,14.41a.27.27,0,0,0-.27.27"/><path class="cls-1" d="M31.69,13.72A.27.27,0,0,0,32,14"/><path class="cls-1" d="M33.13,14.2a1.65,1.65,0,1,0-1.65,1.65,1.65,1.65,0,0,0,1.65-1.65"/><path class="cls-1" d="M31.06,14a.27.27,0,0,0,.27-.27"/><path class="cls-1" d="M31.33,14.68a.27.27,0,0,0-.27-.27"/><path class="cls-1" d="M32.65,14.2a1.17,1.17,0,1,0-1.17,1.17,1.17,1.17,0,0,0,1.17-1.17"/><path class="cls-1" d="M3.64,14.41a.27.27,0,0,0-.27.27"/><path class="cls-1" d="M3.37,13.72a.27.27,0,0,0,.27.27"/><path class="cls-1" d="M4.81,14.2a1.65,1.65,0,1,0-1.65,1.65A1.65,1.65,0,0,0,4.81,14.2"/><path class="cls-1" d="M2.68,14a.27.27,0,0,0,.27-.27"/><path class="cls-1" d="M2.95,14.68a.27.27,0,0,0-.27-.27"/><path class="cls-1" d="M4.33,14.2a1.17,1.17,0,1,0-1.17,1.17A1.17,1.17,0,0,0,4.33,14.2"/><path class="cls-1" d="M33.73,28.75a.57.57,0,0,0-.57-.54"/><path class="cls-1" d="M1.48,28.21a.57.57,0,0,0-.57.54"/><path class="cls-2" d="M3.52.25a.57.57,0,0,0-.44.2"/><path class="cls-2" d="M.38,3.69a.57.57,0,0,0-.13.37"/><path class="cls-2" d="M.31,5.68a.15.15,0,0,0,0,.09"/><path class="cls-1" d="M.34,6.55a.15.15,0,0,0,0,.09"/><path class="cls-1" d="M.31,21.82a.15.15,0,0,0,0,.09"/><path class="cls-1" d="M.34,22.63a.15.15,0,0,0,0,.09"/><path class="cls-1" d="M.25,27.1a.57.57,0,0,0,.17.4"/><path class="cls-1" d="M.9,28a.57.57,0,0,0,.4.17"/><path class="cls-1" d="M33.34,28.15a.57.57,0,0,0,.4-.17"/><path class="cls-1" d="M34.22,27.5a.57.57,0,0,0,.17-.4"/><path class="cls-1" d="M34.33,22.72a.15.15,0,0,0,0-.09"/><path class="cls-2" d="M31.56.45a.57.57,0,0,0-.44-.2"/><path class="cls-2" d="M34.39,4.06a.57.57,0,0,0-.13-.37"/><path class="cls-2" d="M34.3,5.77a.15.15,0,0,0,0-.09"/><path class="cls-1" d="M34.33,6.64a.15.15,0,0,0,0-.09"/><path class="cls-1" d="M34.3,21.91a.15.15,0,0,0,0-.09"/><path class="cls-1" d="M5.35,14.2a2.19,2.19,0,1,0-2.19,2.19A2.19,2.19,0,0,0,5.35,14.2"/><path class="cls-1" d="M33.67,14.2a2.19,2.19,0,1,0-2.19,2.19,2.19,2.19,0,0,0,2.19-2.19"/><polyline class="cls-1" points="25.09 28.27 25.15 28.27 25.21 28.27 25.27 28.27 25.27 28.33 25.33 28.33 25.33 28.39 25.33 28.45 25.39 28.45 25.39 28.51 25.45 28.51 25.51 28.51 25.57 28.51 25.63 28.51 25.69 28.51 25.75 28.51 25.81 28.51 25.87 28.51 25.93 28.51 25.99 28.51 26.05 28.51 26.11 28.51 26.17 28.51 26.23 28.51 26.29 28.51 26.35 28.51 26.41 28.51 26.47 28.51 26.53 28.51 26.59 28.51 26.65 28.51 26.71 28.51 26.77 28.51 26.83 28.51 26.89 28.51"/><polyline class="cls-1" points="33.67 28.75 33.61 28.75 33.55 28.75 33.49 28.75 33.43 28.75 33.43 28.69 33.37 28.69 33.37 28.63 33.31 28.63 33.31 28.57 33.25 28.57 33.25 28.51 33.19 28.51 33.13 28.51"/><polyline class="cls-1" points="0.91 28.75 0.97 28.75 1.03 28.75 1.09 28.75 1.15 28.75"/><polyline class="cls-1" points="1.15 28.75 1.21 28.75 1.21 28.69 1.21 28.63 1.27 28.63 1.27 28.57 1.33 28.57 1.33 28.51 1.39 28.51 1.45 28.51"/><polyline class="cls-1" points="7.69 28.51 7.75 28.51 7.81 28.51 7.87 28.51 7.93 28.51 7.99 28.51 8.05 28.51 8.11 28.51 8.17 28.51 8.23 28.51 8.29 28.51 8.35 28.51 8.41 28.51 8.47 28.51 8.53 28.51 8.59 28.51 8.65 28.51 8.71 28.51 8.77 28.51 8.83 28.51 8.89 28.51 8.95 28.51 9.01 28.51 9.07 28.51 9.13 28.51 9.19 28.51 9.25 28.51 9.25 28.45 9.25 28.39 9.25 28.33 9.31 28.33 9.37 28.33 9.37 28.27 9.43 28.27 9.49 28.27"/><polyline class="cls-1" points="12.25 28.27 12.19 28.27 12.13 28.27 12.13 28.33 12.07 28.33 12.07 28.39 12.01 28.39 12.01 28.45 12.01 28.51"/><polyline class="cls-1" points="12.01 28.51 12.07 28.51 12.13 28.51 12.19 28.51 12.25 28.51 12.31 28.51 12.37 28.51 12.43 28.51 12.49 28.51 12.55 28.51 12.61 28.51 12.67 28.51 12.73 28.51 12.79 28.51 12.85 28.51 12.91 28.51 12.97 28.51 13.03 28.51 13.09 28.51 13.15 28.51 13.21 28.51 13.27 28.51 13.33 28.51 13.39 28.51 13.45 28.51 13.51 28.51"/><polyline class="cls-1" points="3.01 28.27 3.07 28.27 3.07 28.21 3.07 28.15"/><polyline class="cls-1" points="31.57 28.27 31.57 28.21 31.57 28.15"/><polyline class="cls-1" points="22.33 28.27 22.39 28.27 22.45 28.27 22.51 28.33 22.57 28.33 22.57 28.39 22.57 28.45 22.57 28.51 22.63 28.51 22.57 28.51 22.51 28.51 22.45 28.51 22.39 28.51 22.33 28.51 22.27 28.51 22.21 28.51 22.15 28.51 22.09 28.51 22.03 28.51 21.97 28.51 21.91 28.51 21.85 28.51 21.79 28.51 21.73 28.51 21.67 28.51 21.61 28.51 21.55 28.51 21.49 28.51 21.43 28.51 21.37 28.51 21.31 28.51 21.25 28.51 21.19 28.51 21.13 28.51 21.07 28.51"/><polyline class="cls-1" points="1.33 28.15 1.27 28.15 1.21 28.15 1.15 28.15 1.15 28.09 1.09 28.09 1.03 28.09 1.03 28.03 0.97 28.03 0.91 27.97"/><polyline class="cls-1" points="0.43 27.49 0.43 27.49 0.43 27.43 0.37 27.43 0.37 27.37 0.31 27.37 0.31 27.31 0.31 27.25 0.31 27.19 0.25 27.13"/><polyline class="cls-2" points="0.25 4.09 0.31 4.09 0.31 4.03 0.31 3.97 0.31 3.91 0.31 3.85 0.37 3.85 0.37 3.79 0.43 3.73"/><polyline class="cls-2" points="3.13 0.55 3.13 0.49 3.19 0.49 3.19 0.43 3.25 0.43 3.25 0.37 3.31 0.37 3.37 0.37 3.43 0.37 3.43 0.31 3.49 0.31 3.55 0.31"/><polyline class="cls-2" points="31.45 0.55 31.45 0.49 31.39 0.49 31.39 0.43 31.33 0.43 31.33 0.37 31.27 0.37 31.21 0.37 31.15 0.37 31.15 0.31 31.09 0.31"/><polyline class="cls-2" points="34.33 4.09 34.33 4.03 34.33 3.97 34.27 3.97 34.27 3.91 34.27 3.85 34.21 3.85 34.21 3.79 34.21 3.73"/><polyline class="cls-1" points="34.15 27.49 34.15 27.49 34.21 27.49 34.21 27.43 34.21 27.37 34.27 27.37 34.27 27.31 34.27 27.25 34.33 27.25 34.33 27.19 34.33 27.13"/><polyline class="cls-1" points="33.25 28.15 33.31 28.15 33.37 28.15 33.43 28.15 33.43 28.09 33.49 28.09 33.55 28.09 33.55 28.03 33.61 28.03 33.67 28.03 33.67 27.97"/><polyline class="cls-1" points="34.09 27.43 34.09 27.37 34.09 27.31 34.15 27.31 34.15 27.25 34.21 27.25 34.21 27.19 34.21 27.13 34.21 27.07 34.21 27.01"/><polyline class="cls-1" points="33.55 27.91 33.49 27.97 33.43 27.97 33.43 28.03 33.37 28.03 33.31 28.03 33.25 28.03 33.19 28.03 33.19 28.09"/><polyline class="cls-2" points="34.09 3.85 34.09 3.91 34.15 3.91 34.15 3.97 34.21 3.97 34.21 4.03 34.21 4.09 34.21 4.15 34.21 4.21"/><polyline class="cls-2" points="30.97 0.43 31.03 0.43 31.09 0.43 31.15 0.43 31.15 0.49 31.21 0.49 31.27 0.49 31.27 0.55 31.33 0.55 31.33 0.61 31.39 0.61"/><polyline class="cls-2" points="3.61 0.61 3.55 0.61 3.49 0.61 3.43 0.61 3.43 0.67 3.37 0.67 3.37 0.73 3.31 0.73"/><polyline class="cls-2" points="0.61 3.97 0.61 4.03 0.55 4.03 0.55 4.09 0.55 4.15 0.55 4.21"/><polyline class="cls-1" points="0.55 27.01 0.55 27.07 0.55 27.13 0.55 27.19 0.61 27.19 0.61 27.25 0.61 27.31 0.67 27.31"/><polyline class="cls-1" points="1.15 27.79 1.21 27.85 1.27 27.85 1.33 27.91 1.39 27.91"/><polyline class="cls-1" points="33.43 27.79 33.43 27.85 33.37 27.85 33.31 27.85 33.31 27.91 33.25 27.91 33.19 27.91"/><polyline class="cls-1" points="34.03 27.01 34.03 27.07 34.03 27.13 34.03 27.19 33.97 27.25 33.97 27.31"/><polyline class="cls-2" points="33.97 3.97 34.03 3.97 34.03 4.03 34.03 4.09 34.03 4.15 34.03 4.21"/><polyline class="cls-2" points="30.97 0.61 31.03 0.61 31.09 0.61 31.15 0.61 31.15 0.67 31.21 0.67 31.21 0.73 31.27 0.73"/><polyline class="cls-2" points="3.61 0.43 3.55 0.43 3.49 0.43 3.43 0.43 3.43 0.49 3.37 0.49 3.31 0.49 3.31 0.55 3.25 0.55 3.25 0.61 3.19 0.61"/><polyline class="cls-2" points="0.49 3.85 0.49 3.91 0.43 3.91 0.43 3.97 0.43 4.03 0.37 4.03 0.37 4.09 0.37 4.15 0.37 4.21"/><polyline class="cls-1" points="1.03 27.91 1.09 27.91 1.09 27.97 1.15 27.97 1.15 28.03 1.21 28.03 1.27 28.03 1.33 28.03 1.39 28.03 1.39 28.09"/><polyline class="cls-1" points="0.55 27.43 0.55 27.37 0.49 27.37 0.49 27.31 0.43 27.31 0.43 27.25 0.43 27.19 0.37 27.19 0.37 27.13 0.37 27.07 0.37 27.01"/><line class="cls-1" x1="26.59" y1="16.87" x2="7.99" y2="16.87"/><line class="cls-1" x1="7.99" y1="16.57" x2="26.59" y2="16.57"/><line class="cls-1" x1="26.59" y1="27.01" x2="7.99" y2="27.01"/><line class="cls-1" x1="7.99" y1="26.77" x2="26.59" y2="26.77"/><line class="cls-1" x1="27.43" y1="26.23" x2="27.13" y2="26.23"/><polyline class="cls-1" points="7.15 17.41 7.15 26.23 7.45 26.23 7.45 17.41"/><line class="cls-1" x1="7.99" y1="16.57" x2="7.99" y2="16.87"/><line class="cls-1" x1="7.99" y1="27.01" x2="7.99" y2="26.77"/><line class="cls-1" x1="27.43" y1="17.41" x2="27.13" y2="17.41"/><line class="cls-1" x1="7.15" y1="17.41" x2="7.45" y2="17.41"/><line class="cls-1" x1="26.59" y1="16.57" x2="26.59" y2="16.87"/><line class="cls-1" x1="26.59" y1="27.01" x2="26.59" y2="26.77"/><line class="cls-1" x1="27.13" y1="17.41" x2="27.13" y2="26.23"/><line class="cls-1" x1="27.43" y1="17.41" x2="27.43" y2="26.23"/><path class="cls-1" d="M8,16.81a.57.57,0,0,0-.57.57"/><path class="cls-1" d="M27.19,17.38a.57.57,0,0,0-.57-.57"/><path class="cls-1" d="M26.62,26.77a.57.57,0,0,0,.57-.57"/><path class="cls-1" d="M7.45,26.2a.57.57,0,0,0,.57.57"/><line class="cls-1" x1="7.63" y1="18.01" x2="7.63" y2="25.87"/><line class="cls-1" x1="8.17" y1="25.87" x2="8.17" y2="18.01"/><line class="cls-1" x1="8.41" y1="17.71" x2="8.41" y2="17.17"/><line class="cls-1" x1="8.41" y1="26.17" x2="8.41" y2="26.71"/><line class="cls-1" x1="11.53" y1="23.59" x2="11.53" y2="24.91"/><line class="cls-1" x1="10.99" y1="23.77" x2="10.99" y2="23.59"/><line class="cls-1" x1="26.17" y1="17.17" x2="8.41" y2="17.17"/><line class="cls-1" x1="11.95" y1="21.13" x2="11.95" y2="22.51"/><line class="cls-1" x1="12.43" y1="24.91" x2="12.43" y2="23.59"/><line class="cls-1" x1="8.41" y1="17.71" x2="14.83" y2="17.71"/><line class="cls-1" x1="19.75" y1="17.71" x2="26.17" y2="17.71"/><line class="cls-1" x1="8.17" y1="18.01" x2="7.63" y2="18.01"/><line class="cls-1" x1="26.41" y1="18.01" x2="26.95" y2="18.01"/><line class="cls-1" x1="12.97" y1="23.59" x2="12.97" y2="23.77"/><line class="cls-1" x1="14.83" y1="18.13" x2="15.67" y2="18.13"/><line class="cls-1" x1="18.91" y1="18.13" x2="19.75" y2="18.13"/><line class="cls-1" x1="21.13" y1="18.25" x2="19.75" y2="18.25"/><line class="cls-1" x1="14.83" y1="18.25" x2="13.45" y2="18.25"/><line class="cls-1" x1="16.09" y1="18.37" x2="18.49" y2="18.37"/><line class="cls-1" x1="20.35" y1="18.73" x2="18.79" y2="18.73"/><line class="cls-1" x1="14.23" y1="18.73" x2="15.79" y2="18.73"/><line class="cls-1" x1="13.45" y1="19.45" x2="13.45" y2="18.25"/><line class="cls-1" x1="13.75" y1="22.81" x2="13.75" y2="22.15"/><line class="cls-1" x1="13.75" y1="21.49" x2="13.75" y2="20.77"/><line class="cls-1" x1="13.87" y1="22.87" x2="13.87" y2="22.15"/><line class="cls-1" x1="13.87" y1="21.49" x2="13.87" y2="20.71"/><line class="cls-1" x1="13.63" y1="19.51" x2="13.63" y2="20.23"/><line class="cls-1" x1="15.79" y1="19.03" x2="14.23" y2="19.03"/><line class="cls-1" x1="18.79" y1="19.03" x2="20.35" y2="19.03"/><line class="cls-1" x1="20.71" y1="19.21" x2="18.79" y2="19.21"/><line class="cls-1" x1="13.87" y1="19.21" x2="15.79" y2="19.21"/><line class="cls-1" x1="13.57" y1="19.51" x2="14.35" y2="19.51"/><line class="cls-1" x1="14.77" y1="19.51" x2="15.79" y2="19.51"/><line class="cls-1" x1="18.79" y1="19.51" x2="19.81" y2="19.51"/><line class="cls-1" x1="20.23" y1="19.51" x2="21.01" y2="19.51"/><line class="cls-1" x1="18.55" y1="19.21" x2="18.79" y2="19.27"/><line class="cls-1" x1="14.23" y1="19.03" x2="14.23" y2="18.73"/><line class="cls-1" x1="14.35" y1="19.75" x2="14.35" y2="19.51"/><line class="cls-1" x1="14.47" y1="22.15" x2="14.47" y2="21.49"/><line class="cls-1" x1="14.77" y1="19.51" x2="14.77" y2="19.75"/><line class="cls-1" x1="14.83" y1="17.17" x2="14.83" y2="18.25"/><line class="cls-1" x1="14.83" y1="20.23" x2="14.83" y2="26.71"/><line class="cls-1" x1="16.27" y1="19.87" x2="16.81" y2="19.87"/><line class="cls-1" x1="17.77" y1="19.87" x2="18.31" y2="19.87"/><line class="cls-1" x1="20.65" y1="19.93" x2="19.51" y2="19.93"/><line class="cls-1" x1="13.93" y1="19.93" x2="15.07" y2="19.93"/><line class="cls-1" x1="18.25" y1="19.99" x2="17.77" y2="19.99"/><line class="cls-1" x1="16.81" y1="19.99" x2="16.33" y2="19.99"/><line class="cls-1" x1="20.95" y1="20.23" x2="19.51" y2="20.23"/><line class="cls-1" x1="13.63" y1="20.23" x2="15.07" y2="20.23"/><line class="cls-1" x1="20.71" y1="20.71" x2="20.83" y2="20.77"/><line class="cls-1" x1="15.07" y1="19.51" x2="15.07" y2="20.23"/><line class="cls-1" x1="15.37" y1="22.87" x2="15.37" y2="22.15"/><line class="cls-1" x1="15.37" y1="21.49" x2="15.37" y2="20.71"/><line class="cls-1" x1="15.55" y1="20.77" x2="15.55" y2="21.49"/><line class="cls-1" x1="15.55" y1="22.15" x2="15.55" y2="22.81"/><line class="cls-1" x1="15.67" y1="18.13" x2="15.67" y2="18.31"/><line class="cls-1" x1="15.79" y1="18.67" x2="15.79" y2="19.51"/><line class="cls-1" x1="13.75" y1="20.77" x2="13.87" y2="20.71"/><line class="cls-1" x1="15.91" y1="23.35" x2="15.91" y2="24.91"/><line class="cls-1" x1="20.83" y1="21.49" x2="20.11" y2="21.49"/><line class="cls-1" x1="19.75" y1="21.49" x2="19.09" y2="21.49"/><line class="cls-1" x1="15.55" y1="21.49" x2="14.83" y2="21.49"/><line class="cls-1" x1="14.47" y1="21.49" x2="13.75" y2="21.49"/><line class="cls-1" x1="15.37" y1="20.71" x2="15.55" y2="20.77"/><line class="cls-1" x1="16.33" y1="19.99" x2="16.27" y2="19.87"/><line class="cls-1" x1="16.81" y1="19.27" x2="16.81" y2="19.99"/><line class="cls-1" x1="16.87" y1="24.91" x2="16.87" y2="23.83"/><line class="cls-1" x1="17.29" y1="24.01" x2="17.29" y2="23.83"/><line class="cls-1" x1="17.29" y1="21.13" x2="17.29" y2="22.51"/><line class="cls-1" x1="19.09" y1="20.77" x2="19.21" y2="20.71"/><line class="cls-1" x1="13.75" y1="22.15" x2="14.47" y2="22.15"/><line class="cls-1" x1="14.83" y1="22.15" x2="15.55" y2="22.15"/><line class="cls-1" x1="19.09" y1="22.15" x2="19.75" y2="22.15"/><line class="cls-1" x1="20.11" y1="22.15" x2="20.83" y2="22.15"/><line class="cls-1" x1="19.21" y1="22.87" x2="19.09" y2="22.81"/><line class="cls-1" x1="17.77" y1="19.99" x2="17.77" y2="19.27"/><line class="cls-1" x1="18.31" y1="19.87" x2="18.25" y2="19.99"/><line class="cls-1" x1="15.55" y1="22.81" x2="15.37" y2="22.87"/><line class="cls-1" x1="10.99" y1="23.59" x2="11.53" y2="23.59"/><line class="cls-1" x1="12.43" y1="23.59" x2="12.97" y2="23.59"/><line class="cls-1" x1="21.67" y1="23.59" x2="22.15" y2="23.59"/><line class="cls-1" x1="23.05" y1="23.59" x2="23.59" y2="23.59"/><line class="cls-1" x1="18.79" y1="18.67" x2="18.79" y2="19.51"/><line class="cls-1" x1="18.91" y1="18.31" x2="18.91" y2="18.13"/><line class="cls-1" x1="10.99" y1="23.77" x2="11.53" y2="23.77"/><line class="cls-1" x1="12.43" y1="23.77" x2="12.97" y2="23.77"/><line class="cls-1" x1="21.61" y1="23.77" x2="22.15" y2="23.77"/><line class="cls-1" x1="23.05" y1="23.77" x2="23.65" y2="23.77"/><line class="cls-1" x1="16.87" y1="23.83" x2="17.29" y2="23.83"/><line class="cls-1" x1="17.29" y1="24.01" x2="16.87" y2="24.01"/><line class="cls-1" x1="13.87" y1="22.87" x2="13.75" y2="22.81"/><line class="cls-1" x1="19.09" y1="22.81" x2="19.09" y2="22.15"/><line class="cls-1" x1="19.09" y1="21.49" x2="19.09" y2="20.77"/><line class="cls-1" x1="19.21" y1="20.71" x2="19.21" y2="21.49"/><line class="cls-1" x1="19.21" y1="22.15" x2="19.21" y2="22.87"/><line class="cls-1" x1="19.51" y1="19.51" x2="19.51" y2="20.23"/><line class="cls-1" x1="19.75" y1="26.71" x2="19.75" y2="20.23"/><line class="cls-1" x1="19.75" y1="18.25" x2="19.75" y2="17.17"/><line class="cls-1" x1="20.83" y1="22.81" x2="20.71" y2="22.87"/><line class="cls-1" x1="11.53" y1="24.91" x2="12.43" y2="24.91"/><line class="cls-1" x1="15.91" y1="24.91" x2="16.87" y2="24.91"/><line class="cls-1" x1="22.15" y1="24.91" x2="23.05" y2="24.91"/><line class="cls-1" x1="19.81" y1="19.75" x2="19.81" y2="19.51"/><line class="cls-1" x1="20.11" y1="21.49" x2="20.11" y2="22.15"/><line class="cls-1" x1="20.23" y1="19.51" x2="20.23" y2="19.75"/><line class="cls-1" x1="20.35" y1="19.03" x2="20.35" y2="18.73"/><line class="cls-1" x1="8.17" y1="25.87" x2="7.63" y2="25.87"/><line class="cls-1" x1="26.41" y1="25.87" x2="26.95" y2="25.87"/><line class="cls-1" x1="20.71" y1="20.71" x2="20.71" y2="21.49"/><line class="cls-1" x1="20.71" y1="22.15" x2="20.71" y2="22.87"/><line class="cls-1" x1="20.83" y1="20.77" x2="20.83" y2="21.49"/><line class="cls-1" x1="20.83" y1="22.15" x2="20.83" y2="22.81"/><line class="cls-1" x1="20.95" y1="19.51" x2="20.95" y2="20.23"/><line class="cls-1" x1="21.13" y1="18.25" x2="21.13" y2="19.45"/><line class="cls-1" x1="26.17" y1="26.17" x2="19.75" y2="26.17"/><line class="cls-1" x1="14.83" y1="26.17" x2="8.41" y2="26.17"/><line class="cls-1" x1="8.41" y1="26.71" x2="26.17" y2="26.71"/><line class="cls-1" x1="22.15" y1="23.59" x2="22.15" y2="24.91"/><line class="cls-1" x1="21.61" y1="23.77" x2="21.67" y2="23.59"/><line class="cls-1" x1="22.63" y1="21.13" x2="22.63" y2="22.51"/><line class="cls-1" x1="23.59" y1="23.59" x2="23.65" y2="23.77"/><line class="cls-1" x1="23.05" y1="24.91" x2="23.05" y2="23.59"/><line class="cls-1" x1="26.17" y1="17.17" x2="26.17" y2="17.71"/><line class="cls-1" x1="26.17" y1="26.17" x2="26.17" y2="26.71"/><line class="cls-1" x1="26.41" y1="18.01" x2="26.41" y2="25.87"/><line class="cls-1" x1="26.95" y1="18.01" x2="26.95" y2="25.87"/><path class="cls-1" d="M13,23.58a2.07,2.07,0,0,0,.81-.79"/><path class="cls-1" d="M8.44,17.17a.81.81,0,0,0-.81.81"/><path class="cls-1" d="M7.63,25.84a.81.81,0,0,0,.81.81"/><path class="cls-1" d="M20.87,22.79a2.07,2.07,0,0,0,.81.79"/><path class="cls-1" d="M27,18a.81.81,0,0,0-.81-.81"/><path class="cls-1" d="M26.2,26.65a.81.81,0,0,0,.81-.81"/><path class="cls-1" d="M19.11,20.73a2.07,2.07,0,0,0-.81-.79"/><path class="cls-1" d="M16.34,19.94a2.07,2.07,0,0,0-.81.79"/><path class="cls-1" d="M17.32,23.83a2.07,2.07,0,0,0,1.79-1"/><path class="cls-1" d="M15.53,22.79a2.07,2.07,0,0,0,.41.51"/><path class="cls-1" d="M13.77,20.73A2.07,2.07,0,1,0,11,23.58"/><path class="cls-1" d="M23.64,23.58a2.07,2.07,0,1,0-2.78-2.85"/><path class="cls-1" d="M13,23.7a2.19,2.19,0,0,0,.91-.89"/><path class="cls-1" d="M26.47,18a.27.27,0,0,0-.27-.27"/><path class="cls-1" d="M26.2,26.11a.27.27,0,0,0,.27-.27"/><path class="cls-1" d="M20.74,22.82a2.19,2.19,0,0,0,.91.89"/><path class="cls-1" d="M15.4,22.82a2.19,2.19,0,0,0,.55.66"/><path class="cls-1" d="M17.32,24a2.19,2.19,0,0,0,1.92-1.13"/><path class="cls-1" d="M8.17,25.84a.27.27,0,0,0,.27.27"/><path class="cls-1" d="M19.24,20.7a2.19,2.19,0,0,0-.91-.89"/><path class="cls-1" d="M16.31,19.82a2.19,2.19,0,0,0-.91.89"/><path class="cls-1" d="M13.9,20.7a2.19,2.19,0,1,0-2.92,3"/><path class="cls-1" d="M23.67,23.7a2.19,2.19,0,1,0-2.92-3"/><path class="cls-1" d="M8.44,17.71a.27.27,0,0,0-.27.27"/><polyline class="cls-1" points="20.71 19.21 20.59 19.15 20.47 19.09 20.35 19.03"/><polyline class="cls-1" points="21.01 19.51 20.95 19.39 20.83 19.27 20.71 19.21"/><polyline class="cls-1" points="20.95 20.23 20.89 20.11 20.77 20.05 20.65 19.93"/><polyline class="cls-1" points="13.63 20.23 13.69 20.11 13.81 20.05 13.93 19.93"/><polyline class="cls-1" points="13.57 19.51 13.63 19.39 13.75 19.27 13.87 19.21 13.99 19.15 14.11 19.09 14.23 19.03"/><polyline class="cls-1" points="18.49 18.37 18.61 18.37 18.73 18.31 18.79 18.31 18.85 18.31 18.91 18.31"/><polyline class="cls-1" points="20.35 18.73 20.53 18.73 20.71 18.73 20.89 18.73 21.01 18.67 21.07 18.67 21.13 18.67"/><polyline class="cls-1" points="16.09 18.37 15.97 18.37 15.85 18.31 15.79 18.31 15.73 18.31 15.67 18.31"/><polyline class="cls-1" points="18.79 18.67 18.55 18.67 18.31 18.61 18.01 18.61 17.65 18.61 17.29 18.61 16.93 18.61 16.57 18.61 16.27 18.61 16.03 18.67 15.79 18.67"/><polyline class="cls-1" points="20.65 19.93 20.53 19.87 20.35 19.81 20.23 19.75"/><polyline class="cls-1" points="13.93 19.93 14.05 19.87 14.23 19.81 14.35 19.75"/><polyline class="cls-1" points="18.79 19.39 18.49 19.33 18.13 19.33 17.71 19.27 17.29 19.27 16.87 19.27 16.51 19.33 16.15 19.33 15.79 19.39"/><polyline class="cls-1" points="15.79 19.27 16.03 19.21 16.27 19.21 16.63 19.15 16.99 19.15 17.35 19.15 17.65 19.15 18.01 19.15 18.31 19.21 18.55 19.21"/><polyline class="cls-1" points="14.77 19.75 14.89 19.81 15.01 19.81 15.07 19.87"/><polyline class="cls-1" points="19.81 19.75 19.69 19.81 19.63 19.81 19.51 19.87"/><polyline class="cls-1" points="11.95 21.13 11.83 21.13 11.65 21.19 11.53 21.31 11.41 21.43 11.35 21.61 11.29 21.79 11.29 21.97 11.41 22.15 11.47 22.27 11.65 22.39 11.77 22.45 11.95 22.51"/><polyline class="cls-1" points="21.01 19.51 21.07 19.45 21.13 19.45"/><polyline class="cls-1" points="17.29 21.13 17.11 21.13 16.99 21.19 16.81 21.31 16.69 21.43 16.63 21.61 16.63 21.79 16.63 21.97 16.69 22.15 16.81 22.27 16.93 22.39 17.11 22.45 17.29 22.51"/><polyline class="cls-1" points="11.95 22.51 12.13 22.45 12.31 22.39 12.49 22.27 12.55 22.15 12.61 21.97 12.67 21.79 12.61 21.61 12.55 21.49 12.49 21.31 12.31 21.19 12.13 21.13 11.95 21.13"/><polyline class="cls-1" points="22.63 21.13 22.45 21.13 22.27 21.19 22.15 21.31 22.03 21.43 21.97 21.61 21.91 21.79 21.97 21.97 22.03 22.15 22.15 22.27 22.27 22.39 22.45 22.45 22.63 22.51"/><polyline class="cls-1" points="13.45 18.67 13.51 18.67 13.57 18.67 13.69 18.73 13.87 18.73 14.05 18.73 14.23 18.73"/><polyline class="cls-1" points="17.29 22.51 17.47 22.45 17.65 22.39 17.77 22.27 17.89 22.15 17.95 21.97 17.95 21.79 17.95 21.61 17.89 21.49 17.77 21.31 17.65 21.19 17.47 21.13 17.29 21.13"/><polyline class="cls-1" points="22.63 22.51 22.81 22.45 22.99 22.39 23.11 22.27 23.23 22.15 23.29 21.97 23.29 21.79 23.29 21.61 23.23 21.49 23.11 21.31 22.93 21.19 22.81 21.13 22.63 21.13"/><polyline class="cls-1" points="13.45 19.45 13.51 19.45 13.57 19.51"/><line class="cls-1" x1="13.63" y1="20.23" x2="13.63" y2="20.23"/><line class="cls-1" x1="20.95" y1="20.23" x2="20.95" y2="20.23"/><polyline class="cls-1" points="7.99 27.01 7.99 27.01 7.93 27.01 7.87 27.01 7.81 27.01 7.75 27.01 7.69 27.01 7.69 26.95 7.63 26.95 7.57 26.95 7.57 26.89 7.51 26.89 7.51 26.83 7.45 26.83 7.39 26.83 7.39 26.77 7.33 26.71 7.33 26.65 7.27 26.65 7.27 26.59 7.21 26.53 7.21 26.47 7.21 26.41 7.15 26.35 7.15 26.29 7.15 26.23"/><polyline class="cls-1" points="7.15 17.41 7.15 17.35 7.15 17.29 7.15 17.23 7.21 17.23 7.21 17.17 7.21 17.11 7.21 17.05 7.27 17.05 7.27 16.99 7.27 16.93 7.33 16.93 7.33 16.87 7.39 16.87 7.39 16.81 7.45 16.81 7.45 16.75 7.51 16.75 7.51 16.69 7.57 16.69 7.63 16.69 7.63 16.63 7.69 16.63 7.75 16.63 7.75 16.57 7.81 16.57 7.87 16.57 7.93 16.57 7.99 16.57"/><polyline class="cls-1" points="26.59 16.57 26.65 16.57 26.71 16.57 26.77 16.57 26.83 16.57 26.83 16.63 26.89 16.63 26.95 16.63 27.01 16.69 27.07 16.69 27.07 16.75 27.13 16.75 27.13 16.81 27.19 16.81 27.19 16.87 27.25 16.87 27.25 16.93 27.31 16.93 27.31 16.99 27.37 16.99 27.37 17.05 27.37 17.11 27.37 17.17 27.43 17.17 27.43 17.23 27.43 17.29 27.43 17.35 27.43 17.41"/><polyline class="cls-1" points="26.59 27.01 26.65 27.01 26.71 27.01 26.77 27.01 26.83 27.01 26.89 27.01 26.89 26.95 26.95 26.95 27.01 26.95 27.01 26.89 27.07 26.89 27.13 26.83 27.19 26.83 27.19 26.77 27.25 26.77 27.25 26.71 27.31 26.65 27.31 26.59 27.37 26.59 27.37 26.53 27.37 26.47 27.37 26.41 27.43 26.41 27.43 26.35 27.43 26.29 27.43 26.23"/></g></g></svg>