<svg xmlns="http://www.w3.org/2000/svg" viewBox="0 0 34.64 31.1"><defs><style>.cls-1,.cls-2{fill:none;stroke:#000;stroke-linecap:round;stroke-linejoin:round;}.cls-1{stroke-width:0.25px;}.cls-2{stroke-width:0.5px;}</style></defs><title>Risorsa 2ter</title><g id="Livello_2" data-name="Livello 2"><g id="Livello_1-2" data-name="Livello 1"><path class="cls-1" d="M.25,27.19"/><path class="cls-1" d="M34.33,27.19"/><path class="cls-2" d="M31,.31"/><path class="cls-1" d="M33.25,28.15"/><polyline class="cls-1" points="0.43 27.49 0.91 27.97 0.37 27.49"/><line class="cls-1" x1="1.03" y1="27.91" x2="0.49" y2="27.43"/><line class="cls-1" x1="1.09" y1="27.79" x2="0.61" y2="27.31"/><line class="cls-1" x1="0.79" y1="30.97" x2="33.79" y2="30.97"/><line class="cls-1" x1="0.25" y1="27.13" x2="0.25" y2="22.75"/><line class="cls-2" x1="0.25" y1="21.85" x2="0.25" y2="6.67"/><polyline class="cls-2" points="0.25 5.71 0.25 4.09 0.25 27.13"/><line class="cls-2" x1="0.37" y1="27.01" x2="0.37" y2="4.21"/><line class="cls-2" x1="0.49" y1="27.01" x2="0.49" y2="4.21"/><line class="cls-1" x1="1.39" y1="27.91" x2="1.39" y2="28.09"/><line class="cls-1" x1="1.45" y1="28.51" x2="1.45" y2="28.27"/><line class="cls-1" x1="21.07" y1="28.51" x2="13.51" y2="28.51"/><line class="cls-1" x1="11.95" y1="28.51" x2="9.19" y2="28.51"/><line class="cls-1" x1="7.69" y1="28.51" x2="1.45" y2="28.51"/><line class="cls-1" x1="22.57" y1="28.51" x2="25.33" y2="28.51"/><line class="cls-1" x1="26.89" y1="28.51" x2="33.13" y2="28.51"/><line class="cls-1" x1="1.45" y1="28.27" x2="33.13" y2="28.27"/><line class="cls-1" x1="1.27" y1="28.15" x2="33.25" y2="28.15"/><line class="cls-1" x1="33.13" y1="28.09" x2="1.39" y2="28.09"/><line class="cls-1" x1="1.39" y1="27.91" x2="33.13" y2="27.91"/><line class="cls-1" x1="0.49" y1="27.01" x2="0.37" y2="27.01"/><line class="cls-1" x1="34.03" y1="27.01" x2="34.21" y2="27.01"/><line class="cls-1" x1="2.41" y1="14.47" x2="2.41" y2="14.05"/><line class="cls-1" x1="2.89" y1="14.95" x2="2.89" y2="14.71"/><line class="cls-1" x1="2.89" y1="13.75" x2="2.89" y2="13.51"/><line class="cls-1" x1="3.31" y1="13.51" x2="3.31" y2="13.75"/><line class="cls-1" x1="3.31" y1="14.71" x2="3.31" y2="14.95"/><line class="cls-2" x1="3.61" y1="0.61" x2="3.61" y2="0.43"/><line class="cls-1" x1="3.79" y1="14.05" x2="3.79" y2="14.47"/><line class="cls-1" x1="4.15" y1="28.15" x2="4.15" y2="28.27"/><line class="cls-1" x1="0.91" y1="28.75" x2="0.79" y2="30.97"/><line class="cls-1" x1="1.15" y1="28.75" x2="1.03" y2="30.97"/><line class="cls-1" x1="2.77" y1="28.15" x2="2.77" y2="28.27"/><line class="cls-2" x1="3.07" y1="0.55" x2="0.37" y2="3.73"/><line class="cls-2" x1="0.49" y1="3.85" x2="3.19" y2="0.61"/><line class="cls-2" x1="0.61" y1="3.97" x2="3.31" y2="0.73"/><line class="cls-2" x1="0.37" y1="3.73" x2="3.07" y2="0.55"/><polyline class="cls-1" points="7.57 30.97 7.69 28.51 7.69 28.27"/><line class="cls-2" x1="0.25" y1="4.09" x2="0.37" y2="4.21"/><line class="cls-2" x1="0.37" y1="3.73" x2="0.49" y2="3.85"/><line class="cls-1" x1="9.19" y1="28.51" x2="9.13" y2="30.97"/><line class="cls-2" x1="0.61" y1="3.97" x2="0.49" y2="3.85"/><line class="cls-1" x1="11.95" y1="28.51" x2="11.89" y2="30.97"/><line class="cls-2" x1="3.19" y1="0.61" x2="3.07" y2="0.55"/><polyline class="cls-1" points="13.39 30.97 13.51 28.51 13.51 28.27"/><line class="cls-1" x1="31.63" y1="14.95" x2="31.27" y2="14.95"/><line class="cls-1" x1="3.31" y1="14.95" x2="2.89" y2="14.95"/><line class="cls-1" x1="32.17" y1="14.47" x2="31.93" y2="14.47"/><line class="cls-1" x1="30.97" y1="14.47" x2="30.73" y2="14.47"/><line class="cls-1" x1="3.79" y1="14.47" x2="3.55" y2="14.47"/><line class="cls-1" x1="2.59" y1="14.47" x2="2.41" y2="14.47"/><line class="cls-1" x1="2.41" y1="14.05" x2="2.59" y2="14.05"/><line class="cls-1" x1="3.55" y1="14.05" x2="3.79" y2="14.05"/><line class="cls-1" x1="30.73" y1="14.05" x2="30.97" y2="14.05"/><line class="cls-1" x1="31.93" y1="14.05" x2="32.17" y2="14.05"/><line class="cls-1" x1="2.89" y1="13.51" x2="3.31" y2="13.51"/><line class="cls-1" x1="31.27" y1="13.51" x2="31.63" y2="13.51"/><line class="cls-2" x1="3.31" y1="0.73" x2="3.19" y2="0.61"/><line class="cls-2" x1="3.61" y1="0.43" x2="3.49" y2="0.31"/><line class="cls-1" x1="33.25" y1="28.15" x2="33.13" y2="28.09"/><line class="cls-1" x1="33.61" y1="27.97" x2="33.43" y2="27.79"/><line class="cls-1" x1="33.91" y1="27.31" x2="34.15" y2="27.49"/><line class="cls-1" x1="34.21" y1="27.01" x2="34.27" y2="27.13"/><line class="cls-1" x1="21.07" y1="28.51" x2="21.13" y2="30.97"/><line class="cls-1" x1="22.57" y1="28.51" x2="22.69" y2="30.97"/><line class="cls-1" x1="21.07" y1="28.51" x2="21.07" y2="28.27"/><line class="cls-1" x1="0.37" y1="27.01" x2="0.25" y2="27.13"/><line class="cls-1" x1="0.61" y1="27.31" x2="0.43" y2="27.49"/><line class="cls-1" x1="0.91" y1="27.97" x2="1.09" y2="27.79"/><line class="cls-1" x1="1.27" y1="28.15" x2="1.39" y2="28.09"/><line class="cls-2" x1="30.97" y1="0.43" x2="31.03" y2="0.31"/><polyline class="cls-2" points="31.21 0.73 31.39 0.61 31.45 0.55"/><line class="cls-2" x1="0.49" y1="4.21" x2="0.37" y2="4.21"/><line class="cls-2" x1="34.03" y1="4.21" x2="34.21" y2="4.21"/><line class="cls-1" x1="25.33" y1="28.51" x2="25.45" y2="30.97"/><polyline class="cls-1" points="26.89 28.27 26.89 28.51 26.95 30.97"/><polyline class="cls-2" points="34.15 3.73 34.09 3.85 33.97 3.97"/><line class="cls-2" x1="30.97" y1="0.61" x2="3.61" y2="0.61"/><line class="cls-2" x1="3.61" y1="0.43" x2="30.97" y2="0.43"/><line class="cls-2" x1="3.49" y1="0.31" x2="31.09" y2="0.31"/><line class="cls-1" x1="31.81" y1="28.15" x2="31.81" y2="28.27"/><line class="cls-1" x1="30.43" y1="28.15" x2="30.43" y2="28.27"/><line class="cls-1" x1="30.73" y1="14.47" x2="30.73" y2="14.05"/><line class="cls-2" x1="30.97" y1="0.61" x2="30.97" y2="0.43"/><line class="cls-2" x1="34.27" y1="4.09" x2="34.21" y2="4.21"/><line class="cls-1" x1="33.37" y1="28.75" x2="33.49" y2="30.97"/><line class="cls-1" x1="33.67" y1="28.75" x2="33.79" y2="30.97"/><line class="cls-1" x1="31.27" y1="14.95" x2="31.27" y2="14.71"/><line class="cls-1" x1="31.27" y1="13.75" x2="31.27" y2="13.51"/><line class="cls-1" x1="31.63" y1="13.51" x2="31.63" y2="13.75"/><line class="cls-1" x1="31.63" y1="14.71" x2="31.63" y2="14.95"/><line class="cls-1" x1="32.17" y1="14.05" x2="32.17" y2="14.47"/><line class="cls-1" x1="33.13" y1="28.51" x2="33.13" y2="28.27"/><line class="cls-1" x1="33.13" y1="27.91" x2="33.13" y2="28.09"/><line class="cls-2" x1="34.21" y1="3.73" x2="31.51" y2="0.55"/><line class="cls-2" x1="33.97" y1="3.97" x2="31.21" y2="0.73"/><line class="cls-2" x1="34.09" y1="3.85" x2="31.39" y2="0.61"/><line class="cls-2" x1="31.45" y1="0.55" x2="34.15" y2="3.73"/><line class="cls-2" x1="34.03" y1="27.01" x2="34.03" y2="4.21"/><line class="cls-2" x1="34.21" y1="27.01" x2="34.21" y2="4.21"/><line class="cls-2" x1="34.27" y1="27.13" x2="34.27" y2="4.09"/><line class="cls-1" x1="34.33" y1="27.13" x2="34.33" y2="22.75"/><line class="cls-2" x1="34.33" y1="21.85" x2="34.33" y2="6.67"/><line class="cls-2" x1="34.33" y1="5.71" x2="34.33" y2="4.09"/><line class="cls-1" x1="33.43" y1="27.79" x2="33.91" y2="27.31"/><line class="cls-1" x1="33.55" y1="27.91" x2="34.03" y2="27.43"/><polyline class="cls-1" points="33.67 27.97 34.15 27.49 33.61 27.97"/><path class="cls-1" d="M32,14.41a.27.27,0,0,0-.27.27"/><path class="cls-1" d="M31.69,13.72A.27.27,0,0,0,32,14"/><path class="cls-1" d="M33.13,14.2a1.65,1.65,0,1,0-1.65,1.65,1.65,1.65,0,0,0,1.65-1.65"/><path class="cls-1" d="M31,14a.27.27,0,0,0,.27-.27"/><path class="cls-1" d="M31.27,14.68a.27.27,0,0,0-.27-.27"/><path class="cls-1" d="M32.65,14.2a1.17,1.17,0,1,0-1.17,1.17,1.17,1.17,0,0,0,1.17-1.17"/><path class="cls-1" d="M3.58,14.41a.27.27,0,0,0-.27.27"/><path class="cls-1" d="M3.31,13.72a.27.27,0,0,0,.27.27"/><path class="cls-1" d="M4.75,14.2A1.65,1.65,0,1,0,3.1,15.85,1.65,1.65,0,0,0,4.75,14.2"/><path class="cls-1" d="M2.62,14a.27.27,0,0,0,.27-.27"/><path class="cls-1" d="M2.89,14.68a.27.27,0,0,0-.27-.27"/><path class="cls-1" d="M4.27,14.2A1.17,1.17,0,1,0,3.1,15.37,1.17,1.17,0,0,0,4.27,14.2"/><path class="cls-1" d="M33.73,28.75a.57.57,0,0,0-.57-.54"/><path class="cls-1" d="M1.48,28.21a.57.57,0,0,0-.57.54"/><path class="cls-2" d="M3.52.25a.57.57,0,0,0-.44.2"/><path class="cls-2" d="M.38,3.69a.57.57,0,0,0-.13.37"/><path class="cls-2" d="M.25,5.68a.15.15,0,0,0,0,.09"/><path class="cls-2" d="M.28,6.55a.15.15,0,0,0,0,.09"/><path class="cls-1" d="M.25,21.82a.15.15,0,0,0,0,.09"/><path class="cls-1" d="M.28,22.63a.15.15,0,0,0,0,.09"/><path class="cls-1" d="M.25,27.1a.57.57,0,0,0,.17.4"/><path class="cls-1" d="M.9,28a.57.57,0,0,0,.4.17"/><path class="cls-1" d="M33.28,28.15a.57.57,0,0,0,.4-.17"/><path class="cls-1" d="M34.22,27.5a.57.57,0,0,0,.17-.4"/><path class="cls-1" d="M34.33,22.72a.15.15,0,0,0,0-.09"/><path class="cls-2" d="M31.56.45a.57.57,0,0,0-.44-.2"/><path class="cls-2" d="M34.39,4.06a.57.57,0,0,0-.13-.37"/><path class="cls-2" d="M34.3,5.77a.15.15,0,0,0,0-.09"/><path class="cls-2" d="M34.33,6.64a.15.15,0,0,0,0-.09"/><path class="cls-1" d="M34.3,21.91a.15.15,0,0,0,0-.09"/><path class="cls-1" d="M5.29,14.2A2.19,2.19,0,1,0,3.1,16.39,2.19,2.19,0,0,0,5.29,14.2"/><path class="cls-1" d="M33.67,14.2a2.19,2.19,0,1,0-2.19,2.19,2.19,2.19,0,0,0,2.19-2.19"/><polyline class="cls-1" points="25.09 28.27 25.15 28.27 25.21 28.27 25.21 28.33 25.27 28.33 25.27 28.39 25.33 28.39 25.33 28.45 25.33 28.51 25.39 28.51 25.45 28.51 25.51 28.51 25.57 28.51 25.63 28.51 25.69 28.51 25.75 28.51 25.81 28.51 25.87 28.51 25.93 28.51 25.99 28.51 26.05 28.51 26.11 28.51 26.17 28.51 26.23 28.51 26.29 28.51 26.35 28.51 26.41 28.51 26.47 28.51 26.53 28.51 26.59 28.51 26.65 28.51 26.71 28.51 26.77 28.51 26.83 28.51 26.89 28.51"/><polyline class="cls-1" points="33.67 28.75 33.61 28.75 33.55 28.75 33.49 28.75 33.43 28.75 33.37 28.75 33.37 28.69 33.37 28.63 33.31 28.63 33.31 28.57 33.25 28.57 33.25 28.51 33.19 28.51 33.13 28.51"/><polyline class="cls-1" points="0.91 28.75 0.97 28.75 1.03 28.75 1.09 28.75 1.15 28.75"/><polyline class="cls-1" points="1.15 28.75 1.15 28.69 1.21 28.69 1.21 28.63 1.21 28.57 1.27 28.57 1.33 28.57 1.33 28.51 1.39 28.51 1.45 28.51"/><polyline class="cls-1" points="7.69 28.51 7.75 28.51 7.81 28.51 7.87 28.51 7.93 28.51 7.99 28.51 8.05 28.51 8.11 28.51 8.17 28.51 8.23 28.51 8.29 28.51 8.35 28.51 8.41 28.51 8.47 28.51 8.53 28.51 8.59 28.51 8.65 28.51 8.71 28.51 8.77 28.51 8.83 28.51 8.89 28.51 8.95 28.51 9.01 28.51 9.07 28.51 9.13 28.51 9.19 28.51 9.19 28.45 9.25 28.39 9.25 28.33 9.31 28.33 9.31 28.27 9.37 28.27 9.43 28.27"/><polyline class="cls-1" points="12.19 28.27 12.13 28.27 12.07 28.27 12.07 28.33 12.01 28.33 12.01 28.39 12.01 28.45 11.95 28.45 11.95 28.51 12.01 28.51 12.07 28.51 12.13 28.51 12.19 28.51 12.25 28.51 12.31 28.51 12.37 28.51 12.43 28.51 12.49 28.51 12.55 28.51 12.61 28.51 12.67 28.51 12.73 28.51 12.79 28.51 12.85 28.51 12.91 28.51 12.97 28.51 13.03 28.51 13.09 28.51 13.15 28.51 13.21 28.51 13.27 28.51 13.33 28.51 13.39 28.51 13.45 28.51 13.51 28.51"/><polyline class="cls-1" points="3.01 28.27 3.01 28.21 3.01 28.15"/><polyline class="cls-1" points="31.51 28.27 31.51 28.21 31.51 28.15"/><polyline class="cls-1" points="22.33 28.27 22.39 28.27 22.45 28.27 22.45 28.33 22.51 28.33 22.51 28.39 22.57 28.39 22.57 28.45 22.57 28.51 22.51 28.51 22.45 28.51 22.39 28.51 22.33 28.51 22.27 28.51 22.21 28.51 22.15 28.51 22.09 28.51 22.03 28.51 21.97 28.51 21.91 28.51 21.85 28.51 21.79 28.51 21.73 28.51 21.67 28.51 21.61 28.51 21.55 28.51 21.49 28.51 21.43 28.51 21.37 28.51 21.31 28.51 21.25 28.51 21.19 28.51 21.13 28.51 21.07 28.51"/><polyline class="cls-1" points="1.27 28.15 1.27 28.15 1.21 28.15 1.15 28.15 1.09 28.15 1.09 28.09 1.03 28.09 0.97 28.09 0.97 28.03 0.91 28.03 0.91 27.97"/><polyline class="cls-1" points="0.43 27.49 0.43 27.49 0.37 27.49 0.37 27.43 0.31 27.37 0.31 27.31 0.31 27.25 0.25 27.25 0.25 27.19 0.25 27.13"/><polyline class="cls-2" points="0.25 4.09 0.25 4.03 0.25 3.97 0.31 3.91 0.31 3.85 0.37 3.79 0.37 3.73"/><polyline class="cls-2" points="3.07 0.55 3.07 0.49 3.13 0.49 3.13 0.43 3.19 0.43 3.25 0.43 3.25 0.37 3.31 0.37 3.37 0.37 3.43 0.37 3.43 0.31 3.49 0.31"/><polyline class="cls-2" points="31.45 0.55 31.45 0.49 31.39 0.49 31.39 0.43 31.33 0.43 31.27 0.37 31.21 0.37 31.15 0.37 31.09 0.31 31.03 0.31"/><polyline class="cls-2" points="34.27 4.09 34.27 4.03 34.27 3.97 34.27 3.91 34.21 3.85 34.21 3.79 34.15 3.79 34.15 3.73"/><polyline class="cls-1" points="34.15 27.49 34.15 27.49 34.15 27.43 34.21 27.43 34.21 27.37 34.21 27.31 34.27 27.31 34.27 27.25 34.27 27.19 34.27 27.13"/><polyline class="cls-1" points="33.25 28.15 33.25 28.15 33.31 28.15 33.37 28.15 33.43 28.15 33.43 28.09 33.49 28.09 33.55 28.09 33.55 28.03 33.61 28.03 33.61 27.97"/><polyline class="cls-1" points="34.03 27.43 34.03 27.37 34.09 27.37 34.09 27.31 34.15 27.31 34.15 27.25 34.15 27.19 34.21 27.19 34.21 27.13 34.21 27.07 34.21 27.01"/><polyline class="cls-1" points="33.55 27.91 33.49 27.91 33.49 27.97 33.43 27.97 33.43 28.03 33.37 28.03 33.31 28.03 33.25 28.03 33.19 28.03 33.19 28.09 33.13 28.09"/><polyline class="cls-2" points="34.09 3.85 34.09 3.91 34.15 3.91 34.15 3.97 34.15 4.03 34.21 4.03 34.21 4.09 34.21 4.15 34.21 4.21"/><polyline class="cls-2" points="30.97 0.43 31.03 0.43 31.09 0.43 31.15 0.43 31.15 0.49 31.21 0.49 31.27 0.49 31.27 0.55 31.33 0.55 31.33 0.61 31.39 0.61"/><polyline class="cls-2" points="3.61 0.61 3.55 0.61 3.49 0.61 3.43 0.61 3.43 0.67 3.37 0.67 3.31 0.67 3.31 0.73"/><polyline class="cls-2" points="0.61 3.97 0.55 3.97 0.55 4.03 0.55 4.09 0.49 4.09 0.49 4.15 0.49 4.21"/><polyline class="cls-1" points="0.49 27.01 0.49 27.07 0.49 27.13 0.55 27.13 0.55 27.19 0.55 27.25 0.61 27.25 0.61 27.31"/><polyline class="cls-1" points="1.09 27.79 1.15 27.79 1.15 27.85 1.21 27.85 1.27 27.85 1.27 27.91 1.33 27.91 1.39 27.91"/><polyline class="cls-1" points="33.43 27.79 33.37 27.79 33.37 27.85 33.31 27.85 33.25 27.85 33.25 27.91 33.19 27.91 33.13 27.91"/><polyline class="cls-1" points="34.03 27.01 34.03 27.07 34.03 27.13 34.03 27.19 33.97 27.19 33.97 27.25 33.91 27.25 33.91 27.31"/><polyline class="cls-2" points="33.97 3.97 33.97 4.03 34.03 4.03 34.03 4.09 34.03 4.15 34.03 4.21"/><polyline class="cls-2" points="30.97 0.61 31.03 0.61 31.09 0.61 31.15 0.61 31.15 0.67 31.21 0.67 31.21 0.73"/><polyline class="cls-2" points="3.61 0.43 3.55 0.43 3.49 0.43 3.43 0.43 3.43 0.49 3.37 0.49 3.31 0.49 3.31 0.55 3.25 0.55 3.19 0.61"/><polyline class="cls-2" points="0.49 3.85 0.43 3.85 0.43 3.91 0.43 3.97 0.37 3.97 0.37 4.03 0.37 4.09 0.37 4.15 0.37 4.21"/><polyline class="cls-1" points="1.03 27.91 1.03 27.97 1.09 27.97 1.15 27.97 1.15 28.03 1.21 28.03 1.27 28.03 1.33 28.03 1.39 28.03 1.39 28.09"/><polyline class="cls-1" points="0.49 27.43 0.49 27.37 0.43 27.37 0.43 27.31 0.43 27.25 0.37 27.25 0.37 27.19 0.37 27.13 0.37 27.07 0.37 27.01"/><path class="cls-2" d="M3.43.31"/><path class="cls-1" d="M.73,31"/><line class="cls-1" x1="26.95" y1="25.81" x2="26.95" y2="17.89"/><line class="cls-1" x1="26.41" y1="17.65" x2="26.41" y2="26.05"/><line class="cls-1" x1="24.79" y1="25.63" x2="24.79" y2="18.07"/><line class="cls-1" x1="22.99" y1="24.67" x2="22.99" y2="23.41"/><line class="cls-1" x1="22.21" y1="24.67" x2="22.21" y2="23.41"/><line class="cls-1" x1="26.11" y1="17.05" x2="8.41" y2="17.05"/><line class="cls-1" x1="21.31" y1="22.51" x2="21.31" y2="20.83"/><line class="cls-1" x1="8.11" y1="17.65" x2="26.41" y2="17.65"/><line class="cls-1" x1="20.95" y1="19.63" x2="20.95" y2="19.51"/><line class="cls-1" x1="21.07" y1="18.07" x2="21.07" y2="19.45"/><line class="cls-1" x1="20.95" y1="20.23" x2="20.95" y2="19.63"/><line class="cls-1" x1="20.83" y1="20.71" x2="20.83" y2="22.63"/><line class="cls-1" x1="24.79" y1="18.07" x2="9.79" y2="18.07"/><line class="cls-1" x1="16.09" y1="18.25" x2="18.49" y2="18.25"/><line class="cls-1" x1="20.35" y1="18.67" x2="18.97" y2="18.67"/><line class="cls-1" x1="15.61" y1="18.67" x2="14.23" y2="18.67"/><line class="cls-1" x1="20.35" y1="18.67" x2="20.35" y2="19.45"/><line class="cls-1" x1="20.23" y1="19.51" x2="20.23" y2="19.87"/><line class="cls-1" x1="20.17" y1="21.97" x2="20.17" y2="21.43"/><line class="cls-1" x1="19.81" y1="19.87" x2="19.81" y2="19.51"/><line class="cls-1" x1="19.69" y1="21.97" x2="19.69" y2="21.43"/><line class="cls-1" x1="21.49" y1="20.59" x2="21.31" y2="20.83"/><line class="cls-1" x1="20.35" y1="19.45" x2="18.97" y2="19.45"/><line class="cls-1" x1="15.61" y1="19.45" x2="14.23" y2="19.45"/><line class="cls-1" x1="13.81" y1="19.51" x2="14.35" y2="19.51"/><line class="cls-1" x1="14.77" y1="19.51" x2="15.61" y2="19.51"/><line class="cls-1" x1="18.91" y1="19.51" x2="19.81" y2="19.51"/><line class="cls-1" x1="20.23" y1="19.51" x2="20.77" y2="19.51"/><line class="cls-1" x1="19.51" y1="20.23" x2="19.51" y2="19.51"/><line class="cls-1" x1="19.45" y1="19.51" x2="19.45" y2="21.43"/><line class="cls-1" x1="19.45" y1="21.97" x2="19.45" y2="25.63"/><line class="cls-1" x1="19.03" y1="22.63" x2="19.03" y2="20.71"/><line class="cls-1" x1="18.97" y1="19.45" x2="18.97" y2="18.67"/><line class="cls-1" x1="18.91" y1="18.19" x2="18.91" y2="18.07"/><line class="cls-1" x1="18.25" y1="19.93" x2="16.33" y2="19.93"/><line class="cls-1" x1="19.51" y1="20.23" x2="20.89" y2="20.23"/><line class="cls-1" x1="15.07" y1="20.23" x2="13.63" y2="20.23"/><line class="cls-1" x1="18.61" y1="22.51" x2="18.61" y2="20.83"/><line class="cls-1" x1="18.61" y1="24.67" x2="18.61" y2="23.17"/><line class="cls-1" x1="18.13" y1="20.35" x2="16.45" y2="20.35"/><line class="cls-1" x1="17.77" y1="23.59" x2="17.77" y2="24.67"/><line class="cls-1" x1="17.71" y1="19.93" x2="17.71" y2="19.33"/><line class="cls-1" x1="13.69" y1="21.43" x2="14.41" y2="21.43"/><line class="cls-1" x1="20.17" y1="21.43" x2="20.83" y2="21.43"/><line class="cls-1" x1="19.69" y1="21.43" x2="19.03" y2="21.43"/><line class="cls-1" x1="15.55" y1="21.43" x2="14.83" y2="21.43"/><line class="cls-1" x1="18.61" y1="23.17" x2="18.31" y2="22.87"/><line class="cls-1" x1="17.77" y1="23.59" x2="17.65" y2="23.17"/><line class="cls-1" x1="16.87" y1="19.33" x2="16.87" y2="19.93"/><line class="cls-1" x1="14.83" y1="21.97" x2="15.55" y2="21.97"/><line class="cls-1" x1="19.03" y1="21.97" x2="19.69" y2="21.97"/><line class="cls-1" x1="20.83" y1="21.97" x2="20.17" y2="21.97"/><line class="cls-1" x1="14.41" y1="21.97" x2="13.69" y2="21.97"/><line class="cls-1" x1="15.97" y1="20.83" x2="15.97" y2="22.51"/><line class="cls-1" x1="15.61" y1="18.07" x2="15.61" y2="18.19"/><line class="cls-1" x1="15.61" y1="18.67" x2="15.61" y2="19.45"/><line class="cls-1" x1="23.41" y1="22.99" x2="21.73" y2="22.99"/><line class="cls-1" x1="12.79" y1="22.99" x2="11.11" y2="22.99"/><line class="cls-1" x1="10.99" y1="23.41" x2="12.91" y2="23.41"/><line class="cls-1" x1="21.61" y1="23.41" x2="23.53" y2="23.41"/><line class="cls-1" x1="15.55" y1="20.71" x2="15.55" y2="22.63"/><line class="cls-1" x1="15.07" y1="19.51" x2="15.07" y2="21.43"/><line class="cls-1" x1="15.07" y1="21.97" x2="15.07" y2="25.63"/><line class="cls-1" x1="15.07" y1="19.51" x2="15.07" y2="20.23"/><line class="cls-1" x1="14.83" y1="21.43" x2="14.83" y2="21.97"/><line class="cls-1" x1="14.77" y1="19.51" x2="14.77" y2="19.87"/><line class="cls-1" x1="14.41" y1="21.43" x2="14.41" y2="21.97"/><line class="cls-1" x1="14.35" y1="19.87" x2="14.35" y2="19.51"/><line class="cls-1" x1="14.23" y1="19.45" x2="14.23" y2="18.67"/><line class="cls-1" x1="17.77" y1="24.67" x2="18.61" y2="24.67"/><line class="cls-1" x1="22.99" y1="24.67" x2="22.21" y2="24.67"/><line class="cls-1" x1="12.37" y1="24.67" x2="11.53" y2="24.67"/><line class="cls-1" x1="13.69" y1="22.63" x2="13.69" y2="20.71"/><line class="cls-1" x1="13.63" y1="19.63" x2="13.63" y2="20.23"/><line class="cls-1" x1="13.45" y1="19.45" x2="13.45" y2="18.07"/><line class="cls-1" x1="13.27" y1="20.83" x2="13.27" y2="22.51"/><line class="cls-1" x1="13.63" y1="19.51" x2="13.63" y2="19.63"/><line class="cls-1" x1="9.79" y1="25.63" x2="24.79" y2="25.63"/><line class="cls-1" x1="26.41" y1="26.05" x2="8.11" y2="26.05"/><line class="cls-1" x1="8.41" y1="26.65" x2="26.11" y2="26.65"/><line class="cls-1" x1="10.87" y1="22.75" x2="11.11" y2="22.99"/><line class="cls-1" x1="12.37" y1="23.41" x2="12.37" y2="24.67"/><line class="cls-1" x1="11.53" y1="24.67" x2="11.53" y2="23.41"/><line class="cls-1" x1="9.79" y1="18.07" x2="9.79" y2="25.63"/><line class="cls-1" x1="8.11" y1="26.05" x2="8.11" y2="17.65"/><line class="cls-1" x1="7.57" y1="25.81" x2="7.57" y2="17.89"/><path class="cls-1" d="M20.84,22.61a2,2,0,0,0,.8.8"/><path class="cls-1" d="M12.95,23.4a2,2,0,0,0,.8-.8"/><path class="cls-1" d="M15.56,22.61a2,2,0,0,0,3.53,0"/><path class="cls-1" d="M16.35,19.88a2,2,0,0,0-.8.8"/><path class="cls-1" d="M19.08,20.67a2,2,0,0,0-.8-.8"/><path class="cls-1" d="M7.63,25.78a.81.81,0,0,0,.81.81"/><path class="cls-1" d="M26.14,26.59a.81.81,0,0,0,.81-.81"/><path class="cls-1" d="M8.44,17.05a.81.81,0,0,0-.81.81"/><path class="cls-1" d="M26.95,17.86a.81.81,0,0,0-.81-.81"/><path class="cls-1" d="M23.57,23.4a2,2,0,1,0-2.73-2.73"/><path class="cls-1" d="M13.74,20.67A2,2,0,1,0,11,23.4"/><path class="cls-1" d="M21.31,22.47a1.53,1.53,0,0,0,.46.46"/><path class="cls-1" d="M23.43,22.93a1.53,1.53,0,1,0-1.9-2.38"/><path class="cls-1" d="M13.27,20.81a1.53,1.53,0,1,0-2.38,1.9"/><path class="cls-1" d="M12.81,22.93a1.53,1.53,0,0,0,.46-.46"/><path class="cls-1" d="M16.49,20.35a1.53,1.53,0,0,0-.46.46"/><path class="cls-1" d="M16,22.47a1.53,1.53,0,0,0,1.67.66"/><path class="cls-1" d="M17.71,23.18a1.59,1.59,0,0,0,.65-.34"/><path class="cls-1" d="M18.33,22.79a1.53,1.53,0,0,0,.28-.33"/><path class="cls-1" d="M18.61,20.82a1.53,1.53,0,0,0-.46-.46"/><polyline class="cls-1" points="26.35 26.35 26.35 26.29 26.41 26.17 26.41 26.05"/><polyline class="cls-1" points="26.11 17.05 26.17 17.11 26.23 17.17 26.29 17.23 26.35 17.35 26.35 17.41 26.41 17.53 26.41 17.65 26.47 17.65 26.53 17.65 26.59 17.65 26.65 17.65 26.71 17.71 26.77 17.77 26.83 17.77 26.89 17.83 26.95 17.89"/><polyline class="cls-1" points="26.11 26.65 26.17 26.59 26.23 26.47 26.35 26.35"/><polyline class="cls-1" points="26.71 25.99 26.77 25.93 26.83 25.93 26.89 25.87 26.95 25.81"/><polyline class="cls-1" points="23.41 22.99 23.47 23.17 23.53 23.29 23.53 23.41"/><polyline class="cls-1" points="8.11 17.65 8.05 17.65 7.93 17.65 7.87 17.71 7.75 17.77 7.69 17.83 7.63 17.83 7.57 17.89"/><polyline class="cls-1" points="21.73 22.99 21.73 23.11 21.67 23.29 21.61 23.41"/><polyline class="cls-1" points="20.89 20.23 20.83 20.17 20.71 20.05 20.59 19.99 20.41 19.93 20.23 19.87"/><polyline class="cls-1" points="20.89 20.23 20.89 20.23 20.95 20.23"/><polyline class="cls-1" points="13.81 19.51 13.93 19.51 14.05 19.45 14.23 19.45"/><polyline class="cls-1" points="20.35 18.67 20.53 18.67 20.71 18.67 20.89 18.61 21.01 18.61 21.07 18.61 21.07 18.55"/><polyline class="cls-1" points="16.09 18.25 15.97 18.25 15.85 18.25 15.79 18.25 15.67 18.25 15.67 18.19 15.61 18.19"/><polyline class="cls-1" points="20.35 19.45 20.47 19.45 20.59 19.51 20.77 19.51"/><polyline class="cls-1" points="19.81 19.87 19.69 19.93 19.57 19.93 19.51 19.93"/><polyline class="cls-1" points="20.77 19.51 20.89 19.51 21.01 19.45 21.07 19.45"/><polyline class="cls-1" points="22.57 20.95 22.81 20.95 22.99 21.07 23.11 21.19 23.23 21.31 23.29 21.49 23.35 21.67 23.29 21.85 23.23 22.03 23.11 22.21 22.99 22.33 22.81 22.39 22.57 22.45"/><polyline class="cls-1" points="14.77 19.87 14.89 19.93 14.95 19.93 15.07 19.93"/><polyline class="cls-1" points="21.31 20.83 21.13 20.83 21.01 20.77 20.83 20.71"/><polyline class="cls-1" points="15.55 20.71 15.67 20.77 15.79 20.83 15.97 20.83"/><polyline class="cls-1" points="18.25 19.93 18.19 20.11 18.13 20.23 18.13 20.35"/><polyline class="cls-1" points="18.97 19.45 18.97 19.45 18.91 19.51"/><polyline class="cls-1" points="15.97 22.51 15.79 22.57 15.67 22.63 15.55 22.63"/><polyline class="cls-1" points="11.95 20.95 12.13 20.95 12.31 21.07 12.49 21.19 12.61 21.31 12.67 21.49 12.67 21.67 12.67 21.85 12.61 22.03 12.49 22.21 12.31 22.33 12.13 22.39 11.95 22.45"/><polyline class="cls-1" points="22.57 22.45 22.39 22.39 22.21 22.33 22.09 22.21 21.97 22.03 21.91 21.85 21.85 21.67 21.85 21.49 21.97 21.31 22.09 21.19 22.21 21.07 22.39 20.95 22.57 20.95"/><polyline class="cls-1" points="18.61 20.83 18.73 20.83 18.85 20.77 19.03 20.71"/><polyline class="cls-1" points="19.03 22.63 18.85 22.63 18.73 22.57 18.61 22.51"/><polyline class="cls-1" points="13.45 18.55 13.51 18.61 13.57 18.61 13.69 18.61 13.81 18.67 13.99 18.67 14.23 18.67"/><polyline class="cls-1" points="15.61 19.51 15.61 19.51 15.61 19.45"/><polyline class="cls-1" points="16.33 19.93 16.33 20.11 16.39 20.23 16.45 20.35"/><polyline class="cls-1" points="18.49 18.25 18.61 18.25 18.67 18.25 18.79 18.25 18.85 18.25 18.91 18.19"/><polyline class="cls-1" points="20.83 22.63 21.01 22.63 21.13 22.57 21.31 22.51"/><polyline class="cls-1" points="11.95 22.45 11.77 22.39 11.59 22.33 11.41 22.21 11.29 22.03 11.23 21.85 11.23 21.67 11.23 21.49 11.29 21.31 11.41 21.19 11.59 21.07 11.77 20.95 11.95 20.95"/><polyline class="cls-1" points="13.69 22.63 13.57 22.63 13.39 22.57 13.27 22.51"/><line class="cls-1" x1="13.63" y1="20.23" x2="13.63" y2="20.23"/><polyline class="cls-1" points="13.81 19.51 13.63 19.51 13.57 19.45 13.45 19.45"/><polyline class="cls-1" points="13.27 20.83 13.39 20.83 13.57 20.77 13.69 20.71"/><polyline class="cls-1" points="15.61 19.51 15.79 19.45 16.09 19.45 16.39 19.39 16.69 19.39 17.11 19.33 17.47 19.33 17.83 19.39 18.19 19.39 18.49 19.45 18.73 19.45 18.91 19.51"/><polyline class="cls-1" points="13.63 20.23 13.69 20.17 13.81 20.05 13.99 19.99 14.17 19.93 14.35 19.87"/><polyline class="cls-1" points="15.61 18.67 15.73 18.61 15.97 18.55 16.21 18.55 16.57 18.49 16.93 18.49 17.29 18.49 17.65 18.49 18.01 18.49 18.31 18.55 18.61 18.55 18.79 18.61 18.97 18.67"/><polyline class="cls-1" points="12.79 22.99 12.85 23.17 12.85 23.29 12.91 23.41"/><polyline class="cls-1" points="11.11 22.99 11.05 23.17 11.05 23.29 10.99 23.41"/><polyline class="cls-1" points="26.41 26.05 26.53 26.05 26.59 26.05 26.71 25.99"/><polyline class="cls-1" points="8.11 17.65 8.11 17.59 8.17 17.53 8.17 17.47 8.17 17.41 8.23 17.35 8.23 17.29 8.29 17.23 8.35 17.17 8.35 17.11 8.41 17.11 8.41 17.05"/><polyline class="cls-1" points="8.11 26.05 8.17 26.17 8.17 26.29 8.23 26.35 8.29 26.47 8.35 26.53 8.35 26.59 8.41 26.59 8.41 26.65"/><polyline class="cls-1" points="8.11 26.05 8.11 26.05 8.05 26.05 7.99 26.05 7.93 26.05 7.81 25.99 7.75 25.93 7.69 25.87 7.63 25.87 7.63 25.81 7.57 25.81"/><line class="cls-1" x1="26.59" y1="27.01" x2="7.93" y2="27.01"/><line class="cls-1" x1="7.93" y1="26.77" x2="26.59" y2="26.77"/><line class="cls-1" x1="27.43" y1="26.23" x2="27.13" y2="26.23"/><polyline class="cls-1" points="7.15 17.41 7.15 26.23 7.39 26.23 7.39 17.41"/><line class="cls-1" x1="7.93" y1="16.57" x2="7.93" y2="16.87"/><line class="cls-1" x1="7.93" y1="27.01" x2="7.93" y2="26.77"/><line class="cls-1" x1="27.43" y1="17.41" x2="27.13" y2="17.41"/><line class="cls-1" x1="7.15" y1="17.41" x2="7.39" y2="17.41"/><line class="cls-1" x1="26.59" y1="16.87" x2="7.93" y2="16.87"/><polyline class="cls-1" points="7.93 16.57 26.59 16.57 26.59 16.87"/><line class="cls-1" x1="26.59" y1="27.01" x2="26.59" y2="26.77"/><line class="cls-1" x1="27.13" y1="17.41" x2="27.13" y2="26.23"/><line class="cls-1" x1="27.43" y1="17.41" x2="27.43" y2="26.23"/><path class="cls-1" d="M8,16.81a.57.57,0,0,0-.57.57"/><path class="cls-1" d="M27.19,17.38a.57.57,0,0,0-.57-.57"/><path class="cls-1" d="M26.62,26.77a.57.57,0,0,0,.57-.57"/><path class="cls-1" d="M7.39,26.2a.57.57,0,0,0,.57.57"/><path class="cls-1" d="M18.07,21.64a.75.75,0,1,0-.75.75.75.75,0,0,0,.75-.75"/><polyline class="cls-1" points="7.93 27.01 7.93 27.01 7.87 27.01 7.81 27.01 7.75 27.01 7.69 27.01 7.69 26.95 7.63 26.95 7.57 26.95 7.57 26.89 7.51 26.89 7.45 26.89 7.45 26.83 7.39 26.83 7.39 26.77 7.33 26.77 7.33 26.71 7.27 26.71 7.27 26.65 7.27 26.59 7.21 26.59 7.21 26.53 7.21 26.47 7.15 26.47 7.15 26.41 7.15 26.35 7.15 26.29 7.15 26.23"/><polyline class="cls-1" points="7.15 17.41 7.15 17.35 7.15 17.29 7.15 17.23 7.15 17.17 7.15 17.11 7.21 17.11 7.21 17.05 7.21 16.99 7.27 16.99 7.27 16.93 7.33 16.87 7.33 16.81 7.39 16.81 7.39 16.75 7.45 16.75 7.51 16.69 7.57 16.69 7.57 16.63 7.63 16.63 7.69 16.63 7.75 16.63 7.75 16.57 7.81 16.57 7.87 16.57 7.93 16.57"/><polyline class="cls-1" points="27.43 17.41 27.43 17.35 27.43 17.29 27.37 17.29 27.37 17.23 27.37 17.17 27.37 17.11 27.37 17.05 27.31 17.05 27.31 16.99 27.31 16.93 27.25 16.93 27.25 16.87 27.19 16.87 27.19 16.81 27.13 16.81 27.13 16.75 27.07 16.75 27.07 16.69 27.01 16.69 26.95 16.69 26.95 16.63 26.89 16.63 26.83 16.63 26.77 16.63 26.77 16.57 26.71 16.57 26.65 16.57 26.59 16.57"/><polyline class="cls-1" points="26.59 27.01 26.59 27.01 26.65 27.01 26.71 27.01 26.77 27.01 26.83 27.01 26.83 26.95 26.89 26.95 26.95 26.95 27.01 26.95 27.01 26.89 27.07 26.89 27.07 26.83 27.13 26.83 27.13 26.77 27.19 26.77 27.19 26.71 27.25 26.71 27.25 26.65 27.31 26.65 27.31 26.59 27.31 26.53 27.37 26.53 27.37 26.47 27.37 26.41 27.37 26.35 27.43 26.29 27.43 26.23"/></g></g></svg>