<svg xmlns="http://www.w3.org/2000/svg" viewBox="0 0 11.22 19.74"><defs><style>.cls-1,.cls-2{fill:none;stroke:#000;stroke-linecap:round;stroke-linejoin:round;}.cls-1{stroke-width:0.12px;}.cls-2{stroke-width:0.72px;}</style></defs><title>Risorsa 12</title><g id="Livello_2" data-name="Livello 2"><g id="Livello_1-2" data-name="Livello 1"><line class="cls-1" x1="1.62" y1="8.64" x2="8.52" y2="8.64"/><line class="cls-1" x1="9.54" y1="9.66" x2="1.5" y2="9.66"/><line class="cls-1" x1="1.5" y1="9.96" x2="9.54" y2="9.96"/><line class="cls-1" x1="1.62" y1="10.98" x2="8.52" y2="10.98"/><line class="cls-1" x1="9.72" y1="0.96" x2="1.5" y2="0.96"/><line class="cls-1" x1="9.72" y1="1.08" x2="1.5" y2="1.08"/><line class="cls-1" x1="10.2" y1="1.44" x2="10.08" y2="1.44"/><line class="cls-1" x1="1.08" y1="1.56" x2="1.14" y2="1.56"/><line class="cls-1" x1="1.62" y1="2.28" x2="8.52" y2="2.28"/><line class="cls-1" x1="1.14" y1="9.3" x2="1.26" y2="8.16"/><polyline class="cls-1" points="1.14 9.42 1.14 9.36 1.14 1.56"/><line class="cls-1" x1="1.14" y1="10.26" x2="1.14" y2="18.06"/><line class="cls-1" x1="1.26" y1="16.86" x2="1.26" y2="11.46"/><line class="cls-1" x1="1.26" y1="8.16" x2="1.26" y2="2.76"/><line class="cls-1" x1="1.26" y1="11.46" x2="1.14" y2="10.32"/><line class="cls-1" x1="1.5" y1="9.66" x2="1.62" y2="8.64"/><line class="cls-1" x1="1.26" y1="16.86" x2="1.14" y2="18.06"/><line class="cls-1" x1="1.5" y1="18.66" x2="1.5" y2="18.54"/><line class="cls-1" x1="1.5" y1="0.96" x2="1.5" y2="1.08"/><line class="cls-1" x1="1.62" y1="10.98" x2="1.5" y2="9.96"/><line class="cls-1" x1="1.14" y1="1.56" x2="1.26" y2="2.76"/><line class="cls-1" x1="1.62" y1="17.34" x2="1.5" y2="18.54"/><line class="cls-1" x1="1.5" y1="1.08" x2="1.62" y2="2.28"/><line class="cls-1" x1="9.72" y1="18.54" x2="8.52" y2="17.34"/><line class="cls-1" x1="8.52" y1="2.28" x2="9.72" y2="1.08"/><line class="cls-1" x1="10.08" y1="18.18" x2="8.82" y2="16.98"/><polyline class="cls-1" points="8.82 8.28 8.82 2.64 10.08 1.44"/><line class="cls-1" x1="8.82" y1="11.34" x2="8.82" y2="16.98"/><line class="cls-1" x1="8.52" y1="8.64" x2="9.54" y2="9.66"/><line class="cls-1" x1="8.82" y1="8.28" x2="9.84" y2="9.3"/><line class="cls-1" x1="9.54" y1="9.96" x2="8.52" y2="10.98"/><line class="cls-1" x1="9.84" y1="10.32" x2="8.82" y2="11.34"/><line class="cls-1" x1="9.72" y1="18.66" x2="9.72" y2="18.54"/><line class="cls-1" x1="9.72" y1="0.96" x2="9.72" y2="1.08"/><line class="cls-1" x1="10.08" y1="18.18" x2="10.08" y2="1.44"/><line class="cls-1" x1="10.2" y1="18.18" x2="10.2" y2="1.44"/><line class="cls-1" x1="8.52" y1="17.34" x2="1.62" y2="17.34"/><line class="cls-1" x1="1.08" y1="18.06" x2="1.14" y2="18.06"/><line class="cls-1" x1="10.2" y1="18.18" x2="10.08" y2="18.18"/><line class="cls-1" x1="1.5" y1="18.54" x2="9.72" y2="18.54"/><line class="cls-1" x1="1.5" y1="18.66" x2="9.72" y2="18.66"/><polyline class="cls-1" points="1.5 0.96 1.38 0.96 1.26 1.02 1.14 1.08 1.08 1.26"/><polyline class="cls-1" points="1.5 1.08 1.44 1.08 1.32 1.14 1.26 1.2 1.2 1.32 1.14 1.44 1.14 1.56"/><polyline class="cls-1" points="8.52 2.28 8.58 2.28 8.64 2.34 8.7 2.34 8.76 2.4 8.82 2.46 8.82 2.58 8.82 2.64"/><polyline class="cls-1" points="1.26 2.76 1.26 2.64 1.26 2.52 1.32 2.46 1.38 2.4 1.44 2.34 1.56 2.28 1.62 2.28"/><polyline class="cls-1" points="1.14 18.06 1.14 18.18 1.2 18.3 1.26 18.42 1.32 18.48 1.44 18.54 1.5 18.54"/><polyline class="cls-1" points="1.08 18.36 1.14 18.48 1.26 18.6 1.38 18.66 1.5 18.66"/><line class="cls-1" x1="1.14" y1="9.36" x2="1.14" y2="9.3"/><polyline class="cls-1" points="1.14 10.02 1.14 9.9 1.14 9.72 1.14 9.6 1.14 9.42"/><polyline class="cls-1" points="1.14 10.32 1.14 10.26 1.14 10.2 1.14 10.02"/><line class="cls-1" x1="1.14" y1="10.26" x2="1.14" y2="10.26"/><polyline class="cls-1" points="1.14 9.3 1.14 9.42 1.2 9.48 1.32 9.54 1.38 9.6 1.5 9.66"/><polyline class="cls-1" points="1.14 10.32 1.14 10.2 1.2 10.14 1.32 10.02 1.38 10.02 1.5 9.96"/><polyline class="cls-1" points="1.26 11.46 1.26 11.34 1.26 11.22 1.32 11.16 1.38 11.1 1.44 11.04 1.56 10.98 1.62 10.98"/><line class="cls-1" x1="1.5" y1="9.96" x2="1.5" y2="9.96"/><polyline class="cls-1" points="1.14 9.36 1.14 9.42 1.2 9.54 1.32 9.6 1.38 9.66 1.5 9.66"/><polyline class="cls-1" points="1.5 9.66 1.5 9.66 1.5 9.72 1.5 9.78 1.5 9.84 1.5 9.9 1.5 9.96"/><polyline class="cls-1" points="1.14 10.26 1.14 10.14 1.2 10.08 1.32 10.02 1.38 9.96 1.5 9.96"/><line class="cls-1" x1="1.5" y1="9.66" x2="1.5" y2="9.66"/><polyline class="cls-1" points="1.62 8.64 1.56 8.58 1.44 8.58 1.38 8.52 1.32 8.46 1.26 8.4 1.26 8.28 1.26 8.16"/><polyline class="cls-1" points="8.52 10.98 8.58 10.98 8.7 11.04 8.76 11.1 8.82 11.16 8.82 11.22 8.82 11.34"/><polyline class="cls-1" points="9.54 9.66 9.6 9.66 9.66 9.72 9.66 9.78 9.66 9.84 9.66 9.9 9.6 9.96 9.54 9.96"/><polyline class="cls-1" points="8.82 8.28 8.82 8.34 8.82 8.46 8.76 8.52 8.7 8.58 8.64 8.58 8.58 8.64 8.52 8.64"/><polyline class="cls-1" points="8.82 16.98 8.82 17.04 8.82 17.16 8.76 17.22 8.7 17.28 8.64 17.28 8.58 17.34 8.52 17.34"/><polyline class="cls-1" points="9.84 10.32 9.84 10.2 9.72 10.08 9.66 10.02 9.54 9.96"/><polyline class="cls-1" points="9.54 9.66 9.66 9.6 9.72 9.48 9.84 9.42 9.84 9.3 9.96 9.36 9.96 9.48 10.02 9.6 10.02 9.72 10.02 9.84 10.02 9.96 9.96 10.14 9.96 10.2 9.84 10.32"/><polyline class="cls-1" points="10.08 1.44 10.08 1.32 10.02 1.26 9.96 1.14 9.9 1.14 9.84 1.08 9.72 1.08"/><polyline class="cls-1" points="10.2 1.44 10.2 1.26 10.14 1.2 10.08 1.08 9.96 1.02 9.84 0.96 9.72 0.96"/><polyline class="cls-1" points="1.62 17.34 1.56 17.34 1.44 17.28 1.38 17.22 1.32 17.16 1.26 17.1 1.26 16.98 1.26 16.86"/><polyline class="cls-1" points="9.72 18.54 9.84 18.54 9.9 18.48 9.96 18.42 10.02 18.36 10.08 18.3 10.08 18.18"/><polyline class="cls-1" points="9.72 18.66 9.84 18.66 9.96 18.6 10.08 18.54 10.14 18.42 10.2 18.3 10.2 18.18"/><line class="cls-1" x1="1.08" y1="18.36" x2="1.08" y2="1.26"/><line class="cls-2" x1="10.86" y1="0.36" x2="10.86" y2="19.38"/><line class="cls-2" x1="0.36" y1="0.36" x2="0.36" y2="19.38"/><line class="cls-1" x1="8.7" y1="6.72" x2="8.7" y2="4.2"/><line class="cls-1" x1="1.32" y1="6.72" x2="1.32" y2="4.2"/><line class="cls-1" x1="8.7" y1="6.72" x2="1.32" y2="6.72"/><line class="cls-1" x1="8.7" y1="4.2" x2="1.32" y2="4.2"/><line class="cls-1" x1="7.68" y1="4.5" x2="2.4" y2="4.5"/><line class="cls-1" x1="1.92" y1="5.88" x2="1.92" y2="4.86"/><line class="cls-1" x1="8.1" y1="5.88" x2="8.1" y2="4.86"/><line class="cls-1" x1="7.26" y1="6.3" x2="2.7" y2="6.3"/><line class="cls-1" x1="7.5" y1="6.18" x2="7.5" y2="6.06"/><line class="cls-1" x1="7.5" y1="6.06" x2="7.86" y2="6.06"/><line class="cls-1" x1="2.52" y1="6.18" x2="2.52" y2="6.06"/><line class="cls-1" x1="2.52" y1="6.06" x2="2.16" y2="6.06"/><polyline class="cls-1" points="7.68 4.5 7.74 4.5 7.8 4.5 7.86 4.5 7.92 4.56 7.98 4.62 8.04 4.68 8.04 4.74 8.1 4.8 8.1 4.86"/><polyline class="cls-1" points="1.92 4.86 1.92 4.8 1.98 4.74 1.98 4.68 2.04 4.62 2.1 4.56 2.16 4.5 2.22 4.5 2.28 4.5 2.4 4.5"/><polyline class="cls-1" points="8.1 5.88 8.1 5.94 8.04 6 7.98 6.06 7.92 6.06 7.86 6.06"/><polyline class="cls-1" points="7.5 6.18 7.5 6.24 7.44 6.24 7.44 6.3 7.38 6.3 7.32 6.3 7.26 6.3"/><polyline class="cls-1" points="2.7 6.3 2.64 6.3 2.58 6.3 2.52 6.24 2.52 6.18"/><polyline class="cls-1" points="2.16 6.06 2.1 6.06 2.1 6 2.04 6 1.98 6 1.98 5.94 1.92 5.88"/><line class="cls-1" x1="2.46" y1="5.64" x2="2.46" y2="5.46"/><line class="cls-1" x1="2.46" y1="5.46" x2="7.44" y2="5.46"/><line class="cls-1" x1="7.44" y1="5.46" x2="7.44" y2="5.64"/><line class="cls-1" x1="7.44" y1="5.64" x2="2.46" y2="5.64"/><line class="cls-1" x1="8.7" y1="15.42" x2="8.7" y2="12.9"/><line class="cls-1" x1="1.32" y1="15.42" x2="1.32" y2="12.9"/><line class="cls-1" x1="8.7" y1="15.42" x2="1.32" y2="15.42"/><line class="cls-1" x1="8.7" y1="12.9" x2="1.32" y2="12.9"/><line class="cls-1" x1="7.68" y1="13.2" x2="2.4" y2="13.2"/><line class="cls-1" x1="1.92" y1="14.58" x2="1.92" y2="13.56"/><line class="cls-1" x1="8.1" y1="14.58" x2="8.1" y2="13.56"/><line class="cls-1" x1="7.26" y1="15" x2="2.7" y2="15"/><line class="cls-1" x1="7.5" y1="14.88" x2="7.5" y2="14.76"/><line class="cls-1" x1="7.5" y1="14.76" x2="7.86" y2="14.76"/><line class="cls-1" x1="2.52" y1="14.88" x2="2.52" y2="14.76"/><line class="cls-1" x1="2.52" y1="14.76" x2="2.16" y2="14.76"/><polyline class="cls-1" points="7.68 13.2 7.74 13.2 7.8 13.2 7.86 13.26 7.92 13.26 7.98 13.32 8.04 13.38 8.04 13.44 8.1 13.5 8.1 13.56"/><polyline class="cls-1" points="1.92 13.56 1.92 13.5 1.98 13.44 1.98 13.38 2.04 13.32 2.1 13.26 2.16 13.26 2.22 13.2 2.28 13.2 2.4 13.2"/><polyline class="cls-1" points="8.1 14.58 8.1 14.64 8.04 14.7 7.98 14.76 7.92 14.76 7.86 14.76"/><polyline class="cls-1" points="7.5 14.88 7.5 14.94 7.44 14.94 7.44 15 7.38 15 7.32 15 7.26 15"/><polyline class="cls-1" points="2.7 15 2.64 15 2.58 15 2.52 14.94 2.52 14.88"/><polyline class="cls-1" points="2.16 14.76 2.1 14.76 2.1 14.7 2.04 14.7 1.98 14.7 1.98 14.64 1.92 14.58"/><line class="cls-1" x1="2.46" y1="14.34" x2="2.46" y2="14.16"/><line class="cls-1" x1="2.46" y1="14.16" x2="7.44" y2="14.16"/><line class="cls-1" x1="7.44" y1="14.16" x2="7.44" y2="14.34"/><line class="cls-1" x1="7.44" y1="14.34" x2="2.46" y2="14.34"/><line class="cls-1" x1="2.7" y1="8.4" x2="2.7" y2="6.84"/><line class="cls-1" x1="2.7" y1="7.62" x2="3.72" y2="7.62"/><line class="cls-1" x1="3.72" y1="6.84" x2="3.72" y2="8.4"/><polyline class="cls-1" points="4.26 8.4 5.04 8.4 5.34 8.16 5.34 7.08 5.04 6.84 4.26 6.84"/><line class="cls-1" x1="4.56" y1="6.84" x2="4.56" y2="8.4"/><polyline class="cls-1" points="5.88 8.4 5.88 6.84 6.36 7.92 6.9 6.84 6.9 8.4"/><line class="cls-1" x1="7.44" y1="6.84" x2="7.98" y2="6.84"/><line class="cls-1" x1="7.68" y1="6.84" x2="7.68" y2="8.4"/><line class="cls-1" x1="7.44" y1="8.4" x2="7.98" y2="8.4"/><line class="cls-1" x1="2.28" y1="17.16" x2="2.28" y2="15.54"/><line class="cls-1" x1="2.28" y1="16.38" x2="3.36" y2="16.38"/><line class="cls-1" x1="3.36" y1="15.54" x2="3.36" y2="17.16"/><polyline class="cls-1" points="3.9 17.16 4.68 17.16 4.92 16.86 4.92 15.84 4.68 15.54 3.9 15.54"/><line class="cls-1" x1="4.14" y1="15.54" x2="4.14" y2="17.16"/><polyline class="cls-1" points="5.46 17.16 5.46 15.54 6 16.62 6.54 15.54 6.54 17.16"/><line class="cls-1" x1="7.08" y1="15.54" x2="7.56" y2="15.54"/><line class="cls-1" x1="7.32" y1="15.54" x2="7.32" y2="17.16"/><line class="cls-1" x1="7.08" y1="17.16" x2="7.56" y2="17.16"/></g></g></svg>