<svg xmlns="http://www.w3.org/2000/svg" viewBox="0 0 11.22 19.74"><defs><style>.cls-1,.cls-2{fill:none;stroke:#000;stroke-linecap:round;stroke-linejoin:round;}.cls-1{stroke-width:0.12px;}.cls-2{stroke-width:0.72px;}</style></defs><title>Risorsa 13</title><g id="Livello_2" data-name="Livello 2"><g id="Livello_1-2" data-name="Livello 1"><line class="cls-1" x1="1.62" y1="8.64" x2="8.52" y2="8.64"/><line class="cls-1" x1="9.54" y1="9.66" x2="1.56" y2="9.66"/><line class="cls-1" x1="1.56" y1="10.02" x2="9.54" y2="10.02"/><line class="cls-1" x1="1.62" y1="11.04" x2="8.52" y2="11.04"/><line class="cls-1" x1="8.76" y1="6.72" x2="8.76" y2="4.26"/><line class="cls-1" x1="1.32" y1="6.72" x2="1.32" y2="4.26"/><line class="cls-1" x1="8.76" y1="6.72" x2="1.32" y2="6.72"/><line class="cls-1" x1="8.76" y1="4.26" x2="1.32" y2="4.26"/><line class="cls-1" x1="7.68" y1="4.5" x2="2.4" y2="4.5"/><line class="cls-1" x1="1.92" y1="5.88" x2="1.92" y2="4.86"/><line class="cls-1" x1="8.1" y1="5.94" x2="8.1" y2="4.86"/><line class="cls-1" x1="7.32" y1="6.36" x2="2.7" y2="6.36"/><line class="cls-1" x1="7.5" y1="6.18" x2="7.5" y2="6.12"/><line class="cls-1" x1="7.5" y1="6.12" x2="7.86" y2="6.12"/><line class="cls-1" x1="2.52" y1="6.18" x2="2.52" y2="6.06"/><line class="cls-1" x1="2.52" y1="6.06" x2="2.16" y2="6.06"/><path class="cls-1" d="M8.16,4.83c0-.18-.2-.33-.45-.33"/><path class="cls-1" d="M2.43,4.5c-.25,0-.45.15-.45.33"/><path class="cls-1" d="M7.89,6.06c.12,0,.21-.07.21-.15"/><path class="cls-1" d="M7.35,6.3c.12,0,.21-.07.21-.15"/><path class="cls-1" d="M2.52,6.15c0,.08.09.15.21.15"/><path class="cls-1" d="M2,5.85c0,.08.09.15.21.15"/><polyline class="cls-1" points="2.46 5.7 2.46 5.46 7.44 5.46 7.44 5.7 2.46 5.7"/><line class="cls-1" x1="9.72" y1="0.96" x2="1.5" y2="0.96"/><line class="cls-1" x1="9.72" y1="1.14" x2="1.5" y2="1.14"/><line class="cls-1" x1="10.2" y1="1.44" x2="10.08" y2="1.44"/><line class="cls-1" x1="1.08" y1="1.62" x2="1.14" y2="1.62"/><line class="cls-1" x1="1.62" y1="2.34" x2="8.52" y2="2.34"/><line class="cls-1" x1="1.14" y1="9.3" x2="1.26" y2="8.22"/><polyline class="cls-1" points="1.14 9.48 1.14 9.42 1.14 1.62"/><line class="cls-1" x1="1.14" y1="10.32" x2="1.14" y2="18.06"/><line class="cls-1" x1="1.26" y1="16.92" x2="1.26" y2="11.46"/><line class="cls-1" x1="1.26" y1="8.22" x2="1.26" y2="2.76"/><line class="cls-1" x1="1.26" y1="11.46" x2="1.14" y2="10.38"/><line class="cls-1" x1="1.56" y1="9.66" x2="1.62" y2="8.64"/><line class="cls-1" x1="1.26" y1="16.92" x2="1.14" y2="18.06"/><line class="cls-1" x1="1.5" y1="18.72" x2="1.5" y2="18.54"/><line class="cls-1" x1="1.5" y1="0.96" x2="1.5" y2="1.14"/><line class="cls-1" x1="1.62" y1="11.04" x2="1.56" y2="10.02"/><line class="cls-1" x1="1.14" y1="1.62" x2="1.26" y2="2.76"/><line class="cls-1" x1="1.62" y1="17.34" x2="1.5" y2="18.54"/><line class="cls-1" x1="1.5" y1="1.14" x2="1.62" y2="2.34"/><line class="cls-1" x1="9.72" y1="18.54" x2="8.52" y2="17.34"/><line class="cls-1" x1="8.52" y1="2.34" x2="9.72" y2="1.14"/><line class="cls-1" x1="10.08" y1="18.24" x2="8.88" y2="17.04"/><polyline class="cls-1" points="8.88 8.34 8.88 2.7 10.08 1.44"/><line class="cls-1" x1="8.88" y1="11.4" x2="8.88" y2="17.04"/><line class="cls-1" x1="8.52" y1="8.64" x2="9.54" y2="9.66"/><line class="cls-1" x1="8.88" y1="8.34" x2="9.84" y2="9.3"/><line class="cls-1" x1="9.54" y1="10.02" x2="8.52" y2="11.04"/><line class="cls-1" x1="9.84" y1="10.38" x2="8.88" y2="11.4"/><line class="cls-1" x1="9.72" y1="18.72" x2="9.72" y2="18.54"/><line class="cls-1" x1="9.72" y1="0.96" x2="9.72" y2="1.14"/><line class="cls-1" x1="10.08" y1="18.24" x2="10.08" y2="1.44"/><line class="cls-1" x1="10.2" y1="18.24" x2="10.2" y2="1.44"/><line class="cls-1" x1="8.52" y1="17.34" x2="1.62" y2="17.34"/><line class="cls-1" x1="1.08" y1="18.06" x2="1.14" y2="18.06"/><line class="cls-1" x1="10.2" y1="18.24" x2="10.08" y2="18.24"/><line class="cls-1" x1="1.5" y1="18.54" x2="9.72" y2="18.54"/><line class="cls-1" x1="1.5" y1="18.72" x2="9.72" y2="18.72"/><polyline class="cls-1" points="1.5 0.96 1.38 1.02 1.26 1.08 1.14 1.14 1.08 1.26"/><polyline class="cls-1" points="1.5 1.14 1.44 1.14 1.32 1.2 1.26 1.26 1.2 1.32 1.14 1.44 1.14 1.62"/><polyline class="cls-1" points="8.52 2.34 8.58 2.34 8.7 2.34 8.76 2.4 8.76 2.46 8.82 2.52 8.82 2.58 8.88 2.7"/><polyline class="cls-1" points="1.26 2.76 1.26 2.64 1.26 2.58 1.32 2.46 1.38 2.4 1.44 2.34 1.56 2.34 1.62 2.34"/><polyline class="cls-1" points="1.14 18.06 1.14 18.24 1.2 18.36 1.26 18.42 1.32 18.54 1.44 18.54 1.5 18.54"/><polyline class="cls-1" points="1.08 18.42 1.14 18.54 1.26 18.66 1.38 18.66 1.5 18.72"/><polyline class="cls-1" points="1.14 9.42 1.14 9.36 1.14 9.3"/><polyline class="cls-1" points="1.14 10.02 1.14 9.9 1.14 9.78 1.14 9.66 1.14 9.48"/><polyline class="cls-1" points="1.14 10.38 1.14 10.32 1.14 10.2 1.14 10.02"/><line class="cls-1" x1="1.14" y1="10.32" x2="1.14" y2="10.32"/><polyline class="cls-1" points="1.14 9.3 1.14 9.42 1.2 9.54 1.32 9.6 1.44 9.66 1.56 9.66"/><polyline class="cls-1" points="1.14 10.38 1.14 10.26 1.2 10.14 1.32 10.08 1.44 10.02 1.56 10.02"/><polyline class="cls-1" points="1.26 11.46 1.26 11.34 1.26 11.28 1.32 11.16 1.38 11.1 1.44 11.04 1.56 11.04 1.62 11.04"/><line class="cls-1" x1="1.5" y1="10.02" x2="1.56" y2="10.02"/><polyline class="cls-1" points="1.14 9.42 1.14 9.48 1.2 9.54 1.32 9.66 1.38 9.66 1.5 9.72"/><polyline class="cls-1" points="1.5 10.02 1.5 9.96 1.5 9.9 1.5 9.84 1.5 9.78 1.5 9.72"/><polyline class="cls-1" points="1.14 10.32 1.14 10.2 1.2 10.14 1.32 10.08 1.38 10.02 1.5 10.02"/><line class="cls-1" x1="1.5" y1="9.72" x2="1.56" y2="9.66"/><polyline class="cls-1" points="1.62 8.64 1.56 8.64 1.44 8.64 1.38 8.58 1.32 8.52 1.26 8.4 1.26 8.34 1.26 8.22"/><polyline class="cls-1" points="8.52 11.04 8.58 11.04 8.7 11.1 8.76 11.1 8.82 11.22 8.82 11.28 8.88 11.4"/><polyline class="cls-1" points="9.54 9.66 9.6 9.72 9.66 9.72 9.66 9.78 9.72 9.84 9.66 9.9 9.66 9.96 9.6 9.96 9.54 10.02"/><polyline class="cls-1" points="8.88 8.34 8.82 8.4 8.82 8.46 8.76 8.52 8.7 8.58 8.64 8.64 8.58 8.64 8.52 8.64"/><polyline class="cls-1" points="8.88 17.04 8.82 17.1 8.82 17.16 8.76 17.22 8.7 17.28 8.64 17.34 8.58 17.34 8.52 17.34"/><polyline class="cls-1" points="9.84 10.38 9.84 10.26 9.72 10.14 9.66 10.08 9.54 10.02"/><polyline class="cls-1" points="9.54 9.66 9.66 9.6 9.72 9.54 9.84 9.42 9.84 9.3 9.96 9.42 10.02 9.54 10.02 9.66 10.02 9.78 10.02 9.9 10.02 10.02 10.02 10.14 9.96 10.26 9.84 10.38"/><polyline class="cls-1" points="10.08 1.44 10.08 1.38 10.02 1.26 9.96 1.2 9.9 1.14 9.84 1.14 9.72 1.14"/><polyline class="cls-1" points="10.2 1.44 10.2 1.32 10.14 1.2 10.08 1.14 9.96 1.02 9.84 1.02 9.72 0.96"/><polyline class="cls-1" points="1.62 17.34 1.56 17.34 1.44 17.34 1.38 17.28 1.32 17.22 1.26 17.1 1.26 17.04 1.26 16.92"/><polyline class="cls-1" points="9.72 18.54 9.84 18.54 9.9 18.54 9.96 18.48 10.02 18.42 10.08 18.36 10.08 18.24"/><polyline class="cls-1" points="9.72 18.72 9.84 18.66 9.96 18.66 10.08 18.6 10.14 18.48 10.2 18.36 10.2 18.24"/><line class="cls-1" x1="1.08" y1="18.42" x2="1.08" y2="1.26"/><line class="cls-2" x1="10.86" y1="0.36" x2="10.86" y2="19.38"/><line class="cls-2" x1="0.36" y1="0.36" x2="0.36" y2="19.38"/><line class="cls-1" x1="2.22" y1="8.46" x2="2.22" y2="6.9"/><line class="cls-1" x1="2.22" y1="7.68" x2="3.24" y2="7.68"/><line class="cls-1" x1="3.24" y1="6.9" x2="3.24" y2="8.46"/><polyline class="cls-1" points="3.78 8.46 4.56 8.46 4.86 8.22 4.86 7.14 4.56 6.9 3.78 6.9"/><line class="cls-1" x1="4.02" y1="6.9" x2="4.02" y2="8.46"/><polyline class="cls-1" points="5.34 8.46 5.34 6.9 5.88 7.92 6.42 6.9 6.42 8.46"/><line class="cls-1" x1="6.96" y1="6.9" x2="7.5" y2="6.9"/><line class="cls-1" x1="7.2" y1="6.9" x2="7.2" y2="8.46"/><line class="cls-1" x1="6.96" y1="8.46" x2="7.5" y2="8.46"/></g></g></svg>