<svg xmlns="http://www.w3.org/2000/svg" viewBox="0 0 11.16 19.74"><defs><style>.cls-1,.cls-2{fill:none;stroke:#000;stroke-linecap:round;stroke-linejoin:round;}.cls-1{stroke-width:0.12px;}.cls-2{stroke-width:0.72px;}</style></defs><title>Risorsa 8</title><g id="Livello_2" data-name="Livello 2"><g id="Livello_1-2" data-name="Livello 1"><line class="cls-1" x1="2.58" y1="14.94" x2="2.58" y2="18.12"/><line class="cls-1" x1="4.8" y1="3.54" x2="4.8" y2="3.78"/><line class="cls-1" x1="4.8" y1="6.9" x2="4.8" y2="7.08"/><line class="cls-1" x1="4.8" y1="12.12" x2="4.8" y2="12.36"/><line class="cls-1" x1="4.8" y1="13.5" x2="4.8" y2="13.74"/><line class="cls-1" x1="5.1" y1="3.78" x2="5.1" y2="3.54"/><line class="cls-1" x1="5.34" y1="3.54" x2="5.34" y2="3.78"/><line class="cls-1" x1="5.34" y1="4.08" x2="5.34" y2="4.32"/><line class="cls-1" x1="5.34" y1="10.32" x2="5.34" y2="10.56"/><line class="cls-1" x1="5.82" y1="11.04" x2="5.82" y2="11.76"/><line class="cls-1" x1="6" y1="11.76" x2="6" y2="10.8"/><line class="cls-1" x1="6.6" y1="13.02" x2="6.6" y2="12.78"/><line class="cls-1" x1="6.6" y1="10.56" x2="6.6" y2="10.32"/><line class="cls-1" x1="6.6" y1="7.56" x2="6.6" y2="7.38"/><line class="cls-1" x1="6.6" y1="7.08" x2="6.6" y2="6.9"/><line class="cls-1" x1="6.6" y1="3.78" x2="6.6" y2="3.54"/><line class="cls-1" x1="6.66" y1="18.12" x2="6.66" y2="14.94"/><line class="cls-1" x1="6.24" y1="10.8" x2="6.18" y2="11.04"/><line class="cls-1" x1="6.18" y1="2.16" x2="6.12" y2="2.4"/><line class="cls-1" x1="5.7" y1="8.52" x2="5.7" y2="8.28"/><line class="cls-1" x1="6.72" y1="4.98" x2="6.72" y2="5.22"/><line class="cls-1" x1="6.18" y1="9.6" x2="6.24" y2="9.78"/><line class="cls-1" x1="5.7" y1="2.4" x2="5.7" y2="2.16"/><line class="cls-1" x1="5.7" y1="9" x2="5.64" y2="8.76"/><line class="cls-1" x1="5.58" y1="9.9" x2="5.34" y2="9.84"/><line class="cls-1" x1="4.8" y1="12.36" x2="6.12" y2="12.84"/><line class="cls-1" x1="6.6" y1="12.78" x2="4.8" y2="12.12"/><line class="cls-1" x1="3.06" y1="18.54" x2="6.24" y2="18.54"/><line class="cls-1" x1="4.8" y1="13.74" x2="6.6" y2="13.02"/><line class="cls-1" x1="6.12" y1="13.02" x2="4.8" y2="13.5"/><line class="cls-1" x1="6.24" y1="14.46" x2="3.06" y2="14.46"/><line class="cls-1" x1="5.34" y1="10.56" x2="6.6" y2="10.56"/><line class="cls-1" x1="5.52" y1="10.32" x2="5.34" y2="10.32"/><line class="cls-1" x1="6.6" y1="10.32" x2="5.94" y2="10.32"/><line class="cls-1" x1="5.94" y1="7.62" x2="6.06" y2="7.62"/><line class="cls-1" x1="6.06" y1="7.44" x2="5.76" y2="7.44"/><line class="cls-1" x1="4.8" y1="7.08" x2="6.6" y2="7.08"/><line class="cls-1" x1="6.6" y1="6.9" x2="4.8" y2="6.9"/><line class="cls-1" x1="5.34" y1="4.32" x2="5.46" y2="4.32"/><line class="cls-1" x1="6.42" y1="4.08" x2="5.34" y2="4.08"/><line class="cls-1" x1="4.8" y1="3.78" x2="5.1" y2="3.78"/><line class="cls-1" x1="5.34" y1="3.78" x2="6.6" y2="3.78"/><line class="cls-1" x1="6.6" y1="3.54" x2="5.34" y2="3.54"/><line class="cls-1" x1="5.1" y1="3.54" x2="4.8" y2="3.54"/><path class="cls-1" d="M4.92,17.91a.27.27,0,1,0-.27.27.27.27,0,0,0,.27-.27"/><path class="cls-1" d="M5,17.91a.39.39,0,1,0-.39.39A.39.39,0,0,0,5,17.91"/><path class="cls-1" d="M6.36,16.47a.27.27,0,1,0-.27.27.27.27,0,0,0,.27-.27"/><path class="cls-1" d="M6.72,14.91a.45.45,0,0,0-.45-.45"/><path class="cls-1" d="M3.09,14.46a.45.45,0,0,0-.45.45"/><path class="cls-1" d="M2.64,18.09a.45.45,0,0,0,.45.45"/><path class="cls-1" d="M6.27,18.54a.45.45,0,0,0,.45-.45"/><path class="cls-1" d="M6.48,16.47a.39.39,0,1,0-.39.39.39.39,0,0,0,.39-.39"/><path class="cls-1" d="M4.92,15a.27.27,0,1,0-.27.27A.27.27,0,0,0,4.92,15"/><path class="cls-1" d="M5,15a.39.39,0,1,0-.39.39A.39.39,0,0,0,5,15"/><path class="cls-1" d="M3.48,16.47a.27.27,0,1,0-.27.27.27.27,0,0,0,.27-.27"/><path class="cls-1" d="M3.6,16.47a.39.39,0,1,0-.39.39.39.39,0,0,0,.39-.39"/><path class="cls-1" d="M5.76,17.19a.39.39,0,1,0-.39.39.39.39,0,0,0,.39-.39"/><path class="cls-1" d="M5.76,15.75a.39.39,0,1,0-.39.39.39.39,0,0,0,.39-.39"/><path class="cls-1" d="M5,16.47a.39.39,0,1,0-.39.39A.39.39,0,0,0,5,16.47"/><path class="cls-1" d="M4.32,17.19a.39.39,0,1,0-.39.39.39.39,0,0,0,.39-.39"/><path class="cls-1" d="M4.32,15.75a.39.39,0,1,0-.39.39.39.39,0,0,0,.39-.39"/><line class="cls-2" x1="0.36" y1="19.38" x2="0.36" y2="0.36"/><line class="cls-2" x1="0.42" y1="0.36" x2="0.42" y2="19.38"/><line class="cls-2" x1="10.74" y1="19.38" x2="10.74" y2="0.36"/><line class="cls-2" x1="10.8" y1="0.36" x2="10.8" y2="19.38"/><polyline class="cls-1" points="6.12 13.02 6.12 13.02 6.18 13.02 6.24 12.96 6.3 12.96 6.36 12.96 6.42 12.9 6.36 12.9 6.3 12.9 6.24 12.9 6.24 12.84 6.18 12.84 6.12 12.84"/><polyline class="cls-1" points="6 11.76 6.06 11.76 6.12 11.76 6.18 11.76 6.18 11.7 6.24 11.7 6.3 11.7 6.3 11.64 6.36 11.64 6.36 11.58 6.42 11.58 6.42 11.52 6.42 11.46 6.42 11.4 6.48 11.4 6.48 11.34 6.42 11.34 6.42 11.28 6.42 11.22 6.42 11.16 6.36 11.16 6.3 11.1 6.24 11.1 6.24 11.04 6.18 11.04"/><polyline class="cls-1" points="6.24 10.8 6.24 10.8 6.3 10.86 6.36 10.86 6.36 10.92 6.42 10.92 6.48 10.98 6.54 10.98 6.54 11.04 6.54 11.1 6.6 11.1 6.6 11.16 6.6 11.22 6.6 11.28 6.6 11.34 6.66 11.34 6.66 11.4 6.66 11.46 6.6 11.46 6.6 11.52 6.6 11.58 6.54 11.64 6.54 11.7 6.54 11.76 6.48 11.76 6.48 11.82 6.42 11.82 6.42 11.88 6.36 11.88 6.3 11.94 6.24 11.94 6.18 11.94 6.12 12 6.06 12 6 12 5.94 12 5.88 12 5.82 12 5.76 11.94 5.7 11.94 5.64 11.94 5.58 11.88 5.52 11.88 5.46 11.82 5.4 11.76 5.4 11.7 5.34 11.64 5.34 11.58 5.34 11.52 5.28 11.52 5.28 11.46 5.28 11.4 5.28 11.34 5.28 11.28 5.34 11.28 5.34 11.22 5.34 11.16 5.4 11.1 5.4 11.04 5.46 10.98 5.52 10.92 5.58 10.92 5.64 10.86 5.7 10.86 5.76 10.86 5.82 10.8 5.88 10.8 5.94 10.8 6 10.8"/><polyline class="cls-1" points="5.82 11.04 5.82 11.04 5.76 11.04 5.7 11.1 5.64 11.1 5.58 11.1 5.58 11.16 5.52 11.22 5.52 11.28 5.52 11.34 5.46 11.34 5.46 11.4 5.46 11.46 5.52 11.52 5.52 11.58 5.58 11.64 5.64 11.7 5.7 11.7 5.76 11.7 5.76 11.76 5.82 11.76"/><polyline class="cls-1" points="5.58 9.9 5.58 9.9 5.58 9.96 5.52 9.96 5.52 10.02 5.52 10.08 5.52 10.14 5.52 10.2 5.58 10.2 5.58 10.26 5.64 10.26 5.7 10.26 5.7 10.32 5.76 10.32 5.82 10.32 5.88 10.32 5.94 10.32"/><polyline class="cls-1" points="5.52 10.32 5.52 10.32 5.46 10.32 5.4 10.26 5.34 10.26 5.34 10.2 5.34 10.14 5.28 10.14 5.28 10.08 5.28 10.02 5.28 9.96 5.34 9.96 5.34 9.9 5.34 9.84"/><polyline class="cls-1" points="5.7 9 5.7 9 5.64 9 5.58 9 5.58 9.06 5.52 9.06 5.52 9.12 5.52 9.18 5.46 9.18 5.46 9.24 5.46 9.3 5.46 9.36 5.52 9.42 5.52 9.48 5.52 9.54 5.58 9.54 5.64 9.54 5.7 9.54 5.7 9.48 5.76 9.48 5.76 9.42 5.76 9.36 5.82 9.36 5.82 9.3 5.82 9.24 5.82 9.18 5.88 9.12 5.88 9.06 5.88 9 5.94 8.94 5.94 8.88 6 8.88 6 8.82 6.06 8.82 6.06 8.76 6.12 8.76 6.18 8.76 6.24 8.76 6.3 8.76 6.36 8.76 6.42 8.76 6.42 8.82 6.48 8.82 6.48 8.88 6.54 8.88 6.54 8.94 6.6 8.94 6.6 9 6.6 9.06 6.6 9.12 6.6 9.18 6.66 9.24 6.66 9.3 6.6 9.3 6.6 9.36 6.6 9.42 6.6 9.48 6.6 9.54 6.54 9.54 6.54 9.6 6.54 9.66 6.48 9.66 6.48 9.72 6.42 9.72 6.36 9.72 6.36 9.78 6.3 9.78 6.24 9.78"/><polyline class="cls-1" points="6.18 9.6 6.18 9.6 6.24 9.6 6.24 9.54 6.3 9.54 6.36 9.54 6.36 9.48 6.42 9.48 6.42 9.42 6.42 9.36 6.42 9.3 6.48 9.3 6.48 9.24 6.42 9.18 6.42 9.12 6.42 9.06 6.42 9 6.36 9 6.3 9 6.3 8.94 6.24 8.94 6.24 9 6.18 9 6.12 9 6.12 9.06 6.12 9.12 6.06 9.18 6.06 9.24 6.06 9.3 6 9.36 6 9.42 6 9.48 6 9.54 5.94 9.54 5.94 9.6 5.94 9.66 5.88 9.66 5.88 9.72 5.82 9.72 5.76 9.72 5.7 9.78 5.64 9.78 5.58 9.78 5.58 9.72 5.52 9.72 5.46 9.72 5.46 9.66 5.4 9.66 5.4 9.6 5.34 9.6 5.34 9.54 5.34 9.48 5.28 9.42 5.28 9.36 5.28 9.3 5.28 9.24 5.28 9.18 5.28 9.12 5.34 9.12 5.34 9.06 5.34 9 5.4 8.94 5.4 8.88 5.46 8.88 5.46 8.82 5.52 8.82 5.58 8.82 5.64 8.76"/><polyline class="cls-1" points="6.6 7.56 6.6 7.56 6.6 7.62 6.54 7.62 6.48 7.62 6.42 7.62 6.48 7.62 6.48 7.68 6.48 7.74 6.54 7.74 6.54 7.8 6.6 7.86"/><polyline class="cls-1" points="6.06 7.44 6.06 7.44 6.12 7.44 6.18 7.44 6.24 7.44 6.3 7.44 6.36 7.44 6.42 7.44 6.48 7.44 6.48 7.38 6.54 7.38 6.6 7.38"/><polyline class="cls-1" points="5.7 8.52 5.7 8.52 5.64 8.52 5.64 8.46 5.58 8.46 5.52 8.46 5.52 8.4 5.46 8.4 5.4 8.34 5.4 8.28 5.34 8.28 5.34 8.22 5.34 8.16 5.34 8.1 5.28 8.1 5.28 8.04 5.28 7.98 5.28 7.92 5.28 7.86 5.28 7.8 5.34 7.74 5.34 7.68 5.34 7.62 5.4 7.56 5.4 7.5 5.46 7.5 5.52 7.5 5.52 7.44 5.58 7.44 5.64 7.44 5.7 7.44 5.76 7.44"/><polyline class="cls-1" points="6.6 7.86 6.6 7.86 6.6 7.92 6.6 7.98 6.6 8.04 6.66 8.04 6.66 8.1 6.66 8.16 6.6 8.16 6.6 8.22 6.6 8.28 6.6 8.34 6.54 8.4 6.54 8.46 6.48 8.46 6.42 8.46 6.42 8.52 6.36 8.52 6.3 8.52 6.24 8.52 6.18 8.52 6.12 8.52 6.06 8.52 6.06 8.46 6 8.46 6 8.4 5.94 8.4 5.94 8.34 5.94 8.28 5.88 8.28 5.88 8.22 5.88 8.16 5.88 8.1 5.88 8.04 5.88 7.98 5.82 7.92 5.82 7.86 5.82 7.8 5.82 7.74 5.82 7.68 5.76 7.62 5.7 7.62 5.7 7.68 5.64 7.68 5.58 7.68 5.52 7.68 5.52 7.74 5.52 7.8 5.52 7.86 5.46 7.86 5.46 7.92 5.46 7.98 5.46 8.04 5.52 8.04 5.52 8.1 5.52 8.16 5.52 8.22 5.58 8.22 5.64 8.22 5.64 8.28 5.7 8.28"/><polyline class="cls-1" points="5.94 7.62 5.94 7.68 6 7.68 6 7.74 6 7.8 6 7.86 6 7.92 6.06 7.92 6.06 7.98 6.06 8.04 6.06 8.1 6.06 8.16 6.06 8.22 6.12 8.22 6.12 8.28 6.18 8.28 6.24 8.28 6.24 8.34 6.3 8.34 6.3 8.28 6.36 8.28 6.42 8.28 6.42 8.22 6.42 8.16 6.42 8.1 6.48 8.1 6.48 8.04 6.48 7.98 6.42 7.98 6.42 7.92 6.42 7.86 6.42 7.8 6.36 7.8 6.36 7.74 6.3 7.74 6.3 7.68 6.24 7.68 6.18 7.68 6.12 7.68 6.06 7.68 6.06 7.62"/><polyline class="cls-1" points="5.94 6.6 5.94 6.6 6 6.6 6.06 6.6 6.12 6.6 6.18 6.6 6.24 6.54 6.3 6.54 6.36 6.54 6.42 6.48 6.48 6.48 6.48 6.42 6.54 6.36 6.54 6.3 6.54 6.24 6.6 6.24 6.6 6.18 6.6 6.12 6.66 6.06 6.66 6 6.66 5.94 6.6 5.94 6.6 5.88 6.6 5.82 6.6 5.76 6.54 5.7 6.54 5.64 6.48 5.64 6.48 5.58 6.42 5.58 6.42 5.52 6.36 5.52 6.36 5.46 6.3 5.46 6.24 5.46 6.18 5.46 6.12 5.46 6.12 5.4 6.06 5.4 6 5.4 5.94 5.4 5.88 5.4 5.82 5.4 5.76 5.46 5.7 5.46 5.64 5.46 5.58 5.52 5.52 5.52 5.46 5.58 5.46 5.64 5.4 5.64 5.4 5.7 5.4 5.76 5.34 5.76 5.34 5.82 5.34 5.88 5.28 5.88 5.28 5.94 5.28 6 5.28 6.06 5.28 6.12 5.34 6.12 5.34 6.18 5.34 6.24 5.34 6.3 5.4 6.3 5.4 6.36 5.4 6.42 5.46 6.42 5.46 6.48 5.52 6.48 5.58 6.54 5.64 6.54 5.7 6.54 5.7 6.6 5.76 6.6 5.82 6.6 5.88 6.6 5.94 6.6"/><polyline class="cls-1" points="6.36 6.3 6.36 6.3 6.3 6.3 6.24 6.3 6.18 6.36 6.12 6.36 6.06 6.36 6 6.36 6 6.42 5.94 6.42 5.94 6.36 5.88 6.36 5.82 6.36 5.76 6.36 5.7 6.36 5.7 6.3 5.64 6.3 5.58 6.3 5.58 6.24 5.52 6.24 5.52 6.18 5.52 6.12 5.46 6.06 5.46 6 5.46 5.94 5.52 5.94 5.52 5.88 5.52 5.82 5.58 5.82 5.58 5.76 5.64 5.7 5.7 5.7 5.76 5.7 5.82 5.64 5.88 5.64 5.94 5.64 6 5.64 6.06 5.64 6.12 5.64 6.12 5.7 6.18 5.7 6.24 5.7 6.3 5.7 6.3 5.76 6.36 5.76 6.36 5.82 6.42 5.88 6.42 5.94 6.42 6 6.48 6 6.48 6.06 6.42 6.06 6.42 6.12 6.42 6.18 6.36 6.24 6.36 6.3"/><polyline class="cls-1" points="6.42 4.08 6.48 4.08 6.54 4.08 6.6 4.14 6.66 4.14 6.72 4.14 6.78 4.14 6.84 4.14 6.9 4.2 6.96 4.2 6.96 4.26 7.02 4.32 7.08 4.32 7.08 4.38 7.08 4.44 7.08 4.5 7.14 4.56 7.14 4.62 7.14 4.68 7.14 4.74 7.14 4.8 7.08 4.86 7.08 4.92 7.08 4.98 7.02 5.04 7.02 5.1 6.96 5.1 6.9 5.1 6.9 5.16 6.84 5.16 6.78 5.16 6.72 5.16 6.72 5.22"/><polyline class="cls-1" points="6.72 4.98 6.72 4.98 6.78 4.98 6.84 4.98 6.84 4.92 6.9 4.92 6.9 4.86 6.9 4.8 6.96 4.8 6.96 4.74 6.96 4.68 6.96 4.62 6.9 4.56 6.9 4.5 6.9 4.44 6.84 4.44 6.84 4.38 6.78 4.38 6.72 4.38 6.72 4.32 6.66 4.32 6.6 4.32 6.54 4.32 6.48 4.32 6.42 4.32 6.48 4.32 6.48 4.38 6.48 4.44 6.54 4.44 6.54 4.5 6.54 4.56 6.6 4.56 6.6 4.62 6.6 4.68 6.6 4.74 6.6 4.8 6.54 4.86 6.54 4.92 6.54 4.98 6.48 4.98 6.48 5.04 6.42 5.04 6.42 5.1 6.36 5.1 6.36 5.16 6.3 5.16 6.24 5.16 6.18 5.22 6.12 5.22 6.06 5.22 6 5.22 5.94 5.22 5.88 5.22 5.82 5.22 5.76 5.22 5.7 5.22 5.64 5.16 5.58 5.16 5.52 5.1 5.46 5.1 5.46 5.04 5.4 5.04 5.4 4.98 5.34 4.98 5.34 4.92 5.34 4.86 5.34 4.8 5.28 4.74 5.28 4.68 5.28 4.62 5.34 4.56 5.34 4.5 5.34 4.44 5.4 4.44 5.4 4.38 5.46 4.32"/><polyline class="cls-1" points="5.94 5.04 5.94 5.04 6 4.98 6.06 4.98 6.12 4.98 6.18 4.98 6.24 4.98 6.24 4.92 6.3 4.92 6.36 4.86 6.36 4.8 6.42 4.74 6.42 4.68 6.42 4.62 6.42 4.56 6.36 4.56 6.36 4.5 6.36 4.44 6.3 4.44 6.3 4.38 6.24 4.38 6.18 4.38 6.18 4.32 6.12 4.32 6.06 4.32 6 4.32 5.94 4.32 5.88 4.32 5.82 4.32 5.76 4.32 5.76 4.38 5.7 4.38 5.64 4.38 5.58 4.38 5.58 4.44 5.52 4.5 5.52 4.56 5.46 4.62 5.46 4.68 5.46 4.74 5.52 4.74 5.52 4.8 5.52 4.86 5.58 4.86 5.58 4.92 5.64 4.92 5.7 4.98 5.76 4.98 5.82 4.98 5.88 4.98 5.94 5.04"/><polyline class="cls-1" points="5.7 2.4 5.7 2.4 5.64 2.46 5.58 2.46 5.52 2.52 5.52 2.58 5.46 2.64 5.46 2.7 5.46 2.76 5.52 2.76 5.52 2.82 5.52 2.88 5.58 2.88 5.58 2.94 5.64 3 5.7 3 5.76 3 5.82 3.06 5.88 3.06 5.94 3.06 6 3.06 6.06 3.06 6.12 3.06 6.18 3 6.24 3 6.3 3 6.3 2.94 6.36 2.94 6.36 2.88 6.42 2.88 6.42 2.82 6.42 2.76 6.48 2.7 6.42 2.64 6.42 2.58 6.42 2.52 6.36 2.52 6.36 2.46 6.3 2.46 6.24 2.4 6.18 2.4 6.12 2.4"/><polyline class="cls-1" points="6.18 2.16 6.18 2.16 6.24 2.16 6.24 2.22 6.3 2.22 6.36 2.22 6.42 2.28 6.48 2.28 6.48 2.34 6.54 2.34 6.54 2.4 6.54 2.46 6.6 2.46 6.6 2.52 6.6 2.58 6.6 2.64 6.66 2.64 6.66 2.7 6.66 2.76 6.6 2.76 6.6 2.82 6.6 2.88 6.6 2.94 6.54 2.94 6.54 3 6.54 3.06 6.48 3.06 6.48 3.12 6.42 3.12 6.42 3.18 6.36 3.18 6.3 3.24 6.24 3.24 6.18 3.24 6.12 3.24 6.06 3.3 6 3.3 5.94 3.3 5.88 3.3 5.82 3.24 5.76 3.24 5.7 3.24 5.64 3.24 5.58 3.24 5.58 3.18 5.52 3.18 5.52 3.12 5.46 3.12 5.4 3.06 5.4 3 5.34 3 5.34 2.94 5.34 2.88 5.34 2.82 5.28 2.76 5.28 2.7 5.28 2.64 5.28 2.58 5.34 2.58 5.34 2.52 5.34 2.46 5.34 2.4 5.4 2.4 5.4 2.34 5.46 2.34 5.46 2.28 5.52 2.28 5.58 2.22 5.64 2.22 5.7 2.16"/></g></g></svg>