<svg xmlns="http://www.w3.org/2000/svg" viewBox="0 0 11.22 19.74"><defs><style>.cls-1,.cls-2{fill:none;stroke:#000;stroke-linecap:round;stroke-linejoin:round;}.cls-1{stroke-width:0.12px;}.cls-2{stroke-width:0.72px;}</style></defs><title>Risorsa 11</title><g id="Livello_2" data-name="Livello 2"><g id="Livello_1-2" data-name="Livello 1"><line class="cls-1" x1="1.62" y1="8.64" x2="8.52" y2="8.64"/><line class="cls-1" x1="9.54" y1="9.66" x2="1.56" y2="9.66"/><line class="cls-1" x1="1.56" y1="10.02" x2="9.54" y2="10.02"/><line class="cls-1" x1="1.62" y1="10.98" x2="8.52" y2="10.98"/><line class="cls-1" x1="9.72" y1="0.96" x2="1.5" y2="0.96"/><line class="cls-1" x1="9.72" y1="1.08" x2="1.5" y2="1.08"/><line class="cls-1" x1="10.2" y1="1.44" x2="10.08" y2="1.44"/><line class="cls-1" x1="1.08" y1="1.56" x2="1.14" y2="1.56"/><line class="cls-1" x1="1.62" y1="2.28" x2="8.52" y2="2.28"/><line class="cls-1" x1="1.14" y1="9.3" x2="1.26" y2="8.22"/><polyline class="cls-1" points="1.14 9.42 1.14 9.36 1.14 1.56"/><line class="cls-1" x1="1.14" y1="10.26" x2="1.14" y2="18.06"/><line class="cls-1" x1="1.26" y1="16.92" x2="1.26" y2="11.46"/><line class="cls-1" x1="1.26" y1="8.22" x2="1.26" y2="2.76"/><line class="cls-1" x1="1.26" y1="11.46" x2="1.14" y2="10.32"/><line class="cls-1" x1="1.56" y1="9.66" x2="1.62" y2="8.64"/><line class="cls-1" x1="1.26" y1="16.92" x2="1.14" y2="18.06"/><line class="cls-1" x1="1.5" y1="18.66" x2="1.5" y2="18.54"/><line class="cls-1" x1="1.5" y1="0.96" x2="1.5" y2="1.08"/><line class="cls-1" x1="1.62" y1="10.98" x2="1.56" y2="10.02"/><line class="cls-1" x1="1.14" y1="1.56" x2="1.26" y2="2.76"/><line class="cls-1" x1="1.62" y1="17.34" x2="1.5" y2="18.54"/><line class="cls-1" x1="1.5" y1="1.08" x2="1.62" y2="2.28"/><line class="cls-1" x1="9.72" y1="18.54" x2="8.52" y2="17.34"/><line class="cls-1" x1="8.52" y1="2.28" x2="9.72" y2="1.08"/><line class="cls-1" x1="10.08" y1="18.18" x2="8.88" y2="16.98"/><polyline class="cls-1" points="8.88 8.28 8.88 2.64 10.08 1.44"/><line class="cls-1" x1="8.88" y1="11.34" x2="8.88" y2="16.98"/><line class="cls-1" x1="8.52" y1="8.64" x2="9.54" y2="9.66"/><line class="cls-1" x1="8.88" y1="8.28" x2="9.84" y2="9.3"/><line class="cls-1" x1="9.54" y1="10.02" x2="8.52" y2="10.98"/><line class="cls-1" x1="9.84" y1="10.32" x2="8.88" y2="11.34"/><line class="cls-1" x1="9.72" y1="18.66" x2="9.72" y2="18.54"/><line class="cls-1" x1="9.72" y1="0.96" x2="9.72" y2="1.08"/><line class="cls-1" x1="10.08" y1="18.18" x2="10.08" y2="1.44"/><line class="cls-1" x1="10.2" y1="18.18" x2="10.2" y2="1.44"/><line class="cls-1" x1="8.52" y1="17.34" x2="1.62" y2="17.34"/><line class="cls-1" x1="1.08" y1="18.06" x2="1.14" y2="18.06"/><line class="cls-1" x1="10.2" y1="18.18" x2="10.08" y2="18.18"/><line class="cls-1" x1="1.5" y1="18.54" x2="9.72" y2="18.54"/><line class="cls-1" x1="1.5" y1="18.66" x2="9.72" y2="18.66"/><polyline class="cls-1" points="1.5 0.96 1.38 0.96 1.26 1.02 1.14 1.14 1.08 1.26"/><polyline class="cls-1" points="1.5 1.08 1.44 1.14 1.32 1.14 1.26 1.2 1.2 1.32 1.14 1.44 1.14 1.56"/><polyline class="cls-1" points="8.52 2.28 8.58 2.34 8.7 2.34 8.76 2.4 8.76 2.46 8.82 2.52 8.82 2.58 8.88 2.64"/><polyline class="cls-1" points="1.26 2.76 1.26 2.64 1.26 2.52 1.32 2.46 1.38 2.4 1.44 2.34 1.56 2.34 1.62 2.28"/><polyline class="cls-1" points="1.14 18.06 1.14 18.18 1.2 18.3 1.26 18.42 1.32 18.48 1.44 18.54 1.5 18.54"/><polyline class="cls-1" points="1.08 18.42 1.14 18.54 1.26 18.6 1.38 18.66 1.5 18.66"/><line class="cls-1" x1="1.14" y1="9.3" x2="1.14" y2="9.36"/><polyline class="cls-1" points="1.14 10.02 1.14 9.9 1.14 9.78 1.14 9.66 1.14 9.42"/><polyline class="cls-1" points="1.14 10.26 1.14 10.2 1.14 10.02"/><line class="cls-1" x1="1.14" y1="10.26" x2="1.14" y2="10.32"/><polyline class="cls-1" points="1.14 9.3 1.14 9.42 1.2 9.48 1.32 9.6 1.44 9.66 1.56 9.66"/><polyline class="cls-1" points="1.14 10.32 1.14 10.26 1.2 10.14 1.32 10.08 1.44 10.02 1.56 10.02"/><polyline class="cls-1" points="1.26 11.46 1.26 11.34 1.26 11.28 1.32 11.16 1.38 11.1 1.44 11.04 1.56 11.04 1.62 10.98"/><polyline class="cls-1" points="1.56 10.02 1.56 9.96 1.5 9.96"/><polyline class="cls-1" points="1.14 9.36 1.14 9.48 1.2 9.54 1.32 9.6 1.44 9.66 1.5 9.66"/><polyline class="cls-1" points="1.5 9.66 1.5 9.72 1.5 9.78 1.5 9.84 1.5 9.9 1.5 9.96"/><polyline class="cls-1" points="1.14 10.26 1.14 10.2 1.2 10.08 1.32 10.02 1.44 9.96 1.5 9.96"/><line class="cls-1" x1="1.5" y1="9.66" x2="1.56" y2="9.66"/><polyline class="cls-1" points="1.62 8.64 1.56 8.64 1.44 8.58 1.38 8.52 1.32 8.46 1.26 8.4 1.26 8.28 1.26 8.22"/><polyline class="cls-1" points="8.52 10.98 8.58 11.04 8.7 11.04 8.76 11.1 8.82 11.16 8.82 11.28 8.88 11.34"/><polyline class="cls-1" points="9.54 9.66 9.6 9.66 9.66 9.72 9.66 9.78 9.72 9.78 9.72 9.84 9.66 9.9 9.6 9.96 9.54 10.02"/><polyline class="cls-1" points="8.88 8.28 8.82 8.4 8.82 8.46 8.76 8.52 8.7 8.58 8.64 8.58 8.58 8.64 8.52 8.64"/><polyline class="cls-1" points="8.88 16.98 8.82 17.1 8.82 17.16 8.76 17.22 8.7 17.28 8.64 17.28 8.58 17.34 8.52 17.34"/><polyline class="cls-1" points="9.84 10.32 9.84 10.2 9.72 10.14 9.66 10.02 9.54 10.02"/><polyline class="cls-1" points="9.54 9.66 9.66 9.6 9.72 9.54 9.84 9.42 9.84 9.3 9.96 9.42 10.02 9.54 10.02 9.66 10.02 9.78 10.02 9.9 10.02 10.02 10.02 10.14 9.96 10.26 9.84 10.32"/><polyline class="cls-1" points="10.08 1.44 10.08 1.32 10.02 1.26 9.96 1.2 9.9 1.14 9.84 1.08 9.72 1.08"/><polyline class="cls-1" points="10.2 1.44 10.2 1.32 10.14 1.2 10.08 1.08 9.96 1.02 9.84 0.96 9.72 0.96"/><polyline class="cls-1" points="1.62 17.34 1.56 17.34 1.44 17.28 1.38 17.22 1.32 17.16 1.26 17.1 1.26 16.98 1.26 16.92"/><polyline class="cls-1" points="9.72 18.54 9.84 18.54 9.9 18.54 9.96 18.48 10.02 18.42 10.08 18.3 10.08 18.18"/><polyline class="cls-1" points="9.72 18.66 9.84 18.66 9.96 18.6 10.08 18.54 10.14 18.48 10.2 18.36 10.2 18.18"/><line class="cls-1" x1="1.08" y1="18.42" x2="1.08" y2="1.26"/><line class="cls-2" x1="10.86" y1="0.36" x2="10.86" y2="19.38"/><line class="cls-2" x1="0.36" y1="0.36" x2="0.36" y2="19.38"/><line class="cls-1" x1="3.36" y1="8.28" x2="5.16" y2="8.28"/><line class="cls-1" x1="2.82" y1="7.8" x2="3.36" y2="7.8"/><line class="cls-1" x1="5.16" y1="7.8" x2="5.58" y2="7.8"/><line class="cls-1" x1="5.58" y1="6.72" x2="6.18" y2="6.72"/><line class="cls-1" x1="6.18" y1="6.24" x2="6.78" y2="6.24"/><line class="cls-1" x1="6.78" y1="4.68" x2="6.18" y2="4.68"/><line class="cls-1" x1="6.18" y1="4.2" x2="5.58" y2="4.2"/><line class="cls-1" x1="5.58" y1="3.06" x2="5.16" y2="3.06"/><line class="cls-1" x1="3.36" y1="3.06" x2="2.82" y2="3.06"/><polyline class="cls-1" points="5.16 2.58 3.36 2.58 3.36 3.06"/><line class="cls-1" x1="3.36" y1="7.8" x2="3.36" y2="8.28"/><line class="cls-1" x1="5.16" y1="8.28" x2="5.16" y2="7.8"/><line class="cls-1" x1="5.16" y1="3.06" x2="5.16" y2="2.58"/><line class="cls-1" x1="5.58" y1="7.8" x2="5.58" y2="6.72"/><line class="cls-1" x1="5.58" y1="4.2" x2="5.58" y2="3.06"/><line class="cls-1" x1="6.18" y1="6.72" x2="6.18" y2="6.24"/><line class="cls-1" x1="6.18" y1="4.68" x2="6.18" y2="4.2"/><line class="cls-1" x1="6.78" y1="6.24" x2="6.78" y2="4.68"/><line class="cls-1" x1="2.82" y1="3.06" x2="2.82" y2="7.8"/></g></g></svg>