<svg xmlns="http://www.w3.org/2000/svg" viewBox="0 0 11.22 19.74"><defs><style>.cls-1,.cls-2{fill:none;stroke:#000;stroke-linecap:round;stroke-linejoin:round;}.cls-1{stroke-width:0.12px;}.cls-2{stroke-width:0.72px;}</style></defs><title>Risorsa 9</title><g id="Livello_2" data-name="Livello 2"><g id="Livello_1-2" data-name="Livello 1"><line class="cls-1" x1="9.3" y1="18.84" x2="1.86" y2="18.84"/><line class="cls-1" x1="1.86" y1="18.48" x2="9.3" y2="18.48"/><line class="cls-1" x1="9.96" y1="18.18" x2="9.6" y2="18.18"/><line class="cls-1" x1="1.2" y1="18.18" x2="1.56" y2="18.18"/><line class="cls-1" x1="3" y1="17.34" x2="8.16" y2="17.34"/><line class="cls-1" x1="2.7" y1="17.16" x2="2.7" y2="17.16"/><line class="cls-1" x1="3.36" y1="17.04" x2="5.16" y2="17.04"/><line class="cls-1" x1="2.82" y1="16.56" x2="3.36" y2="16.56"/><line class="cls-1" x1="5.16" y1="16.56" x2="5.58" y2="16.56"/><line class="cls-1" x1="5.58" y1="15.42" x2="6.18" y2="15.42"/><line class="cls-1" x1="6.18" y1="15" x2="6.72" y2="15"/><line class="cls-1" x1="6.72" y1="13.44" x2="6.18" y2="13.44"/><line class="cls-1" x1="6.18" y1="12.96" x2="5.58" y2="12.96"/><line class="cls-1" x1="5.58" y1="11.82" x2="5.16" y2="11.82"/><line class="cls-1" x1="3.36" y1="11.82" x2="2.82" y2="11.82"/><line class="cls-1" x1="5.16" y1="11.34" x2="3.36" y2="11.34"/><line class="cls-1" x1="2.7" y1="11.28" x2="2.7" y2="11.28"/><line class="cls-1" x1="8.16" y1="11.04" x2="3" y2="11.04"/><line class="cls-1" x1="9.18" y1="10.02" x2="1.98" y2="10.02"/><line class="cls-1" x1="1.98" y1="9.66" x2="9.18" y2="9.66"/><line class="cls-1" x1="2.7" y1="2.58" x2="2.94" y2="2.34"/><line class="cls-1" x1="8.16" y1="2.34" x2="9.3" y2="1.2"/><line class="cls-1" x1="2.7" y1="8.34" x2="1.68" y2="9.36"/><line class="cls-1" x1="8.46" y1="2.7" x2="9.6" y2="1.56"/><polyline class="cls-1" points="8.16 8.64 3 8.64 1.98 9.66"/><line class="cls-1" x1="2.7" y1="8.4" x2="2.7" y2="8.4"/><line class="cls-1" x1="2.7" y1="2.58" x2="2.7" y2="2.58"/><line class="cls-1" x1="8.16" y1="2.34" x2="3" y2="2.34"/><line class="cls-1" x1="2.94" y1="17.34" x2="2.7" y2="17.16"/><line class="cls-1" x1="9.3" y1="18.48" x2="8.16" y2="17.34"/><line class="cls-1" x1="1.68" y1="10.38" x2="2.7" y2="11.4"/><line class="cls-1" x1="9.6" y1="18.18" x2="8.46" y2="17.04"/><line class="cls-2" x1="0.36" y1="0.36" x2="0.36" y2="19.38"/><line class="cls-2" x1="0.48" y1="0.36" x2="0.48" y2="19.38"/><line class="cls-1" x1="1.2" y1="18.18" x2="1.2" y2="1.56"/><line class="cls-1" x1="1.56" y1="18.18" x2="1.56" y2="10.14"/><line class="cls-1" x1="1.56" y1="9.54" x2="1.56" y2="1.56"/><line class="cls-1" x1="1.86" y1="0.84" x2="1.86" y2="1.2"/><line class="cls-1" x1="1.86" y1="18.84" x2="1.86" y2="18.48"/><line class="cls-1" x1="2.7" y1="2.7" x2="2.7" y2="8.34"/><line class="cls-1" x1="2.7" y1="11.4" x2="2.7" y2="17.04"/><line class="cls-1" x1="2.82" y1="11.82" x2="2.82" y2="16.56"/><line class="cls-1" x1="3.36" y1="11.34" x2="3.36" y2="11.82"/><line class="cls-1" x1="3.36" y1="16.56" x2="3.36" y2="17.04"/><line class="cls-1" x1="5.16" y1="17.04" x2="5.16" y2="16.56"/><line class="cls-1" x1="5.16" y1="11.82" x2="5.16" y2="11.34"/><line class="cls-1" x1="5.58" y1="16.56" x2="5.58" y2="15.42"/><line class="cls-1" x1="5.58" y1="12.96" x2="5.58" y2="11.82"/><line class="cls-1" x1="6.18" y1="15.42" x2="6.18" y2="15"/><line class="cls-1" x1="6.18" y1="13.44" x2="6.18" y2="12.96"/><line class="cls-1" x1="2.7" y1="11.28" x2="2.94" y2="11.04"/><line class="cls-1" x1="9.18" y1="10.02" x2="8.16" y2="11.04"/><line class="cls-1" x1="1.56" y1="18.18" x2="2.7" y2="17.04"/><line class="cls-1" x1="9.48" y1="10.38" x2="8.46" y2="11.4"/><line class="cls-1" x1="1.86" y1="18.48" x2="3" y2="17.34"/><line class="cls-1" x1="9.96" y1="1.56" x2="9.6" y2="1.56"/><line class="cls-1" x1="1.2" y1="1.56" x2="1.56" y2="1.56"/><line class="cls-1" x1="9.3" y1="1.2" x2="1.86" y2="1.2"/><line class="cls-1" x1="1.86" y1="0.84" x2="9.3" y2="0.84"/><line class="cls-1" x1="1.98" y1="10.02" x2="3" y2="11.04"/><line class="cls-1" x1="8.16" y1="8.64" x2="9.18" y2="9.66"/><line class="cls-1" x1="2.7" y1="2.7" x2="1.56" y2="1.56"/><line class="cls-1" x1="8.46" y1="8.34" x2="9.48" y2="9.36"/><line class="cls-1" x1="3" y1="2.34" x2="1.86" y2="1.2"/><line class="cls-1" x1="6.72" y1="15" x2="6.72" y2="13.44"/><line class="cls-1" x1="8.46" y1="2.7" x2="8.46" y2="8.34"/><line class="cls-1" x1="8.46" y1="11.4" x2="8.46" y2="17.04"/><line class="cls-1" x1="9.3" y1="0.84" x2="9.3" y2="1.2"/><line class="cls-1" x1="9.3" y1="18.84" x2="9.3" y2="18.48"/><line class="cls-1" x1="9.6" y1="18.18" x2="9.6" y2="10.14"/><line class="cls-1" x1="9.6" y1="9.54" x2="9.6" y2="1.56"/><line class="cls-1" x1="9.96" y1="18.18" x2="9.96" y2="1.56"/><line class="cls-2" x1="10.74" y1="0.36" x2="10.74" y2="19.38"/><line class="cls-2" x1="10.86" y1="0.36" x2="10.86" y2="19.38"/><line class="cls-1" x1="3.36" y1="8.28" x2="5.16" y2="8.28"/><line class="cls-1" x1="2.82" y1="7.8" x2="3.36" y2="7.8"/><line class="cls-1" x1="5.16" y1="7.8" x2="5.58" y2="7.8"/><line class="cls-1" x1="5.58" y1="6.66" x2="6.18" y2="6.66"/><line class="cls-1" x1="6.18" y1="6.24" x2="6.72" y2="6.24"/><line class="cls-1" x1="6.72" y1="4.62" x2="6.18" y2="4.62"/><line class="cls-1" x1="6.18" y1="4.2" x2="5.58" y2="4.2"/><line class="cls-1" x1="5.58" y1="3.06" x2="5.16" y2="3.06"/><line class="cls-1" x1="3.36" y1="3.06" x2="2.82" y2="3.06"/><polyline class="cls-1" points="5.16 2.58 3.36 2.58 3.36 3.06"/><line class="cls-1" x1="3.36" y1="7.8" x2="3.36" y2="8.28"/><line class="cls-1" x1="5.16" y1="8.28" x2="5.16" y2="7.8"/><line class="cls-1" x1="5.16" y1="3.06" x2="5.16" y2="2.58"/><line class="cls-1" x1="5.58" y1="7.8" x2="5.58" y2="6.66"/><line class="cls-1" x1="5.58" y1="4.2" x2="5.58" y2="3.06"/><line class="cls-1" x1="6.18" y1="6.66" x2="6.18" y2="6.24"/><line class="cls-1" x1="6.18" y1="4.62" x2="6.18" y2="4.2"/><line class="cls-1" x1="6.72" y1="6.24" x2="6.72" y2="4.62"/><line class="cls-1" x1="2.82" y1="3.06" x2="2.82" y2="7.8"/><polyline class="cls-1" points="2.7 2.7 2.7 2.7 2.7 2.64 2.7 2.58 2.7 2.52 2.7 2.46 2.76 2.46 2.76 2.4 2.82 2.4 2.88 2.4 2.88 2.34 2.94 2.34 3 2.34"/><polyline class="cls-1" points="3 17.34 3 17.34 2.94 17.34 2.88 17.34 2.82 17.34 2.82 17.28 2.76 17.28 2.76 17.22 2.7 17.22 2.7 17.16 2.7 17.1 2.7 17.04"/><polyline class="cls-1" points="2.7 11.4 2.7 11.4 2.7 11.34 2.7 11.28 2.7 11.22 2.7 11.16 2.76 11.16 2.76 11.1 2.82 11.1 2.88 11.1 2.88 11.04 2.94 11.04 3 11.04"/><polyline class="cls-1" points="3 8.64 3 8.64 2.94 8.64 2.88 8.64 2.82 8.64 2.82 8.58 2.76 8.58 2.76 8.52 2.7 8.52 2.7 8.46 2.7 8.4 2.7 8.34"/><polyline class="cls-1" points="8.16 8.64 8.16 8.64 8.22 8.64 8.28 8.64 8.34 8.64 8.34 8.58 8.4 8.58 8.4 8.52 8.46 8.52 8.46 8.46 8.46 8.4 8.46 8.34"/><polyline class="cls-1" points="8.46 11.4 8.46 11.4 8.46 11.34 8.46 11.28 8.46 11.22 8.4 11.22 8.4 11.16 8.4 11.1 8.34 11.1 8.28 11.1 8.28 11.04 8.22 11.04 8.16 11.04"/><polyline class="cls-1" points="8.16 17.34 8.16 17.34 8.22 17.34 8.28 17.34 8.34 17.34 8.34 17.28 8.4 17.28 8.4 17.22 8.46 17.22 8.46 17.16 8.46 17.1 8.46 17.04"/><polyline class="cls-1" points="8.46 2.7 8.46 2.7 8.46 2.64 8.46 2.58 8.46 2.52 8.4 2.52 8.4 2.46 8.4 2.4 8.34 2.4 8.28 2.4 8.28 2.34 8.22 2.34 8.16 2.34"/><polyline class="cls-1" points="9.96 18.18 9.96 18.18 9.96 18.24 9.96 18.3 9.96 18.36 9.96 18.42 9.9 18.42 9.9 18.48 9.9 18.54 9.84 18.54 9.84 18.6 9.78 18.6 9.78 18.66 9.72 18.66 9.72 18.72 9.66 18.72 9.66 18.78 9.6 18.78 9.54 18.78 9.54 18.84 9.48 18.84 9.42 18.84 9.36 18.84 9.3 18.84"/><polyline class="cls-1" points="9.96 1.56 9.96 1.5 9.96 1.44 9.96 1.38 9.96 1.32 9.9 1.32 9.9 1.26 9.9 1.2 9.84 1.2 9.84 1.14 9.84 1.08 9.78 1.08 9.78 1.02 9.72 1.02 9.72 0.96 9.66 0.96 9.6 0.96 9.6 0.9 9.54 0.9 9.48 0.9 9.42 0.9 9.42 0.84 9.36 0.84 9.3 0.84"/><polyline class="cls-1" points="1.68 10.38 1.68 10.38 1.62 10.38 1.62 10.32 1.62 10.26 1.56 10.26 1.56 10.2 1.56 10.14"/><polyline class="cls-1" points="1.56 9.54 1.56 9.54 1.56 9.48 1.56 9.42 1.62 9.42 1.62 9.36 1.68 9.36"/><polyline class="cls-1" points="1.2 1.56 1.2 1.5 1.2 1.44 1.2 1.38 1.2 1.32 1.26 1.26 1.26 1.2 1.26 1.14 1.32 1.14 1.32 1.08 1.38 1.08 1.38 1.02 1.44 1.02 1.44 0.96 1.5 0.96 1.56 0.96 1.56 0.9 1.62 0.9 1.68 0.9 1.74 0.84 1.8 0.84 1.86 0.84"/><polyline class="cls-1" points="1.86 1.2 1.86 1.2 1.8 1.2 1.74 1.2 1.68 1.2 1.62 1.2 1.62 1.26 1.56 1.26 1.56 1.32 1.56 1.38 1.5 1.38 1.5 1.44 1.5 1.5 1.56 1.5 1.56 1.56"/><polyline class="cls-1" points="1.2 18.18 1.2 18.18 1.2 18.24 1.2 18.3 1.2 18.36 1.2 18.42 1.26 18.42 1.26 18.48 1.26 18.54 1.32 18.54 1.32 18.6 1.38 18.6 1.38 18.66 1.44 18.66 1.44 18.72 1.5 18.72 1.5 18.78 1.56 18.78 1.62 18.78 1.62 18.84 1.68 18.84 1.74 18.84 1.8 18.84 1.86 18.84"/><polyline class="cls-1" points="1.86 18.48 1.86 18.54 1.8 18.54 1.74 18.54 1.74 18.48 1.68 18.48 1.62 18.48 1.62 18.42 1.56 18.42 1.56 18.36 1.56 18.3 1.5 18.3 1.5 18.24 1.5 18.18 1.56 18.18"/><polyline class="cls-1" points="1.56 10.14 1.56 10.14 1.5 10.14 1.5 10.08 1.5 10.02 1.5 9.96 1.5 9.9 1.5 9.84 1.5 9.78 1.5 9.72 1.5 9.66 1.5 9.6 1.56 9.6 1.56 9.54"/><polyline class="cls-1" points="9.18 10.02 9.18 10.02 9.24 10.02 9.24 9.96 9.3 9.96 9.3 9.9 9.3 9.84 9.36 9.84 9.3 9.84 9.3 9.78 9.3 9.72 9.24 9.72 9.18 9.72 9.18 9.66"/><polyline class="cls-1" points="1.98 10.02 1.98 10.02 1.92 10.02 1.92 9.96 1.86 9.96"/><polyline class="cls-1" points="1.86 9.96 1.86 9.96 1.86 9.9 1.8 9.9 1.8 9.84 1.86 9.84 1.86 9.78"/><polyline class="cls-1" points="1.86 9.78 1.86 9.78 1.86 9.72 1.92 9.72 1.98 9.72 1.98 9.66"/><polyline class="cls-1" points="1.98 10.02 1.98 10.02 1.92 10.02 1.92 10.08 1.86 10.08 1.8 10.14 1.74 10.14 1.74 10.2 1.74 10.26 1.68 10.26 1.68 10.32 1.68 10.38"/><polyline class="cls-1" points="1.86 9.96 1.86 9.96 1.8 9.96 1.74 9.96 1.74 10.02 1.68 10.02 1.62 10.02 1.62 10.08 1.56 10.08 1.56 10.14"/><polyline class="cls-1" points="1.86 9.78 1.86 9.78 1.86 9.72 1.8 9.72 1.74 9.72 1.68 9.72 1.68 9.66 1.62 9.66 1.62 9.6 1.56 9.6 1.56 9.54"/><polyline class="cls-1" points="1.98 9.66 1.98 9.66 1.92 9.66 1.86 9.66 1.86 9.6 1.8 9.6 1.8 9.54 1.74 9.54 1.74 9.48 1.68 9.48 1.68 9.42 1.68 9.36"/><polyline class="cls-1" points="9.18 9.66 9.18 9.66 9.24 9.66 9.3 9.6 9.36 9.6 9.36 9.54 9.42 9.54 9.42 9.48 9.48 9.42 9.48 9.36"/><polyline class="cls-1" points="9.3 9.78 9.3 9.78 9.3 9.72 9.36 9.72 9.42 9.72 9.48 9.66 9.54 9.66 9.54 9.6 9.6 9.6 9.6 9.54"/><polyline class="cls-1" points="9.3 9.96 9.3 9.96 9.36 9.96 9.42 9.96 9.42 10.02 9.48 10.02 9.54 10.08 9.6 10.08 9.6 10.14"/><polyline class="cls-1" points="9.18 10.02 9.18 10.02 9.24 10.02 9.24 10.08 9.3 10.08 9.3 10.14 9.36 10.14 9.42 10.2 9.42 10.26 9.48 10.26 9.48 10.32 9.48 10.38"/><polyline class="cls-1" points="9.6 10.14 9.6 10.14 9.6 10.08 9.66 10.08 9.66 10.02 9.66 9.96 9.66 9.9 9.66 9.84 9.66 9.78 9.66 9.72 9.66 9.66 9.66 9.6 9.6 9.6 9.6 9.54"/><polyline class="cls-1" points="9.3 18.48 9.3 18.54 9.36 18.54 9.42 18.54 9.42 18.48 9.48 18.48 9.54 18.48 9.54 18.42 9.6 18.42 9.6 18.36 9.6 18.3 9.6 18.24 9.6 18.18"/><polyline class="cls-1" points="9.3 1.2 9.3 1.2 9.36 1.2 9.42 1.2 9.48 1.2 9.54 1.2 9.54 1.26 9.6 1.26 9.6 1.32 9.6 1.38 9.6 1.44 9.6 1.5 9.6 1.56"/><polyline class="cls-1" points="9.48 10.38 9.48 10.38 9.54 10.32 9.54 10.26 9.6 10.26 9.6 10.2 9.6 10.14"/><polyline class="cls-1" points="9.6 9.54 9.6 9.54 9.6 9.48 9.6 9.42 9.54 9.42 9.54 9.36 9.48 9.36"/></g></g></svg>