<svg xmlns="http://www.w3.org/2000/svg" viewBox="0 0 11.22 19.74"><defs><style>.cls-1{fill:none;stroke:#000;stroke-linecap:round;stroke-linejoin:round;stroke-width:0.72px;}</style></defs><title>Risorsa 5</title><g id="Livello_2" data-name="Livello 2"><g id="Livello_1-2" data-name="Livello 1"><line class="cls-1" x1="0.36" y1="19.38" x2="0.36" y2="0.36"/><line class="cls-1" x1="0.48" y1="0.36" x2="0.48" y2="19.38"/><line class="cls-1" x1="10.74" y1="19.38" x2="10.74" y2="0.36"/><line class="cls-1" x1="10.86" y1="0.36" x2="10.86" y2="19.38"/><line class="cls-1" x1="5.4" y1="7.08" x2="5.22" y2="7.26"/><line class="cls-1" x1="5.04" y1="10.8" x2="4.8" y2="10.98"/><line class="cls-1" x1="4.5" y1="11.1" x2="4.5" y2="7.02"/><line class="cls-1" x1="4.62" y1="11.1" x2="4.62" y2="7.02"/><line class="cls-1" x1="4.8" y1="7.08" x2="4.8" y2="10.98"/><line class="cls-1" x1="5.04" y1="10.8" x2="5.04" y2="7.26"/><line class="cls-1" x1="5.22" y1="7.26" x2="5.22" y2="10.8"/><line class="cls-1" x1="5.4" y1="10.98" x2="5.4" y2="7.08"/><line class="cls-1" x1="6.6" y1="7.02" x2="6.6" y2="11.1"/><line class="cls-1" x1="6.72" y1="7.02" x2="6.72" y2="11.1"/><line class="cls-1" x1="5.4" y1="10.98" x2="5.22" y2="10.8"/><line class="cls-1" x1="5.04" y1="7.26" x2="4.8" y2="7.08"/><line class="cls-1" x1="6.54" y1="11.28" x2="4.68" y2="11.28"/><line class="cls-1" x1="6.54" y1="11.16" x2="4.68" y2="11.16"/><line class="cls-1" x1="4.8" y1="10.98" x2="5.4" y2="10.98"/><line class="cls-1" x1="5.22" y1="10.8" x2="5.04" y2="10.8"/><line class="cls-1" x1="5.04" y1="7.26" x2="5.22" y2="7.26"/><line class="cls-1" x1="5.4" y1="7.08" x2="4.8" y2="7.08"/><line class="cls-1" x1="4.68" y1="6.9" x2="6.54" y2="6.9"/><line class="cls-1" x1="4.68" y1="6.84" x2="6.54" y2="6.84"/><polyline class="cls-1" points="6.6 11.1 6.6 11.16 6.54 11.16"/><polyline class="cls-1" points="6.6 7.02 6.6 6.96 6.54 6.9"/><polyline class="cls-1" points="4.62 7.02 4.62 6.96 4.68 6.96 4.68 6.9"/><polyline class="cls-1" points="4.68 11.16 4.62 11.16 4.62 11.1"/><polyline class="cls-1" points="4.5 7.02 4.5 6.96 4.56 6.9 4.56 6.84 4.62 6.84 4.68 6.84"/><polyline class="cls-1" points="4.68 11.28 4.62 11.28 4.62 11.22 4.56 11.22 4.56 11.16 4.5 11.16 4.5 11.1"/><polyline class="cls-1" points="6.72 11.1 6.72 11.16 6.66 11.22 6.6 11.28 6.54 11.28"/><polyline class="cls-1" points="6.72 7.02 6.72 6.96 6.72 6.9 6.66 6.9 6.66 6.84 6.6 6.84 6.54 6.84"/></g></g></svg>