<svg xmlns="http://www.w3.org/2000/svg" viewBox="0 0 11.22 19.74"><defs><style>.cls-1,.cls-2{fill:none;stroke:#000;stroke-linecap:round;stroke-linejoin:round;}.cls-1{stroke-width:0.72px;}.cls-2{stroke-width:0.12px;}</style></defs><title>Risorsa 3</title><g id="Livello_2" data-name="Livello 2"><g id="Livello_1-2" data-name="Livello 1"><line class="cls-1" x1="10.74" y1="19.38" x2="10.74" y2="0.36"/><line class="cls-1" x1="10.86" y1="0.36" x2="10.86" y2="19.38"/><line class="cls-1" x1="0.48" y1="19.38" x2="0.48" y2="0.36"/><line class="cls-1" x1="0.36" y1="0.36" x2="0.36" y2="19.38"/><line class="cls-2" x1="3.36" y1="3.66" x2="3.54" y2="3.84"/><line class="cls-2" x1="7.74" y1="4.08" x2="7.92" y2="4.26"/><line class="cls-2" x1="8.04" y1="4.56" x2="3.24" y2="4.56"/><line class="cls-2" x1="8.04" y1="4.44" x2="3.24" y2="4.44"/><line class="cls-2" x1="3.36" y1="4.26" x2="7.92" y2="4.26"/><line class="cls-2" x1="7.74" y1="4.08" x2="3.54" y2="4.08"/><line class="cls-2" x1="3.54" y1="3.84" x2="7.74" y2="3.84"/><line class="cls-2" x1="7.92" y1="3.66" x2="3.36" y2="3.66"/><line class="cls-2" x1="3.24" y1="2.46" x2="8.04" y2="2.46"/><line class="cls-2" x1="3.24" y1="2.34" x2="8.04" y2="2.34"/><line class="cls-2" x1="7.92" y1="3.66" x2="7.74" y2="3.84"/><line class="cls-2" x1="3.54" y1="4.08" x2="3.36" y2="4.26"/><line class="cls-2" x1="8.22" y1="2.58" x2="8.22" y2="4.38"/><line class="cls-2" x1="8.1" y1="2.52" x2="8.1" y2="4.38"/><line class="cls-2" x1="7.92" y1="4.26" x2="7.92" y2="3.66"/><line class="cls-2" x1="7.74" y1="3.84" x2="7.74" y2="4.08"/><line class="cls-2" x1="3.54" y1="4.08" x2="3.54" y2="3.84"/><line class="cls-2" x1="3.36" y1="3.66" x2="3.36" y2="4.26"/><line class="cls-2" x1="3.12" y1="4.38" x2="3.12" y2="2.52"/><line class="cls-2" x1="3" y1="4.38" x2="3" y2="2.58"/><path class="cls-2" d="M8.16,2.49a.09.09,0,0,0-.09-.09"/><path class="cls-2" d="M3.27,2.4a.09.09,0,0,0-.09.09"/><path class="cls-2" d="M3.18,4.35a.09.09,0,0,0,.09.09"/><path class="cls-2" d="M8.07,4.44a.09.09,0,0,0,.09-.09"/><path class="cls-2" d="M3.06,4.35a.21.21,0,0,0,.21.21"/><path class="cls-2" d="M8.07,4.56a.21.21,0,0,0,.21-.21"/><path class="cls-2" d="M8.28,2.55a.21.21,0,0,0-.21-.21"/><path class="cls-2" d="M3.27,2.34a.21.21,0,0,0-.21.21"/><line class="cls-2" x1="3.36" y1="16.5" x2="3.54" y2="16.74"/><line class="cls-2" x1="7.74" y1="16.92" x2="7.92" y2="17.1"/><line class="cls-2" x1="8.04" y1="17.46" x2="3.24" y2="17.46"/><line class="cls-2" x1="8.04" y1="17.34" x2="3.24" y2="17.34"/><line class="cls-2" x1="3.36" y1="17.1" x2="7.92" y2="17.1"/><line class="cls-2" x1="7.74" y1="16.92" x2="3.54" y2="16.92"/><line class="cls-2" x1="3.54" y1="16.74" x2="7.74" y2="16.74"/><line class="cls-2" x1="7.92" y1="16.5" x2="3.36" y2="16.5"/><line class="cls-2" x1="3.24" y1="15.3" x2="8.04" y2="15.3"/><line class="cls-2" x1="3.24" y1="15.24" x2="8.04" y2="15.24"/><line class="cls-2" x1="7.92" y1="16.5" x2="7.74" y2="16.74"/><line class="cls-2" x1="3.54" y1="16.92" x2="3.36" y2="17.1"/><line class="cls-2" x1="8.22" y1="15.42" x2="8.22" y2="17.22"/><line class="cls-2" x1="8.1" y1="15.42" x2="8.1" y2="17.22"/><line class="cls-2" x1="7.92" y1="17.1" x2="7.92" y2="16.5"/><line class="cls-2" x1="7.74" y1="16.74" x2="7.74" y2="16.92"/><line class="cls-2" x1="3.54" y1="16.92" x2="3.54" y2="16.74"/><line class="cls-2" x1="3.36" y1="16.5" x2="3.36" y2="17.1"/><line class="cls-2" x1="3.12" y1="17.22" x2="3.12" y2="15.42"/><line class="cls-2" x1="3" y1="17.22" x2="3" y2="15.42"/><path class="cls-2" d="M8.16,15.39a.09.09,0,0,0-.09-.09"/><path class="cls-2" d="M3.27,15.3a.09.09,0,0,0-.09.09"/><path class="cls-2" d="M3.18,17.19a.09.09,0,0,0,.09.09"/><path class="cls-2" d="M8.07,17.28a.09.09,0,0,0,.09-.09"/><path class="cls-2" d="M3.06,17.19a.21.21,0,0,0,.21.21"/><path class="cls-2" d="M8.07,17.4a.21.21,0,0,0,.21-.21"/><path class="cls-2" d="M8.28,15.39a.21.21,0,0,0-.21-.21"/><path class="cls-2" d="M3.27,15.18a.21.21,0,0,0-.21.21"/></g></g></svg>