<svg xmlns="http://www.w3.org/2000/svg" viewBox="0 0 21.72 19.74"><defs><style>.cls-1,.cls-2{fill:none;stroke:#000;stroke-linecap:round;stroke-linejoin:round;}.cls-1{stroke-width:0.15px;}.cls-2{stroke-width:0.72px;}</style></defs><title>Risorsa 2</title><g id="Livello_2" data-name="Livello 2"><g id="Livello_1-2" data-name="Livello 1"><line class="cls-1" x1="7.62" y1="7.5" x2="13.92" y2="7.5"/><line class="cls-1" x1="13.32" y1="7.86" x2="8.22" y2="7.86"/><line class="cls-1" x1="13.32" y1="7.92" x2="8.22" y2="7.92"/><line class="cls-1" x1="8.22" y1="7.98" x2="13.32" y2="7.98"/><line class="cls-1" x1="7.14" y1="9.12" x2="7.2" y2="9.12"/><line class="cls-1" x1="7.38" y1="10.68" x2="7.44" y2="10.68"/><line class="cls-1" x1="16.62" y1="9.54" x2="16.2" y2="9.54"/><line class="cls-1" x1="15.24" y1="9.54" x2="14.76" y2="9.54"/><line class="cls-1" x1="6.72" y1="9.54" x2="6.3" y2="9.54"/><line class="cls-1" x1="5.34" y1="9.54" x2="4.86" y2="9.54"/><line class="cls-1" x1="4.86" y1="9.9" x2="5.34" y2="9.9"/><line class="cls-1" x1="6.3" y1="9.9" x2="6.72" y2="9.9"/><line class="cls-1" x1="14.76" y1="9.9" x2="15.24" y2="9.9"/><line class="cls-1" x1="16.2" y1="9.9" x2="16.62" y2="9.9"/><line class="cls-1" x1="13.02" y1="11.4" x2="8.46" y2="11.4"/><line class="cls-1" x1="8.46" y1="11.52" x2="13.02" y2="11.52"/><line class="cls-1" x1="8.46" y1="11.58" x2="13.02" y2="11.58"/><line class="cls-1" x1="13.38" y1="11.94" x2="8.16" y2="11.94"/><line class="cls-1" x1="14.4" y1="9.12" x2="14.34" y2="9.12"/><line class="cls-1" x1="14.1" y1="10.68" x2="14.04" y2="10.68"/><line class="cls-1" x1="16.62" y1="9.18" x2="15.72" y2="8.64"/><line class="cls-1" x1="14.76" y1="10.26" x2="15.72" y2="10.8"/><line class="cls-1" x1="6.72" y1="9.18" x2="5.82" y2="8.64"/><line class="cls-1" x1="4.86" y1="10.26" x2="5.82" y2="10.8"/><line class="cls-1" x1="16.62" y1="10.26" x2="16.62" y2="9.18"/><line class="cls-1" x1="14.76" y1="9.18" x2="14.76" y2="10.26"/><line class="cls-1" x1="13.32" y1="7.86" x2="13.32" y2="7.92"/><line class="cls-1" x1="13.02" y1="11.58" x2="13.02" y2="11.52"/><line class="cls-1" x1="6.96" y1="8.22" x2="7.56" y2="11.4"/><line class="cls-1" x1="7.56" y1="10.62" x2="7.26" y2="9.12"/><line class="cls-1" x1="7.2" y1="9.12" x2="7.44" y2="10.68"/><line class="cls-1" x1="8.46" y1="11.58" x2="8.46" y2="11.52"/><line class="cls-1" x1="8.22" y1="7.86" x2="8.22" y2="7.92"/><line class="cls-1" x1="6.72" y1="10.26" x2="6.72" y2="9.18"/><line class="cls-1" x1="4.86" y1="9.18" x2="4.86" y2="10.26"/><line class="cls-1" x1="14.04" y1="10.68" x2="14.34" y2="9.12"/><line class="cls-1" x1="14.22" y1="9.12" x2="13.98" y2="10.62"/><line class="cls-1" x1="14.52" y1="8.22" x2="13.98" y2="11.4"/><line class="cls-1" x1="15.72" y1="10.8" x2="16.62" y2="10.26"/><line class="cls-1" x1="15.72" y1="8.64" x2="14.76" y2="9.18"/><line class="cls-1" x1="5.82" y1="10.8" x2="6.72" y2="10.26"/><line class="cls-1" x1="5.82" y1="8.64" x2="4.86" y2="9.18"/><path class="cls-1" d="M16.26,9.69a.51.51,0,1,0-.51.51.51.51,0,0,0,.51-.51"/><path class="cls-1" d="M14.84,9.89a.93.93,0,0,0,1.82,0"/><path class="cls-1" d="M16.66,9.49a.93.93,0,0,0-1.82,0"/><path class="cls-1" d="M6.36,9.69a.51.51,0,1,0-.51.51.51.51,0,0,0,.51-.51"/><path class="cls-1" d="M4.94,9.89a.93.93,0,0,0,1.82,0"/><path class="cls-1" d="M6.76,9.49a.93.93,0,0,0-1.82,0"/><path class="cls-1" d="M12.72,10.71a.21.21,0,1,0-.21.21.21.21,0,0,0,.21-.21"/><path class="cls-1" d="M12.24,9.69A.21.21,0,1,0,12,9.9a.21.21,0,0,0,.21-.21"/><path class="cls-1" d="M12.72,8.67a.21.21,0,1,0-.21.21.21.21,0,0,0,.21-.21"/><path class="cls-1" d="M11.82,10.71a.21.21,0,1,0-.21.21.21.21,0,0,0,.21-.21"/><path class="cls-1" d="M11.34,9.69a.21.21,0,1,0-.21.21.21.21,0,0,0,.21-.21"/><path class="cls-1" d="M11.82,8.67a.21.21,0,1,0-.21.21.21.21,0,0,0,.21-.21"/><path class="cls-1" d="M10.92,10.71a.21.21,0,1,0-.21.21.21.21,0,0,0,.21-.21"/><path class="cls-1" d="M10.44,9.69a.21.21,0,1,0-.21.21.21.21,0,0,0,.21-.21"/><path class="cls-1" d="M10.92,8.67a.21.21,0,1,0-.21.21.21.21,0,0,0,.21-.21"/><path class="cls-1" d="M10,10.71a.21.21,0,1,0-.21.21.21.21,0,0,0,.21-.21"/><path class="cls-1" d="M9.54,9.69a.21.21,0,1,0-.21.21.21.21,0,0,0,.21-.21"/><path class="cls-1" d="M10,8.67a.21.21,0,1,0-.21.21A.21.21,0,0,0,10,8.67"/><path class="cls-1" d="M9.06,10.71a.21.21,0,1,0-.21.21.21.21,0,0,0,.21-.21"/><path class="cls-1" d="M8.64,9.69a.21.21,0,1,0-.21.21.21.21,0,0,0,.21-.21"/><path class="cls-1" d="M9.06,8.67a.21.21,0,1,0-.21.21.21.21,0,0,0,.21-.21"/><path class="cls-1" d="M14.27,9.07A.93.93,0,0,0,13.35,8"/><path class="cls-1" d="M13.05,11.4a.93.93,0,0,0,.92-.77"/><path class="cls-1" d="M7.57,10.63a.93.93,0,0,0,.92.77"/><path class="cls-1" d="M8.25,8a.93.93,0,0,0-.92,1.09"/><path class="cls-1" d="M8.25,7.8A1.11,1.11,0,0,0,7.16,9.1"/><path class="cls-1" d="M7.43,10.79a1.11,1.11,0,0,0,1.06.79"/><path class="cls-1" d="M13.05,11.58a1.11,1.11,0,0,0,1.06-.79"/><path class="cls-1" d="M14.44,9.1a1.11,1.11,0,0,0-1.09-1.3"/><path class="cls-1" d="M7.45,10.65a1.05,1.05,0,0,0,1,.87"/><path class="cls-1" d="M13.05,11.52a1,1,0,0,0,1-.87"/><path class="cls-1" d="M14.39,9.09a1.05,1.05,0,0,0-1-1.23"/><path class="cls-1" d="M8.25,7.86a1.05,1.05,0,0,0-1,1.23"/><path class="cls-1" d="M13.41,11.94a.63.63,0,0,0,.62-.52"/><path class="cls-1" d="M14.57,8.18a.63.63,0,0,0-.62-.74"/><path class="cls-1" d="M7.57,11.42a.63.63,0,0,0,.62.52"/><path class="cls-1" d="M7.65,7.44A.63.63,0,0,0,7,8.18"/><polyline class="cls-2" points="21.36 19.38 21.36 0.36 21.36 19.38"/><line class="cls-2" x1="21.24" y1="19.38" x2="21.24" y2="0.36"/><line class="cls-2" x1="20.1" y1="3.78" x2="20.1" y2="16.02"/><polyline class="cls-2" points="19.98 3.78 19.98 16.02 19.98 3.78"/><line class="cls-2" x1="19.92" y1="3.78" x2="19.92" y2="15.96"/><line class="cls-2" x1="19.74" y1="15.96" x2="19.74" y2="3.78"/><line class="cls-2" x1="16.98" y1="19.14" x2="16.98" y2="18.96"/><line class="cls-2" x1="16.98" y1="0.66" x2="16.98" y2="0.78"/><line class="cls-2" x1="16.98" y1="1.02" x2="16.98" y2="0.84"/><line class="cls-2" x1="16.98" y1="18.72" x2="16.98" y2="18.96"/><line class="cls-2" x1="4.8" y1="1.02" x2="4.8" y2="0.84"/><line class="cls-2" x1="4.8" y1="18.72" x2="4.8" y2="18.96"/><line class="cls-2" x1="4.74" y1="19.14" x2="4.74" y2="18.96"/><line class="cls-2" x1="4.74" y1="0.66" x2="4.74" y2="0.78"/><line class="cls-2" x1="2.04" y1="15.96" x2="2.04" y2="3.78"/><polyline class="cls-2" points="1.8 16.02 1.8 3.78 1.8 15.96"/><line class="cls-2" x1="1.74" y1="3.78" x2="1.74" y2="16.02"/><line class="cls-2" x1="1.62" y1="16.02" x2="1.62" y2="3.78"/><line class="cls-2" x1="0.54" y1="0.36" x2="0.54" y2="19.38"/><line class="cls-2" x1="0.42" y1="19.38" x2="0.42" y2="0.36"/><line class="cls-2" x1="0.36" y1="19.38" x2="0.36" y2="0.36"/><line class="cls-2" x1="16.98" y1="0.66" x2="4.74" y2="0.66"/><polyline class="cls-2" points="4.74 0.78 16.98 0.78 4.74 0.78"/><line class="cls-2" x1="16.98" y1="0.84" x2="4.8" y2="0.84"/><line class="cls-2" x1="16.98" y1="1.02" x2="4.8" y2="1.02"/><line class="cls-2" x1="1.62" y1="3.78" x2="1.8" y2="3.78"/><line class="cls-2" x1="20.1" y1="3.78" x2="19.98" y2="3.78"/><line class="cls-2" x1="19.74" y1="3.78" x2="19.92" y2="3.78"/><line class="cls-2" x1="2.04" y1="3.78" x2="1.8" y2="3.78"/><line class="cls-2" x1="19.92" y1="6.36" x2="19.98" y2="6.36"/><line class="cls-2" x1="1.8" y1="6.36" x2="1.8" y2="6.36"/><line class="cls-2" x1="19.92" y1="13.38" x2="19.98" y2="13.38"/><line class="cls-2" x1="1.8" y1="13.38" x2="1.8" y2="13.38"/><line class="cls-2" x1="19.74" y1="15.96" x2="19.92" y2="15.96"/><line class="cls-2" x1="2.04" y1="15.96" x2="1.8" y2="15.96"/><line class="cls-2" x1="1.62" y1="16.02" x2="1.8" y2="16.02"/><line class="cls-2" x1="20.1" y1="16.02" x2="19.98" y2="16.02"/><line class="cls-2" x1="4.8" y1="18.72" x2="16.98" y2="18.72"/><polyline class="cls-2" points="4.74 18.96 16.98 18.96 4.8 18.96"/><line class="cls-2" x1="4.74" y1="19.02" x2="16.98" y2="19.02"/><line class="cls-2" x1="16.98" y1="19.14" x2="4.74" y2="19.14"/><path class="cls-2" d="M17,18.9a3,3,0,0,0,3-3"/><path class="cls-2" d="M20,3.75a3,3,0,0,0-3-3"/><path class="cls-2" d="M4.83.78a3,3,0,0,0-3,3"/><path class="cls-2" d="M1.86,15.93a3,3,0,0,0,3,3"/><path class="cls-2" d="M4.83,1A2.79,2.79,0,0,0,2,3.75"/><path class="cls-2" d="M19.8,3.75A2.79,2.79,0,0,0,17,1"/><path class="cls-2" d="M17,18.72a2.79,2.79,0,0,0,2.79-2.79"/><path class="cls-2" d="M2,15.93a2.79,2.79,0,0,0,2.79,2.79"/><path class="cls-2" d="M17,19a3,3,0,0,0,3-3"/><path class="cls-2" d="M4.77.78a3,3,0,0,0-3,3"/><path class="cls-2" d="M1.8,16a3,3,0,0,0,3,3"/><path class="cls-2" d="M20,3.75a3,3,0,0,0-3-3"/><path class="cls-2" d="M4.77.78a3,3,0,0,0-3,3"/><path class="cls-2" d="M17,19a3,3,0,0,0,3-3"/><path class="cls-2" d="M20,3.75a3,3,0,0,0-3-3"/><path class="cls-2" d="M1.8,16a3,3,0,0,0,3,3"/><path class="cls-2" d="M1.68,16a3.09,3.09,0,0,0,3.09,3.09"/><path class="cls-2" d="M17,19.08A3.09,3.09,0,0,0,20.1,16"/><path class="cls-2" d="M20.1,3.75A3.09,3.09,0,0,0,17,.66"/><path class="cls-2" d="M4.77.66A3.09,3.09,0,0,0,1.68,3.75"/></g></g></svg>