<svg xmlns="http://www.w3.org/2000/svg" viewBox="0 0 203.02 34.96"><defs><style>.cls-1{fill:none;stroke:#000;stroke-linecap:round;stroke-linejoin:round;}</style></defs><title>Risorsa 3</title><g id="Livello_2" data-name="Livello 2"><g id="Livello_1-2" data-name="Livello 1"><line class="cls-1" x1="9.2" y1="34.46" x2="9.2" y2="0.5"/><line class="cls-1" x1="3.2" y1="19.1" x2="3.8" y2="19.1"/><line class="cls-1" x1="3.8" y1="21.26" x2="1.04" y2="21.26"/><polyline class="cls-1" points="3.8 31.1 3.92 31.1 9.2 31.22"/><line class="cls-1" x1="3.92" y1="31.52" x2="9.2" y2="31.64"/><line class="cls-1" x1="9.2" y1="34.34" x2="3.92" y2="34.22"/><line class="cls-1" x1="9.2" y1="34.46" x2="3.92" y2="34.34"/><line class="cls-1" x1="0.5" y1="20.72" x2="1.04" y2="21.26"/><line class="cls-1" x1="3.92" y1="34.22" x2="3.92" y2="31.52"/><line class="cls-1" x1="0.5" y1="19.1" x2="0.5" y2="20.72"/><polyline class="cls-1" points="3.92 34.22 3.92 34.22 3.92 34.28 3.92 34.34 3.86 34.34 3.8 34.28 3.8 34.22"/><polyline class="cls-1" points="3.92 31.1 3.92 31.1 3.92 31.16 3.92 31.22 3.92 31.28 3.92 31.34 3.92 31.4 3.92 31.46 3.92 31.52"/><polyline class="cls-1" points="3.92 31.52 3.92 31.52 3.86 31.52 3.8 31.52 3.8 31.46 3.8 31.4"/><polyline class="cls-1" points="3.92 34.22 3.92 34.22 3.86 34.22 3.8 34.22 3.8 34.16 3.8 34.1"/><line class="cls-1" x1="3.2" y1="19.1" x2="3.2" y2="17.48"/><line class="cls-1" x1="3.8" y1="17.48" x2="3.8" y2="34.22"/><line class="cls-1" x1="3.92" y1="17.48" x2="3.92" y2="31.1"/><polyline class="cls-1" points="0.5 19.1 0.86 19.1 1.16 18.98 1.4 18.86 1.64 18.62 1.88 18.38 2 18.08 2.12 17.78 2.12 17.48"/><line class="cls-1" x1="3.2" y1="15.86" x2="3.8" y2="15.86"/><line class="cls-1" x1="3.8" y1="13.7" x2="1.04" y2="13.7"/><polyline class="cls-1" points="3.8 3.86 3.92 3.86 9.2 3.74"/><line class="cls-1" x1="3.92" y1="3.44" x2="9.2" y2="3.32"/><line class="cls-1" x1="9.2" y1="0.62" x2="3.92" y2="0.74"/><line class="cls-1" x1="9.2" y1="0.5" x2="3.92" y2="0.62"/><line class="cls-1" x1="0.5" y1="14.24" x2="1.04" y2="13.7"/><line class="cls-1" x1="3.92" y1="0.74" x2="3.92" y2="3.44"/><line class="cls-1" x1="0.5" y1="15.86" x2="0.5" y2="14.24"/><polyline class="cls-1" points="3.92 0.74 3.92 0.74 3.92 0.68 3.92 0.62 3.86 0.62 3.8 0.68 3.8 0.74"/><polyline class="cls-1" points="3.92 3.86 3.92 3.86 3.92 3.8 3.92 3.74 3.92 3.68 3.92 3.62 3.92 3.56 3.92 3.5 3.92 3.44"/><polyline class="cls-1" points="3.92 3.44 3.92 3.44 3.86 3.44 3.8 3.44 3.8 3.5 3.8 3.56"/><polyline class="cls-1" points="3.92 0.74 3.92 0.74 3.86 0.74 3.8 0.74 3.8 0.8 3.8 0.86"/><line class="cls-1" x1="3.2" y1="15.86" x2="3.2" y2="17.48"/><line class="cls-1" x1="3.8" y1="17.48" x2="3.8" y2="0.74"/><line class="cls-1" x1="3.92" y1="17.48" x2="3.92" y2="3.86"/><polyline class="cls-1" points="0.5 15.86 0.86 15.86 1.16 15.98 1.4 16.1 1.64 16.34 1.88 16.58 2 16.88 2.12 17.18 2.12 17.48"/><polyline class="cls-1" points="202.52 31.04 202.4 31.04 197.12 31.16"/><line class="cls-1" x1="202.4" y1="31.46" x2="197.12" y2="31.58"/><line class="cls-1" x1="197.12" y1="34.28" x2="202.4" y2="34.16"/><line class="cls-1" x1="197.12" y1="34.4" x2="202.4" y2="34.28"/><line class="cls-1" x1="202.4" y1="34.16" x2="202.4" y2="31.46"/><polyline class="cls-1" points="202.4 34.16 202.4 34.16 202.4 34.22 202.4 34.28 202.46 34.28 202.52 34.28 202.52 34.22 202.52 34.16"/><polyline class="cls-1" points="202.4 31.04 202.4 31.04 202.4 31.1 202.4 31.16 202.4 31.22 202.4 31.28 202.4 31.34 202.4 31.4 202.4 31.46"/><polyline class="cls-1" points="202.4 31.46 202.4 31.46 202.46 31.46 202.52 31.46 202.52 31.4 202.52 31.34"/><polyline class="cls-1" points="202.4 34.16 202.4 34.16 202.46 34.16 202.52 34.16 202.52 34.1 202.52 34.04"/><line class="cls-1" x1="202.52" y1="17.48" x2="202.52" y2="34.16"/><line class="cls-1" x1="202.4" y1="17.48" x2="202.4" y2="31.04"/><polyline class="cls-1" points="202.52 3.86 202.4 3.86 197.12 3.74"/><line class="cls-1" x1="202.4" y1="3.44" x2="197.12" y2="3.32"/><line class="cls-1" x1="197.12" y1="0.62" x2="202.4" y2="0.74"/><line class="cls-1" x1="197.12" y1="0.5" x2="202.4" y2="0.62"/><line class="cls-1" x1="202.4" y1="0.74" x2="202.4" y2="3.44"/><polyline class="cls-1" points="202.4 0.74 202.4 0.74 202.4 0.68 202.4 0.62 202.46 0.62 202.52 0.62 202.52 0.68 202.52 0.74"/><polyline class="cls-1" points="202.4 3.86 202.4 3.86 202.4 3.8 202.4 3.74 202.4 3.68 202.4 3.62 202.4 3.56 202.4 3.5 202.4 3.44"/><polyline class="cls-1" points="202.4 3.44 202.4 3.44 202.46 3.44 202.52 3.44 202.52 3.5 202.52 3.56"/><polyline class="cls-1" points="202.4 0.74 202.4 0.74 202.46 0.74 202.52 0.74 202.52 0.8 202.52 0.86"/><line class="cls-1" x1="202.52" y1="17.48" x2="202.52" y2="0.74"/><line class="cls-1" x1="202.4" y1="17.48" x2="202.4" y2="3.86"/><path class="cls-1" d="M9.2.2"/><path class="cls-1" d="M197.12.2"/><line class="cls-1" x1="196.94" y1="16.04" x2="196.94" y2="0.5"/><line class="cls-1" x1="9.2" y1="34.46" x2="197.12" y2="34.34"/><line class="cls-1" x1="197.12" y1="34.28" x2="9.2" y2="34.34"/><line class="cls-1" x1="9.2" y1="31.64" x2="197.12" y2="31.64"/><line class="cls-1" x1="9.2" y1="31.22" x2="197.12" y2="31.22"/><line class="cls-1" x1="9.2" y1="30.68" x2="197.12" y2="30.68"/><line class="cls-1" x1="9.2" y1="30.56" x2="197.12" y2="30.56"/><line class="cls-1" x1="9.2" y1="4.4" x2="196.94" y2="4.4"/><line class="cls-1" x1="9.2" y1="4.22" x2="196.94" y2="4.22"/><line class="cls-1" x1="9.2" y1="3.74" x2="196.94" y2="3.74"/><line class="cls-1" x1="9.2" y1="3.32" x2="196.94" y2="3.32"/><line class="cls-1" x1="197.12" y1="0.62" x2="9.2" y2="0.62"/><polyline class="cls-1" points="197.12 34.4 197.12 0.5 9.2 0.5"/></g></g></svg>