<svg xmlns="http://www.w3.org/2000/svg" viewBox="0 0 21.66 19.74"><defs><style>.cls-1{fill:none;stroke:#000;stroke-linecap:round;stroke-linejoin:round;stroke-width:0.72px;}</style></defs><title>Risorsa 6</title><g id="Livello_2" data-name="Livello 2"><g id="Livello_1-2" data-name="Livello 1"><path class="cls-1" d="M18.9,9.87a8,8,0,1,0-8,8,8,8,0,0,0,8-8"/><path class="cls-1" d="M18.72,9.87a7.83,7.83,0,1,0-7.83,7.83,7.83,7.83,0,0,0,7.83-7.83"/><polyline class="cls-1" points="11.4 8.52 10.68 8.52 10.68 5.1 11.4 5.1 11.4 8.52"/><polyline class="cls-1" points="9.6 13.2 9.06 13.62 6.9 10.98 7.5 10.56 9.6 13.2"/><polyline class="cls-1" points="12.36 13.2 12.9 13.62 15.06 10.98 14.52 10.56 12.36 13.2"/><polyline class="cls-1" points="21.3 19.38 21.3 0.36 21.3 19.38"/><line class="cls-1" x1="21.18" y1="19.38" x2="21.18" y2="0.36"/><line class="cls-1" x1="20.1" y1="3.78" x2="20.1" y2="16.02"/><line class="cls-1" x1="19.98" y1="16.02" x2="19.98" y2="3.78"/><polyline class="cls-1" points="19.92 16.02 19.92 3.78 19.92 15.96"/><line class="cls-1" x1="19.68" y1="15.96" x2="19.68" y2="3.78"/><line class="cls-1" x1="16.98" y1="19.14" x2="16.98" y2="18.96"/><line class="cls-1" x1="16.98" y1="0.66" x2="16.98" y2="0.78"/><line class="cls-1" x1="16.92" y1="1.02" x2="16.92" y2="0.84"/><line class="cls-1" x1="16.92" y1="18.72" x2="16.92" y2="18.96"/><line class="cls-1" x1="4.74" y1="1.02" x2="4.74" y2="0.84"/><polyline class="cls-1" points="4.74 18.72 4.74 18.96 4.74 19.14"/><line class="cls-1" x1="4.74" y1="0.66" x2="4.74" y2="0.78"/><line class="cls-1" x1="1.98" y1="15.96" x2="1.98" y2="3.78"/><line class="cls-1" x1="1.8" y1="3.78" x2="1.8" y2="15.96"/><polyline class="cls-1" points="1.74 16.02 1.74 3.78 1.74 16.02"/><line class="cls-1" x1="1.62" y1="16.02" x2="1.62" y2="3.78"/><line class="cls-1" x1="0.48" y1="0.36" x2="0.48" y2="19.38"/><polyline class="cls-1" points="0.36 0.36 0.36 19.38 0.36 0.36"/><line class="cls-1" x1="16.98" y1="0.66" x2="4.74" y2="0.66"/><polyline class="cls-1" points="4.74 0.78 16.98 0.78 4.74 0.78"/><line class="cls-1" x1="16.92" y1="0.84" x2="4.74" y2="0.84"/><line class="cls-1" x1="16.92" y1="1.02" x2="4.74" y2="1.02"/><line class="cls-1" x1="1.62" y1="3.78" x2="1.74" y2="3.78"/><polyline class="cls-1" points="20.1 3.78 19.92 3.78 19.68 3.78"/><line class="cls-1" x1="1.98" y1="3.78" x2="1.8" y2="3.78"/><line class="cls-1" x1="19.92" y1="6.36" x2="19.92" y2="6.36"/><line class="cls-1" x1="1.8" y1="6.36" x2="1.74" y2="6.36"/><line class="cls-1" x1="19.92" y1="13.38" x2="19.92" y2="13.38"/><line class="cls-1" x1="1.8" y1="13.38" x2="1.74" y2="13.38"/><line class="cls-1" x1="19.68" y1="15.96" x2="19.92" y2="15.96"/><line class="cls-1" x1="1.98" y1="15.96" x2="1.8" y2="15.96"/><line class="cls-1" x1="1.62" y1="16.02" x2="1.74" y2="16.02"/><line class="cls-1" x1="20.1" y1="16.02" x2="19.92" y2="16.02"/><line class="cls-1" x1="4.74" y1="18.72" x2="16.92" y2="18.72"/><polyline class="cls-1" points="16.92 18.96 4.74 18.96 16.98 18.96"/><line class="cls-1" x1="4.74" y1="19.02" x2="16.98" y2="19.02"/><line class="cls-1" x1="16.98" y1="19.14" x2="4.74" y2="19.14"/><path class="cls-1" d="M16.95,18.9a3,3,0,0,0,3-3"/><path class="cls-1" d="M19.92,3.75a3,3,0,0,0-3-3"/><path class="cls-1" d="M4.77.78a3,3,0,0,0-3,3"/><path class="cls-1" d="M1.8,15.93a3,3,0,0,0,3,3"/><path class="cls-1" d="M4.77,1A2.79,2.79,0,0,0,2,3.75"/><path class="cls-1" d="M19.74,3.75A2.79,2.79,0,0,0,16.95,1"/><path class="cls-1" d="M16.95,18.72a2.79,2.79,0,0,0,2.79-2.79"/><path class="cls-1" d="M2,15.93a2.79,2.79,0,0,0,2.79,2.79"/><path class="cls-1" d="M17,19a3,3,0,0,0,3-3"/><path class="cls-1" d="M4.77.78a3,3,0,0,0-3,3"/><path class="cls-1" d="M1.8,16a3,3,0,0,0,3,3"/><path class="cls-1" d="M20,3.75a3,3,0,0,0-3-3"/><path class="cls-1" d="M4.77.78a3,3,0,0,0-3,3"/><path class="cls-1" d="M17,19a3,3,0,0,0,3-3"/><path class="cls-1" d="M20,3.75a3,3,0,0,0-3-3"/><path class="cls-1" d="M1.8,16a3,3,0,0,0,3,3"/><path class="cls-1" d="M1.68,16a3.09,3.09,0,0,0,3.09,3.09"/><path class="cls-1" d="M17,19.08A3.09,3.09,0,0,0,20.1,16"/><path class="cls-1" d="M20.1,3.75A3.09,3.09,0,0,0,17,.66"/><path class="cls-1" d="M4.77.66A3.09,3.09,0,0,0,1.68,3.75"/></g></g></svg>