<svg xmlns="http://www.w3.org/2000/svg" viewBox="0 0 11.22 19.74"><defs><style>.cls-1{fill:none;stroke:#000;stroke-linecap:round;stroke-linejoin:round;stroke-width:0.72px;}</style></defs><title>Risorsa 8</title><g id="Livello_2" data-name="Livello 2"><g id="Livello_1-2" data-name="Livello 1"><path class="cls-1" d="M6.66,9.69a1,1,0,1,0-1,1.05,1,1,0,0,0,1-1.05"/><path class="cls-1" d="M5,5.44a.81.81,0,1,0,1.22,0"/><path class="cls-1" d="M6.22,13.94a.81.81,0,1,0-1.22,0"/><path class="cls-1" d="M6.24,5.43A1,1,0,1,0,5,5.43"/><path class="cls-1" d="M5,13.95a1,1,0,1,0,1.26,0"/><line class="cls-1" x1="0.48" y1="0.36" x2="0.48" y2="19.38"/><line class="cls-1" x1="0.36" y1="19.38" x2="0.36" y2="0.36"/><line class="cls-1" x1="9.72" y1="3.66" x2="9.72" y2="15.9"/><polyline class="cls-1" points="9.66 3.66 9.66 15.9 9.66 3.66"/><line class="cls-1" x1="9.66" y1="3.72" x2="9.66" y2="15.9"/><line class="cls-1" x1="9.54" y1="15.9" x2="9.54" y2="3.72"/><line class="cls-1" x1="8.34" y1="19.02" x2="8.34" y2="18.9"/><polyline class="cls-1" points="8.34 0.54 8.34 0.72 8.34 0.96"/><line class="cls-1" x1="8.34" y1="18.66" x2="8.34" y2="18.84"/><line class="cls-1" x1="2.88" y1="0.96" x2="2.88" y2="0.72"/><line class="cls-1" x1="2.88" y1="18.66" x2="2.88" y2="18.84"/><line class="cls-1" x1="2.88" y1="19.02" x2="2.88" y2="18.9"/><line class="cls-1" x1="2.88" y1="0.54" x2="2.88" y2="0.72"/><line class="cls-1" x1="1.62" y1="15.9" x2="1.62" y2="3.72"/><polyline class="cls-1" points="1.56 3.72 1.56 15.9 1.56 3.66 1.56 15.9"/><line class="cls-1" x1="1.5" y1="15.9" x2="1.5" y2="3.66"/><line class="cls-1" x1="8.34" y1="0.54" x2="2.88" y2="0.54"/><line class="cls-1" x1="2.88" y1="0.66" x2="8.34" y2="0.66"/><polyline class="cls-1" points="2.88 0.72 8.34 0.72 2.88 0.72"/><line class="cls-1" x1="8.34" y1="0.96" x2="2.88" y2="0.96"/><line class="cls-1" x1="1.5" y1="3.66" x2="1.56" y2="3.66"/><line class="cls-1" x1="9.72" y1="3.66" x2="9.66" y2="3.66"/><line class="cls-1" x1="9.54" y1="3.72" x2="9.66" y2="3.72"/><line class="cls-1" x1="1.62" y1="3.72" x2="1.56" y2="3.72"/><line class="cls-1" x1="9.66" y1="6.24" x2="9.66" y2="6.24"/><line class="cls-1" x1="1.56" y1="6.24" x2="1.56" y2="6.24"/><line class="cls-1" x1="9.66" y1="13.32" x2="9.66" y2="13.32"/><line class="cls-1" x1="1.56" y1="13.32" x2="1.56" y2="13.32"/><line class="cls-1" x1="9.54" y1="15.9" x2="9.66" y2="15.9"/><polyline class="cls-1" points="1.62 15.9 1.56 15.9 1.5 15.9"/><line class="cls-1" x1="9.72" y1="15.9" x2="9.66" y2="15.9"/><line class="cls-1" x1="2.88" y1="18.66" x2="8.34" y2="18.66"/><line class="cls-1" x1="8.34" y1="18.84" x2="2.88" y2="18.84"/><polyline class="cls-1" points="8.34 18.9 2.88 18.9 8.34 18.9"/><line class="cls-1" x1="8.34" y1="19.02" x2="2.88" y2="19.02"/><polyline class="cls-1" points="8.34 18.84 8.52 18.78 8.76 18.66 9 18.42 9.18 18.18 9.36 17.76 9.48 17.34 9.54 16.92 9.6 16.38 9.66 15.9"/><polyline class="cls-1" points="9.66 3.72 9.6 3.18 9.54 2.7 9.48 2.22 9.36 1.8 9.18 1.44 9 1.14 8.76 0.9 8.52 0.78 8.34 0.72"/><polyline class="cls-1" points="2.88 0.72 2.64 0.78 2.4 0.96 2.16 1.26 1.92 1.62 1.8 2.04 1.68 2.58 1.56 3.12 1.56 3.72"/><polyline class="cls-1" points="1.56 15.9 1.56 16.38 1.62 16.92 1.74 17.34 1.86 17.76 2.04 18.18 2.22 18.42 2.4 18.66 2.64 18.78 2.88 18.84"/><polyline class="cls-1" points="2.88 0.96 2.64 0.96 2.4 1.14 2.22 1.38 1.98 1.74 1.86 2.16 1.74 2.64 1.68 3.18 1.62 3.72"/><polyline class="cls-1" points="9.54 3.72 9.54 3.24 9.48 2.76 9.36 2.34 9.24 1.92 9.12 1.56 8.94 1.32 8.76 1.08 8.52 0.96 8.34 0.96"/><polyline class="cls-1" points="8.34 18.66 8.52 18.6 8.76 18.48 8.94 18.3 9.12 18 9.24 17.64 9.36 17.28 9.48 16.8 9.54 16.38 9.54 15.9"/><polyline class="cls-1" points="1.62 15.9 1.68 16.38 1.74 16.8 1.8 17.28 1.92 17.64 2.1 18 2.28 18.3 2.46 18.48 2.64 18.6 2.88 18.66"/><polyline class="cls-1" points="8.34 18.9 8.58 18.84 8.76 18.72 9 18.48 9.18 18.18 9.36 17.82 9.48 17.4 9.6 16.92 9.66 16.44 9.66 15.9"/><polyline class="cls-1" points="1.56 15.9 1.56 16.44 1.62 16.92 1.74 17.4 1.86 17.82 2.04 18.18 2.22 18.48 2.4 18.72 2.64 18.84 2.88 18.9"/><polyline class="cls-1" points="9.66 3.66 9.66 3.12 9.6 2.64 9.48 2.16 9.36 1.74 9.18 1.38 9 1.08 8.76 0.9 8.58 0.72 8.34 0.72"/><polyline class="cls-1" points="2.88 0.72 2.58 0.78 2.34 0.9 2.1 1.2 1.92 1.56 1.74 2.04 1.62 2.52 1.56 3.06 1.56 3.66"/><polyline class="cls-1" points="2.88 0.54 2.58 0.6 2.34 0.78 2.1 1.08 1.86 1.44 1.74 1.92 1.56 2.46 1.5 3.06 1.5 3.66"/><polyline class="cls-1" points="9.72 3.66 9.72 3.12 9.66 2.58 9.54 2.1 9.42 1.68 9.24 1.26 9 0.96 8.82 0.72 8.58 0.6 8.34 0.54"/><polyline class="cls-1" points="1.56 15.9 1.56 16.44 1.62 16.92 1.74 17.4 1.86 17.82 1.98 18.18 2.22 18.48 2.4 18.72 2.64 18.84 2.88 18.9"/><polyline class="cls-1" points="9.66 3.66 9.66 3.12 9.6 2.64 9.48 2.16 9.36 1.74 9.18 1.38 9 1.08 8.82 0.84 8.58 0.72 8.34 0.66"/><polyline class="cls-1" points="8.34 18.9 8.58 18.84 8.82 18.72 9 18.48 9.18 18.18 9.36 17.82 9.48 17.4 9.6 16.92 9.66 16.44 9.66 15.9"/><polyline class="cls-1" points="8.34 19.02 8.58 18.96 8.82 18.84 9 18.6 9.24 18.3 9.42 17.94 9.54 17.46 9.66 16.98 9.72 16.44 9.72 15.9"/><polyline class="cls-1" points="2.88 0.66 2.58 0.72 2.34 0.9 2.1 1.2 1.92 1.56 1.74 1.98 1.62 2.52 1.56 3.06 1.56 3.66"/><polyline class="cls-1" points="1.5 15.9 1.5 16.44 1.56 16.98 1.68 17.46 1.8 17.94 1.98 18.3 2.16 18.6 2.4 18.84 2.64 18.96 2.88 19.02"/><line class="cls-1" x1="10.74" y1="0.36" x2="10.74" y2="19.38"/><line class="cls-1" x1="10.86" y1="19.38" x2="10.86" y2="0.36"/></g></g></svg>