<svg xmlns="http://www.w3.org/2000/svg" viewBox="0 0 21.66 19.74"><defs><style>.cls-1,.cls-2{fill:none;stroke:#000;}.cls-1{stroke-linecap:round;stroke-linejoin:round;stroke-width:0.72px;}.cls-2{stroke-miterlimit:10;stroke-width:0.09px;}</style></defs><title>Risorsa 1</title><g id="Livello_2" data-name="Livello 2"><g id="Livello_1-2" data-name="Livello 1"><polyline class="cls-1" points="21.3 19.38 21.3 0.36 21.3 19.38"/><line class="cls-1" x1="21.18" y1="19.38" x2="21.18" y2="0.36"/><line class="cls-1" x1="20.1" y1="3.72" x2="20.1" y2="15.96"/><line class="cls-1" x1="19.98" y1="15.96" x2="19.98" y2="3.72"/><polyline class="cls-1" points="19.92 3.78 19.92 15.96 19.92 3.72"/><line class="cls-1" x1="19.68" y1="15.96" x2="19.68" y2="3.78"/><line class="cls-1" x1="16.98" y1="19.08" x2="16.98" y2="18.96"/><line class="cls-1" x1="16.98" y1="0.6" x2="16.98" y2="0.72"/><line class="cls-1" x1="16.92" y1="0.96" x2="16.92" y2="0.78"/><line class="cls-1" x1="16.92" y1="18.72" x2="16.92" y2="18.9"/><line class="cls-1" x1="4.74" y1="0.96" x2="4.74" y2="0.78"/><line class="cls-1" x1="4.74" y1="18.72" x2="4.74" y2="18.9"/><line class="cls-1" x1="4.74" y1="19.08" x2="4.74" y2="18.96"/><line class="cls-1" x1="4.74" y1="0.6" x2="4.74" y2="0.72"/><line class="cls-1" x1="1.98" y1="15.96" x2="1.98" y2="3.78"/><line class="cls-1" x1="1.8" y1="3.78" x2="1.8" y2="15.96"/><polyline class="cls-1" points="1.74 15.96 1.74 3.72 1.74 15.96"/><line class="cls-1" x1="1.62" y1="15.96" x2="1.62" y2="3.72"/><line class="cls-1" x1="0.48" y1="0.36" x2="0.48" y2="19.38"/><polyline class="cls-1" points="0.36 0.36 0.36 19.38 0.36 0.36"/><line class="cls-1" x1="16.98" y1="0.6" x2="4.74" y2="0.6"/><polyline class="cls-1" points="4.74 0.72 16.98 0.72 4.74 0.72"/><line class="cls-1" x1="16.92" y1="0.78" x2="4.74" y2="0.78"/><line class="cls-1" x1="16.92" y1="0.96" x2="4.74" y2="0.96"/><line class="cls-1" x1="1.62" y1="3.72" x2="1.74" y2="3.72"/><line class="cls-1" x1="20.1" y1="3.72" x2="19.92" y2="3.72"/><line class="cls-1" x1="19.68" y1="3.78" x2="19.92" y2="3.78"/><line class="cls-1" x1="1.98" y1="3.78" x2="1.8" y2="3.78"/><line class="cls-1" x1="19.92" y1="6.3" x2="19.92" y2="6.3"/><line class="cls-1" x1="1.8" y1="6.3" x2="1.74" y2="6.3"/><line class="cls-1" x1="19.92" y1="13.38" x2="19.92" y2="13.38"/><line class="cls-1" x1="1.8" y1="13.38" x2="1.74" y2="13.38"/><line class="cls-1" x1="19.68" y1="15.96" x2="19.92" y2="15.96"/><line class="cls-1" x1="1.98" y1="15.96" x2="1.8" y2="15.96"/><line class="cls-1" x1="1.62" y1="15.96" x2="1.74" y2="15.96"/><line class="cls-1" x1="20.1" y1="15.96" x2="19.92" y2="15.96"/><line class="cls-1" x1="4.74" y1="18.72" x2="16.92" y2="18.72"/><line class="cls-1" x1="16.92" y1="18.9" x2="4.74" y2="18.9"/><polyline class="cls-1" points="16.98 18.96 4.74 18.96 16.98 18.96"/><line class="cls-1" x1="16.98" y1="19.08" x2="4.74" y2="19.08"/><path class="cls-1" d="M16.95,18.9a3,3,0,0,0,3-3"/><path class="cls-1" d="M18.48,9.81a7.59,7.59,0,1,0-7.59,7.59,7.59,7.59,0,0,0,7.59-7.59"/><path class="cls-1" d="M19.92,3.75a3,3,0,0,0-3-3"/><path class="cls-1" d="M4.77.78a3,3,0,0,0-3,3"/><path class="cls-1" d="M1.8,15.93a3,3,0,0,0,3,3"/><path class="cls-1" d="M7.8,9.81a.93.93,0,1,0-.93.93.93.93,0,0,0,.93-.93"/><path class="cls-1" d="M15.78,9.81a.93.93,0,1,0-.93.93.93.93,0,0,0,.93-.93"/><path class="cls-1" d="M4.77,1A2.79,2.79,0,0,0,2,3.75"/><path class="cls-1" d="M19.74,3.75A2.79,2.79,0,0,0,16.95,1"/><path class="cls-1" d="M16.95,18.72a2.79,2.79,0,0,0,2.79-2.79"/><path class="cls-1" d="M18.72,9.81a7.83,7.83,0,1,0-7.83,7.83,7.83,7.83,0,0,0,7.83-7.83"/><path class="cls-1" d="M2,15.93a2.79,2.79,0,0,0,2.79,2.79"/><path class="cls-1" d="M17,18.9a3,3,0,0,0,3-3"/><path class="cls-1" d="M4.77.72a3,3,0,0,0-3,3"/><path class="cls-1" d="M1.8,15.93a3,3,0,0,0,3,3"/><path class="cls-1" d="M20,3.69a3,3,0,0,0-3-3"/><path class="cls-1" d="M4.77.72a3,3,0,0,0-3,3"/><path class="cls-1" d="M17,18.9a3,3,0,0,0,3-3"/><path class="cls-1" d="M20,3.69a3,3,0,0,0-3-3"/><path class="cls-1" d="M1.8,15.93a3,3,0,0,0,3,3"/><path class="cls-1" d="M1.68,15.93A3.09,3.09,0,0,0,4.77,19"/><path class="cls-1" d="M17,19a3.09,3.09,0,0,0,3.09-3.09"/><path class="cls-1" d="M20.1,3.69A3.09,3.09,0,0,0,17,.6"/><path class="cls-1" d="M4.77.6A3.09,3.09,0,0,0,1.68,3.69"/><path class="cls-2" d="M11.58,6.27a.69.69,0,1,0-.69.69.69.69,0,0,0,.69-.69"/><path class="cls-2" d="M11.82,6.27a.93.93,0,1,0-.93.93.93.93,0,0,0,.93-.93"/></g></g></svg>