<svg xmlns="http://www.w3.org/2000/svg" viewBox="0 0 29.64 26.94"><defs><style>.cls-1,.cls-2{fill:none;stroke:#000;stroke-linecap:round;stroke-linejoin:round;}.cls-1{stroke-width:0.72px;}.cls-2{stroke-width:0.5px;}</style></defs><title>Risorsa 2</title><g id="Livello_2" data-name="Livello 2"><g id="Livello_1-2" data-name="Livello 1"><line class="cls-1" x1="0.36" y1="26.58" x2="0.36" y2="0.36"/><line class="cls-1" x1="0.36" y1="0.36" x2="0.36" y2="26.58"/><line class="cls-1" x1="0.54" y1="26.58" x2="0.54" y2="0.36"/><line class="cls-1" x1="29.1" y1="0.36" x2="29.1" y2="26.58"/><line class="cls-1" x1="29.28" y1="26.58" x2="29.28" y2="0.36"/><line class="cls-1" x1="29.28" y1="26.58" x2="29.28" y2="0.36"/><polyline class="cls-2" points="27.24 25.08 2.22 25.08 2.22 1.44 27.24 1.44 27.24 25.08"/><path class="cls-2" d="M14.85,2.64A10.53,10.53,0,1,0,25.38,13.17,10.53,10.53,0,0,0,14.85,2.64"/><path class="cls-2" d="M9.39,11.94a1.23,1.23,0,1,0,1.23,1.23,1.23,1.23,0,0,0-1.23-1.23"/><path class="cls-2" d="M20.37,11.94a1.23,1.23,0,1,0,1.23,1.23,1.23,1.23,0,0,0-1.23-1.23"/><path class="cls-2" d="M14.85,2.4A10.77,10.77,0,1,0,25.62,13.17,10.77,10.77,0,0,0,14.85,2.4"/><path class="cls-2" d="M14.85,16.86a1.23,1.23,0,1,0,1.23,1.23,1.23,1.23,0,0,0-1.23-1.23"/></g></g></svg>