<svg xmlns="http://www.w3.org/2000/svg" viewBox="0 0 29.92 27.22"><defs><style>.cls-1,.cls-2{fill:none;stroke:#000;stroke-linecap:round;stroke-linejoin:round;}.cls-2{stroke-width:0.5px;}</style></defs><title>Risorsa 5</title><g id="Livello_2" data-name="Livello 2"><g id="Livello_1-2" data-name="Livello 1"><polyline class="cls-1" points="29.42 26.72 29.42 0.5 29.42 26.72"/><line class="cls-1" x1="29.24" y1="26.72" x2="29.24" y2="0.5"/><line class="cls-1" x1="27.68" y1="5.18" x2="27.68" y2="22.04"/><line class="cls-1" x1="27.56" y1="22.04" x2="27.56" y2="5.18"/><line class="cls-1" x1="27.5" y1="22.04" x2="27.5" y2="5.18"/><line class="cls-2" x1="27.44" y1="5.24" x2="27.44" y2="22.04"/><line class="cls-2" x1="27.2" y1="22.04" x2="27.2" y2="5.24"/><line class="cls-2" x1="23.42" y1="26.36" x2="23.42" y2="26.18"/><line class="cls-2" x1="23.42" y1="0.86" x2="23.42" y2="1.04"/><line class="cls-2" x1="23.36" y1="1.4" x2="23.36" y2="1.1"/><line class="cls-2" x1="23.36" y1="25.82" x2="23.36" y2="26.12"/><line class="cls-2" x1="6.56" y1="1.4" x2="6.56" y2="1.1"/><line class="cls-2" x1="6.56" y1="25.82" x2="6.56" y2="26.12"/><line class="cls-2" x1="6.5" y1="26.36" x2="6.5" y2="26.18"/><line class="cls-2" x1="6.5" y1="0.86" x2="6.5" y2="1.04"/><line class="cls-2" x1="2.72" y1="22.04" x2="2.72" y2="5.24"/><line class="cls-2" x1="2.48" y1="5.24" x2="2.48" y2="22.04"/><polyline class="cls-2" points="2.42 22.04 2.42 5.18 2.42 22.04"/><line class="cls-1" x1="2.24" y1="22.04" x2="2.24" y2="5.18"/><line class="cls-1" x1="0.68" y1="0.5" x2="0.68" y2="26.72"/><line class="cls-1" x1="0.56" y1="26.72" x2="0.56" y2="0.5"/><line class="cls-1" x1="0.5" y1="26.72" x2="0.5" y2="0.5"/><line class="cls-2" x1="23.42" y1="0.86" x2="6.5" y2="0.86"/><polyline class="cls-2" points="6.5 1.04 23.42 1.04 6.5 1.04"/><line class="cls-2" x1="23.36" y1="1.1" x2="6.56" y2="1.1"/><line class="cls-2" x1="23.36" y1="1.4" x2="6.56" y2="1.4"/><line class="cls-2" x1="2.24" y1="5.18" x2="2.42" y2="5.18"/><line class="cls-1" x1="27.68" y1="5.18" x2="27.5" y2="5.18"/><line class="cls-2" x1="27.2" y1="5.24" x2="27.44" y2="5.24"/><line class="cls-2" x1="2.72" y1="5.24" x2="2.48" y2="5.24"/><line class="cls-2" x1="27.44" y1="8.78" x2="27.5" y2="8.78"/><line class="cls-2" x1="2.48" y1="8.78" x2="2.42" y2="8.78"/><line class="cls-2" x1="27.44" y1="18.44" x2="27.5" y2="18.44"/><line class="cls-2" x1="2.48" y1="18.44" x2="2.42" y2="18.44"/><line class="cls-2" x1="27.2" y1="22.04" x2="27.44" y2="22.04"/><line class="cls-2" x1="2.72" y1="22.04" x2="2.48" y2="22.04"/><line class="cls-2" x1="2.24" y1="22.04" x2="2.42" y2="22.04"/><line class="cls-1" x1="27.68" y1="22.04" x2="27.5" y2="22.04"/><line class="cls-2" x1="6.56" y1="25.82" x2="23.36" y2="25.82"/><line class="cls-2" x1="23.36" y1="26.12" x2="6.56" y2="26.12"/><polyline class="cls-2" points="23.42 26.18 6.5 26.18 23.42 26.18"/><line class="cls-2" x1="23.42" y1="26.36" x2="6.5" y2="26.36"/><path class="cls-2" d="M23.39,26.12A4.11,4.11,0,0,0,27.5,22"/><path class="cls-2" d="M27.5,5.21A4.11,4.11,0,0,0,23.39,1.1"/><path class="cls-2" d="M6.59,1.1A4.11,4.11,0,0,0,2.48,5.21"/><path class="cls-2" d="M2.48,22a4.11,4.11,0,0,0,4.11,4.11"/><path class="cls-2" d="M6.59,1.4A3.81,3.81,0,0,0,2.78,5.21"/><path class="cls-2" d="M27.2,5.21A3.81,3.81,0,0,0,23.39,1.4"/><path class="cls-2" d="M23.39,25.82A3.81,3.81,0,0,0,27.2,22"/><path class="cls-2" d="M2.78,22a3.81,3.81,0,0,0,3.81,3.81"/><path class="cls-2" d="M23.45,26.12A4.11,4.11,0,0,0,27.56,22"/><path class="cls-2" d="M6.53,1A4.11,4.11,0,0,0,2.42,5.15"/><path class="cls-2" d="M2.42,22a4.11,4.11,0,0,0,4.11,4.11"/><path class="cls-2" d="M27.56,5.15A4.11,4.11,0,0,0,23.45,1"/><path class="cls-2" d="M6.53,1A4.11,4.11,0,0,0,2.42,5.15"/><path class="cls-2" d="M23.45,26.12A4.11,4.11,0,0,0,27.56,22"/><path class="cls-2" d="M27.56,5.15A4.11,4.11,0,0,0,23.45,1"/><path class="cls-2" d="M2.42,22a4.11,4.11,0,0,0,4.11,4.11"/><path class="cls-2" d="M2.24,22A4.29,4.29,0,0,0,6.53,26.3"/><path class="cls-2" d="M23.45,26.3A4.29,4.29,0,0,0,27.74,22"/><path class="cls-2" d="M27.74,5.15A4.29,4.29,0,0,0,23.45.86"/><path class="cls-2" d="M6.53.86A4.29,4.29,0,0,0,2.24,5.15"/><line class="cls-2" x1="25.58" y1="12.56" x2="25.4" y2="12.8"/><line class="cls-2" x1="25.58" y1="14.66" x2="19.94" y2="19.52"/><line class="cls-2" x1="25.4" y1="14.42" x2="19.76" y2="19.28"/><line class="cls-2" x1="25.58" y1="12.56" x2="19.94" y2="7.7"/><line class="cls-2" x1="25.4" y1="12.8" x2="19.76" y2="7.94"/><line class="cls-2" x1="25.58" y1="14.66" x2="25.4" y2="14.42"/><line class="cls-2" x1="11.42" y1="7.22" x2="18.5" y2="7.22"/><line class="cls-2" x1="18.5" y1="7.46" x2="11.42" y2="7.46"/><line class="cls-2" x1="18.5" y1="20" x2="18.5" y2="19.76"/><line class="cls-2" x1="18.5" y1="7.22" x2="18.5" y2="7.46"/><line class="cls-2" x1="9.98" y1="19.52" x2="10.16" y2="19.28"/><line class="cls-2" x1="19.94" y1="7.7" x2="19.76" y2="7.94"/><line class="cls-2" x1="9.98" y1="7.7" x2="10.16" y2="7.94"/><line class="cls-2" x1="19.94" y1="19.52" x2="19.76" y2="19.28"/><line class="cls-2" x1="11.42" y1="20" x2="11.42" y2="19.76"/><line class="cls-2" x1="11.42" y1="7.22" x2="11.42" y2="7.46"/><line class="cls-2" x1="11.42" y1="19.76" x2="18.5" y2="19.76"/><line class="cls-2" x1="18.5" y1="20" x2="11.42" y2="20"/><line class="cls-2" x1="4.34" y1="14.66" x2="4.52" y2="14.42"/><line class="cls-2" x1="4.52" y1="12.8" x2="10.16" y2="7.94"/><line class="cls-2" x1="4.34" y1="12.56" x2="9.98" y2="7.7"/><line class="cls-2" x1="4.52" y1="14.42" x2="10.16" y2="19.28"/><line class="cls-2" x1="4.34" y1="14.66" x2="9.98" y2="19.52"/><line class="cls-2" x1="4.34" y1="12.56" x2="4.52" y2="12.8"/><path class="cls-2" d="M4.55,12.77a1.11,1.11,0,0,0,0,1.69"/><path class="cls-2" d="M11.45,7.46a1.89,1.89,0,0,0-1.23.45"/><path class="cls-2" d="M18.53,19.7a1.89,1.89,0,0,0,1.23-.45"/><path class="cls-2" d="M10.22,19.25a1.89,1.89,0,0,0,1.23.45"/><path class="cls-2" d="M19.76,7.91a1.89,1.89,0,0,0-1.23-.45"/><path class="cls-2" d="M16.22,10.31A1.23,1.23,0,1,0,15,11.54a1.23,1.23,0,0,0,1.23-1.23"/><path class="cls-2" d="M25.43,14.45a1.11,1.11,0,0,0,0-1.69"/><path class="cls-2" d="M21.44,13.61a1.23,1.23,0,1,0-1.23,1.23,1.23,1.23,0,0,0,1.23-1.23"/><path class="cls-2" d="M11.06,13.61a1.23,1.23,0,1,0-1.23,1.23,1.23,1.23,0,0,0,1.23-1.23"/><path class="cls-2" d="M10,19.47a2.19,2.19,0,0,0,1.43.53"/><path class="cls-2" d="M18.53,20A2.19,2.19,0,0,0,20,19.47"/><path class="cls-2" d="M4.39,12.58a1.35,1.35,0,0,0,0,2.05"/><path class="cls-2" d="M20,7.69a2.19,2.19,0,0,0-1.43-.53"/><path class="cls-2" d="M25.59,14.64a1.35,1.35,0,0,0,0-2.05"/><path class="cls-2" d="M11.45,7.16A2.19,2.19,0,0,0,10,7.69"/></g></g></svg>