<svg xmlns="http://www.w3.org/2000/svg" viewBox="0 0 21.66 19.74"><defs><style>.cls-1{fill:none;stroke:#000;stroke-linecap:round;stroke-linejoin:round;stroke-width:0.72px;}</style></defs><title>Risorsa 7</title><g id="Livello_2" data-name="Livello 2"><g id="Livello_1-2" data-name="Livello 1"><line class="cls-1" x1="16.98" y1="0.66" x2="4.74" y2="0.66"/><polyline class="cls-1" points="4.74 0.78 16.98 0.78 4.74 0.78"/><line class="cls-1" x1="16.92" y1="0.84" x2="4.74" y2="0.84"/><line class="cls-1" x1="1.62" y1="3.78" x2="1.74" y2="3.78"/><polyline class="cls-1" points="20.1 16.02 20.1 3.78 19.92 3.78"/><line class="cls-1" x1="19.98" y1="16.02" x2="19.98" y2="3.78"/><polyline class="cls-1" points="19.92 16.02 19.92 3.78 19.92 15.96"/><line class="cls-1" x1="16.98" y1="19.14" x2="16.98" y2="18.96"/><line class="cls-1" x1="16.98" y1="0.66" x2="16.98" y2="0.78"/><line class="cls-1" x1="1.62" y1="16.02" x2="1.74" y2="16.02"/><line class="cls-1" x1="20.1" y1="16.02" x2="19.92" y2="16.02"/><polyline class="cls-1" points="16.92 18.96 4.74 18.96 16.98 18.96"/><line class="cls-1" x1="4.74" y1="19.02" x2="16.98" y2="19.02"/><polyline class="cls-1" points="16.98 19.14 4.74 19.14 4.74 18.96"/><line class="cls-1" x1="4.74" y1="0.66" x2="4.74" y2="0.78"/><line class="cls-1" x1="1.8" y1="3.78" x2="1.8" y2="15.96"/><polyline class="cls-1" points="1.74 16.02 1.74 3.78 1.74 16.02"/><line class="cls-1" x1="1.62" y1="16.02" x2="1.62" y2="3.78"/><path class="cls-1" d="M16.95,18.9a3,3,0,0,0,3-3"/><path class="cls-1" d="M19.92,3.75a3,3,0,0,0-3-3"/><path class="cls-1" d="M4.77.78a3,3,0,0,0-3,3"/><path class="cls-1" d="M1.8,15.93a3,3,0,0,0,3,3"/><path class="cls-1" d="M17,19a3,3,0,0,0,3-3"/><path class="cls-1" d="M1.8,16a3,3,0,0,0,3,3"/><path class="cls-1" d="M20,3.75a3,3,0,0,0-3-3"/><path class="cls-1" d="M4.77.78a3,3,0,0,0-3,3"/><path class="cls-1" d="M4.77.66A3.09,3.09,0,0,0,1.68,3.75"/><path class="cls-1" d="M20.1,3.75A3.09,3.09,0,0,0,17,.66"/><path class="cls-1" d="M1.8,16a3,3,0,0,0,3,3"/><path class="cls-1" d="M20,3.75a3,3,0,0,0-3-3"/><path class="cls-1" d="M17,19a3,3,0,0,0,3-3"/><path class="cls-1" d="M17,19.08A3.09,3.09,0,0,0,20.1,16"/><path class="cls-1" d="M4.77.78a3,3,0,0,0-3,3"/><path class="cls-1" d="M1.68,16a3.09,3.09,0,0,0,3.09,3.09"/><line class="cls-1" x1="16.98" y1="13.8" x2="13.44" y2="13.8"/><polyline class="cls-1" points="16.98 13.8 16.98 11.4 13.44 11.4 13.44 13.8"/><polyline class="cls-1" points="13.68 11.7 13.68 13.5 16.68 13.5 16.68 11.7 13.68 11.7"/><polyline class="cls-1" points="8.28 11.4 8.28 13.8 4.74 13.8"/><polyline class="cls-1" points="4.98 13.5 7.98 13.5 7.98 11.7"/><polyline class="cls-1" points="8.28 11.4 4.74 11.4 4.74 13.8"/><polyline class="cls-1" points="4.98 13.5 4.98 11.7 7.98 11.7"/><polyline class="cls-1" points="9.66 2.34 12 2.34 12 5.88"/><polyline class="cls-1" points="11.76 5.58 11.76 2.58 9.96 2.58"/><polyline class="cls-1" points="9.66 2.34 9.66 5.88 12 5.88"/><polyline class="cls-1" points="11.76 5.58 9.96 5.58 9.96 2.58"/><line class="cls-1" x1="0.36" y1="0.36" x2="0.36" y2="19.38"/><line class="cls-1" x1="21.3" y1="0.36" x2="21.3" y2="19.38"/></g></g></svg>