<svg xmlns="http://www.w3.org/2000/svg" viewBox="0 0 21.66 19.74"><defs><style>.cls-1{fill:none;stroke:#000;stroke-linecap:round;stroke-linejoin:round;stroke-width:0.72px;}</style></defs><title>Risorsa 4</title><g id="Livello_2" data-name="Livello 2"><g id="Livello_1-2" data-name="Livello 1"><line class="cls-1" x1="20.1" y1="15.96" x2="20.1" y2="3.72"/><line class="cls-1" x1="19.98" y1="3.72" x2="19.98" y2="15.96"/><line class="cls-1" x1="19.92" y1="3.72" x2="19.92" y2="15.96"/><line class="cls-1" x1="19.86" y1="15.9" x2="19.86" y2="3.78"/><line class="cls-1" x1="19.74" y1="3.78" x2="19.74" y2="15.9"/><line class="cls-1" x1="16.98" y1="19.08" x2="4.74" y2="19.08"/><polyline class="cls-1" points="4.74 18.96 16.98 18.96 4.74 18.96"/><line class="cls-1" x1="16.92" y1="18.9" x2="4.8" y2="18.9"/><line class="cls-1" x1="16.92" y1="18.78" x2="4.8" y2="18.78"/><line class="cls-1" x1="19.08" y1="6.24" x2="19.08" y2="13.44"/><line class="cls-1" x1="16.98" y1="0.6" x2="16.98" y2="0.72"/><line class="cls-1" x1="16.98" y1="19.08" x2="16.98" y2="18.96"/><line class="cls-1" x1="16.92" y1="18.78" x2="16.92" y2="18.9"/><line class="cls-1" x1="16.92" y1="0.9" x2="16.92" y2="0.78"/><line class="cls-1" x1="1.62" y1="15.96" x2="1.74" y2="15.96"/><line class="cls-1" x1="20.1" y1="15.96" x2="19.92" y2="15.96"/><line class="cls-1" x1="19.74" y1="15.9" x2="19.86" y2="15.9"/><line class="cls-1" x1="1.92" y1="15.9" x2="1.8" y2="15.9"/><line class="cls-1" x1="15.96" y1="8.64" x2="15.96" y2="8.76"/><line class="cls-1" x1="15.96" y1="11.04" x2="15.96" y2="10.92"/><line class="cls-1" x1="11.46" y1="15.36" x2="10.26" y2="15.36"/><line class="cls-1" x1="14.58" y1="11.04" x2="14.58" y2="10.92"/><line class="cls-1" x1="14.58" y1="8.76" x2="14.58" y2="8.64"/><line class="cls-1" x1="18.9" y1="13.62" x2="17.82" y2="13.62"/><line class="cls-1" x1="3.9" y1="13.62" x2="2.82" y2="13.62"/><line class="cls-1" x1="19.92" y1="13.38" x2="19.86" y2="13.38"/><line class="cls-1" x1="1.8" y1="13.38" x2="1.74" y2="13.38"/><line class="cls-1" x1="15.96" y1="11.04" x2="14.58" y2="11.04"/><line class="cls-1" x1="7.08" y1="11.04" x2="5.7" y2="11.04"/><line class="cls-1" x1="5.7" y1="10.92" x2="7.08" y2="10.92"/><line class="cls-1" x1="14.58" y1="10.92" x2="15.96" y2="10.92"/><line class="cls-1" x1="11.64" y1="2.28" x2="11.64" y2="4.08"/><line class="cls-1" x1="11.64" y1="15.6" x2="11.64" y2="17.46"/><line class="cls-1" x1="10.08" y1="17.46" x2="10.08" y2="15.6"/><line class="cls-1" x1="10.08" y1="4.08" x2="10.08" y2="2.28"/><line class="cls-1" x1="5.7" y1="8.76" x2="7.08" y2="8.76"/><line class="cls-1" x1="14.58" y1="8.76" x2="15.96" y2="8.76"/><line class="cls-1" x1="5.7" y1="8.64" x2="7.08" y2="8.64"/><line class="cls-1" x1="14.58" y1="8.64" x2="15.96" y2="8.64"/><line class="cls-1" x1="7.08" y1="8.64" x2="7.08" y2="8.76"/><line class="cls-1" x1="7.08" y1="11.04" x2="7.08" y2="10.92"/><line class="cls-1" x1="1.74" y1="6.3" x2="1.8" y2="6.3"/><line class="cls-1" x1="19.86" y1="6.3" x2="19.92" y2="6.3"/><line class="cls-1" x1="2.82" y1="6.06" x2="3.9" y2="6.06"/><line class="cls-1" x1="17.82" y1="6.06" x2="18.9" y2="6.06"/><line class="cls-1" x1="5.7" y1="11.04" x2="5.7" y2="10.92"/><line class="cls-1" x1="5.7" y1="8.76" x2="5.7" y2="8.64"/><line class="cls-1" x1="10.26" y1="4.32" x2="11.46" y2="4.32"/><line class="cls-1" x1="4.8" y1="18.78" x2="4.8" y2="18.9"/><line class="cls-1" x1="4.8" y1="0.9" x2="4.8" y2="0.78"/><line class="cls-1" x1="4.74" y1="0.6" x2="4.74" y2="0.72"/><line class="cls-1" x1="4.74" y1="19.08" x2="4.74" y2="18.96"/><line class="cls-1" x1="19.74" y1="3.78" x2="19.86" y2="3.78"/><line class="cls-1" x1="1.92" y1="3.78" x2="1.8" y2="3.78"/><line class="cls-1" x1="1.62" y1="3.72" x2="1.74" y2="3.72"/><line class="cls-1" x1="20.1" y1="3.72" x2="19.92" y2="3.72"/><line class="cls-1" x1="2.64" y1="13.44" x2="2.64" y2="6.24"/><line class="cls-1" x1="1.92" y1="15.9" x2="1.92" y2="3.78"/><line class="cls-1" x1="4.8" y1="0.9" x2="16.92" y2="0.9"/><line class="cls-1" x1="1.8" y1="15.9" x2="1.8" y2="3.18"/><polyline class="cls-1" points="1.74 3.72 1.74 15.96 1.74 3.72"/><line class="cls-1" x1="1.62" y1="3.72" x2="1.62" y2="15.96"/><line class="cls-1" x1="16.92" y1="0.78" x2="4.8" y2="0.78"/><polyline class="cls-1" points="16.98 0.72 4.74 0.72 16.98 0.72"/><line class="cls-1" x1="16.98" y1="0.6" x2="4.74" y2="0.6"/><path class="cls-1" d="M19.92,3.75a3,3,0,0,0-3-3"/><path class="cls-1" d="M16.95,18.84a3,3,0,0,0,3-3"/><path class="cls-1" d="M1.86,15.87a3,3,0,0,0,3,3"/><path class="cls-1" d="M4.83.78a3,3,0,0,0-3,3"/><path class="cls-1" d="M5.73,8.7a1.11,1.11,0,1,0,0,2.22"/><path class="cls-1" d="M7.11,10.92a1.11,1.11,0,0,0,0-2.22"/><path class="cls-1" d="M16,10.92A1.11,1.11,0,1,0,16,8.7"/><path class="cls-1" d="M14.61,8.7a1.11,1.11,0,1,0,0,2.22"/><path class="cls-1" d="M12,9.81a1.11,1.11,0,1,0-1.11,1.11A1.11,1.11,0,0,0,12,9.81"/><path class="cls-1" d="M17.37,5.73a.57.57,0,0,0,.48.27"/><path class="cls-1" d="M19.14,6.21A.21.21,0,0,0,18.93,6"/><path class="cls-1" d="M18.93,13.62a.21.21,0,0,0,.21-.21"/><path class="cls-1" d="M17.85,13.62a.57.57,0,0,0-.48.27"/><path class="cls-1" d="M17.36,5.73a7.65,7.65,0,0,0-12.94,0"/><path class="cls-1" d="M10.29,15.36a.21.21,0,0,0-.21.21"/><path class="cls-1" d="M11.7,15.57a.21.21,0,0,0-.21-.21"/><path class="cls-1" d="M4.42,13.89a7.65,7.65,0,0,0,12.94,0"/><path class="cls-1" d="M11.49,4.26A.21.21,0,0,0,11.7,4"/><path class="cls-1" d="M10.08,4a.21.21,0,0,0,.21.21"/><path class="cls-1" d="M4.41,13.89a.57.57,0,0,0-.48-.27"/><path class="cls-1" d="M3.93,6a.57.57,0,0,0,.48-.27"/><path class="cls-1" d="M2.85,6a.21.21,0,0,0-.21.21"/><path class="cls-1" d="M2.64,13.41a.21.21,0,0,0,.21.21"/><path class="cls-1" d="M4.83.9A2.85,2.85,0,0,0,2,3.75"/><path class="cls-1" d="M19.8,3.75A2.85,2.85,0,0,0,16.95.9"/><path class="cls-1" d="M16.95,18.72a2.85,2.85,0,0,0,2.85-2.85"/><path class="cls-1" d="M2,15.87a2.85,2.85,0,0,0,2.85,2.85"/><path class="cls-1" d="M12.06,9.81A1.17,1.17,0,1,0,10.89,11a1.17,1.17,0,0,0,1.17-1.17"/><path class="cls-1" d="M7.11,11a1.17,1.17,0,1,0,0-2.34"/><path class="cls-1" d="M5.73,8.64a1.17,1.17,0,1,0,0,2.34"/><path class="cls-1" d="M16,11a1.17,1.17,0,1,0,0-2.34"/><path class="cls-1" d="M14.61,8.64a1.17,1.17,0,1,0,0,2.34"/><path class="cls-1" d="M20,3.69a3,3,0,0,0-3-3"/><path class="cls-1" d="M4.77.72a3,3,0,0,0-3,3"/><path class="cls-1" d="M17,18.9a3,3,0,0,0,3-3"/><path class="cls-1" d="M1.8,15.93a3,3,0,0,0,3,3"/><path class="cls-1" d="M1.68,15.93A3.09,3.09,0,0,0,4.77,19"/><path class="cls-1" d="M17,19a3.09,3.09,0,0,0,3.09-3.09"/><path class="cls-1" d="M4.77.72a3,3,0,0,0-3,3"/><path class="cls-1" d="M17,18.9a3,3,0,0,0,3-3"/><path class="cls-1" d="M20,3.69a3,3,0,0,0-3-3"/><path class="cls-1" d="M20.1,3.69A3.09,3.09,0,0,0,17,.6"/><path class="cls-1" d="M1.8,15.93a3,3,0,0,0,3,3"/><path class="cls-1" d="M4.77.6A3.09,3.09,0,0,0,1.68,3.69"/><polyline class="cls-1" points="21.3 0.36 21.3 19.38 21.3 0.36"/><line class="cls-1" x1="21.18" y1="0.36" x2="21.18" y2="19.38"/><line class="cls-1" x1="0.48" y1="19.38" x2="0.48" y2="0.36"/><polyline class="cls-1" points="0.36 19.38 0.36 0.36 0.36 19.38"/><path class="cls-1" d="M12.06,9.81A1.17,1.17,0,1,0,10.89,11a1.17,1.17,0,0,0,1.17-1.17"/></g></g></svg>