<svg xmlns="http://www.w3.org/2000/svg" viewBox="0 0 29.92 27.28"><defs><style>.cls-1,.cls-2{fill:none;stroke:#000;stroke-linecap:round;stroke-linejoin:round;}.cls-1{stroke-width:0.75px;}</style></defs><title>Risorsa 3</title><g id="Livello_2" data-name="Livello 2"><g id="Livello_1-2" data-name="Livello 1"><polyline class="cls-1" points="13.76 4.88 13.76 2.72 16.16 2.72"/><polyline class="cls-1" points="14.48 8.42 14.48 9.14 13.52 9.14"/><polyline class="cls-1" points="12.26 15.02 11.06 15.02 11.06 15.44 8.96 15.44 8.96 15.74 7.28 15.74 7.28 18.2 9.08 18.2 9.08 18.44 11.06 18.44 11.84 19.04 12.8 18.8 12.26 17.96 12.26 15.02"/><polyline class="cls-1" points="15.44 8.42 15.44 9.14 16.4 9.14"/><polyline class="cls-1" points="17.66 15.02 18.86 15.02 18.86 15.44 20.96 15.44 20.96 15.74 22.64 15.74 22.64 18.2 20.84 18.2 20.84 18.44 18.86 18.44 18.08 19.04 17.12 18.8 17.66 17.96 17.66 15.02"/><line class="cls-1" x1="13.52" y1="9.14" x2="13.52" y2="10.28"/><line class="cls-1" x1="16.4" y1="9.14" x2="16.4" y2="10.28"/><path class="cls-1" d="M13.52,10.25a1.47,1.47,0,1,0,2.94,0"/><line class="cls-1" x1="16.16" y1="2.72" x2="16.16" y2="4.88"/><path class="cls-1" d="M15.46,8.43a2,2,0,0,0,.74-3.56"/><path class="cls-1" d="M13.78,4.87a2,2,0,0,0,.74,3.56"/><polyline class="cls-1" points="27.26 1.34 2.66 1.34 2.66 25.88 27.26 25.88 27.26 1.34"/><polyline class="cls-2" points="0.5 0.5 0.5 0.5 0.5 26.78"/><line class="cls-2" x1="29.42" y1="0.5" x2="29.42" y2="26.78"/></g></g></svg>